<svg width="103" height="154" viewBox="0 0 103 154" fill="none" xmlns="http://www.w3.org/2000/svg">
<g id="Group">
<g id="Group_2">
<path id="XMLID_39_" d="M11.5471 23.3062C11.5471 22.9797 11.5471 22.8165 11.384 22.49C11.384 22.3268 11.384 22.1635 11.384 22.0003C11.2209 20.5312 11.0578 18.8988 11.0578 17.4297C11.0578 16.94 11.2209 16.2871 11.2209 15.7974C10.2422 16.1238 9.1004 16.7768 7.63235 17.4297C4.04378 19.2253 1.59703 20.8577 0.944565 22.0003C-0.849718 24.9386 -0.0341396 28.693 2.90196 30.4886C3.06508 30.6518 3.2282 30.6518 3.39132 30.815C3.71755 30.9783 3.88067 31.1415 4.2069 31.1415C6.81677 32.1209 10.0791 30.9783 11.2209 28.693C12.0365 27.2238 11.8734 25.265 11.5471 23.3062ZM3.71754 29.9989C0.128977 27.8768 0.944565 24.2856 0.944565 24.2856C0.944565 23.9591 1.27079 23.7959 1.59702 23.9591C1.92326 23.9591 2.08638 24.2856 1.92326 24.6121C1.92326 24.7753 1.2708 27.5503 4.2069 29.3459C4.37002 29.5091 4.53313 29.8356 4.37001 29.9989C4.2069 29.9989 4.04378 29.9989 3.71754 29.9989Z" fill="url(#paint0_linear_0_1533)"/>
<g id="Group_3">
<g id="XMLID_35_">
<path id="XMLID_36_" d="M41.2365 54.1575C39.9315 54.8105 38.3004 54.3208 37.4848 52.8517C36.8323 51.5458 37.3217 49.9134 38.7897 49.0972C40.0947 48.4443 41.7258 48.934 42.5414 50.4031C43.1939 51.8722 42.7045 53.5046 41.2365 54.1575ZM39.4422 50.4031C38.7897 50.7296 38.4635 51.5458 38.7897 52.3619C39.116 53.0149 39.9315 53.3414 40.7471 53.0149C41.3996 52.6884 41.7258 51.8722 41.3996 51.0561C41.0734 50.4031 40.0947 50.0767 39.4422 50.4031Z" fill="url(#paint1_linear_0_1533)"/>
</g>
<g id="XMLID_31_">
<path id="XMLID_32_" d="M34.7065 49.5876C34.0541 49.9141 33.2385 49.5876 32.7491 48.9347C32.4229 48.2817 32.7491 47.4656 33.4016 46.9759C34.0541 46.6494 34.8697 46.9759 35.359 47.6288C35.6852 48.2817 35.5221 49.2611 34.7065 49.5876ZM33.891 47.6288C33.5647 47.792 33.4016 48.2817 33.5647 48.6082C33.7278 48.9347 34.2172 49.0979 34.5434 48.9347C34.8697 48.7714 35.0328 48.2817 34.8697 47.9553C34.7065 47.6288 34.2172 47.4656 33.891 47.6288Z" fill="url(#paint2_linear_0_1533)"/>
</g>
<g id="XMLID_27_">
<path id="XMLID_28_" d="M38.1352 45.1803C37.3196 45.67 36.1778 45.1803 35.8516 44.3641C35.5254 43.5479 35.8516 42.4053 36.6672 42.0788C37.4828 41.5891 38.6246 42.0788 38.9508 42.895C39.2771 43.7112 39.1139 44.8538 38.1352 45.1803ZM36.9934 42.895C36.5041 43.0582 36.3409 43.7112 36.5041 44.2009C36.6672 44.6906 37.3197 44.8538 37.809 44.6906C38.2984 44.5273 38.4615 43.8744 38.2983 43.3847C37.9721 42.7317 37.4828 42.5685 36.9934 42.895Z" fill="url(#paint3_linear_0_1533)"/>
</g>
<g id="XMLID_23_">
<path id="XMLID_24_" d="M17.7441 15.1452C16.4392 15.7982 14.808 15.3085 13.9925 13.8393C13.34 12.5335 13.8293 10.9011 15.2974 10.0849C16.7654 9.26874 18.2335 9.92169 19.0491 11.3908C19.8647 12.8599 19.0491 14.4923 17.7441 15.1452ZM15.9499 11.3908C15.2974 11.7173 14.9712 12.5335 15.2974 13.3496C15.6236 14.0026 16.4392 14.329 17.2548 14.0026C17.9073 13.6761 18.2335 12.8599 17.9073 12.0437C17.4179 11.2276 16.6023 10.9011 15.9499 11.3908Z" fill="url(#paint4_linear_0_1533)"/>
</g>
<g id="XMLID_19_">
<path id="XMLID_20_" d="M21.9878 2.73948C21.3353 3.06595 20.5197 2.73948 20.0304 2.08654C19.7042 1.43359 20.0304 0.617417 20.6829 0.12771C21.3353 -0.198761 22.1509 0.12771 22.6403 0.780652C22.9665 1.59683 22.6403 2.41301 21.9878 2.73948ZM21.0091 0.943888C20.6829 1.10712 20.5197 1.59683 20.6829 1.9233C20.846 2.24977 21.3353 2.41301 21.6616 2.24977C21.9878 2.08654 22.1509 1.59683 21.9878 1.27036C21.8247 0.780652 21.3353 0.617417 21.0091 0.943888Z" fill="url(#paint5_linear_0_1533)"/>
</g>
<g id="XMLID_15_">
<path id="XMLID_16_" d="M23.4497 10.2477C22.6342 10.7374 21.4923 10.2477 21.1661 9.43152C20.8399 8.61534 21.1661 7.47269 21.9817 7.14622C22.7973 6.81975 23.9391 7.14622 24.2653 7.9624C24.7547 8.77858 24.4284 9.75799 23.4497 10.2477ZM22.3079 7.79916C21.8186 7.9624 21.6555 8.61534 21.8186 9.10505C21.9817 9.59476 22.6342 9.75799 23.1235 9.59476C23.6129 9.43152 23.776 8.77858 23.6128 8.28887C23.2866 7.79916 22.7973 7.63593 22.3079 7.79916Z" fill="url(#paint6_linear_0_1533)"/>
</g>
<path id="XMLID_14_" d="M63.9041 96.1094C63.741 95.7829 63.2517 95.6197 62.9254 95.7829C62.5992 95.9461 62.4361 96.4359 62.5992 96.7623C62.7623 97.0888 63.2517 97.252 63.5779 97.0888C63.9041 96.9256 64.0672 96.5991 63.9041 96.1094Z" fill="url(#paint7_linear_0_1533)"/>
<path id="XMLID_13_" d="M54.7733 80.6025C54.6102 80.2761 54.1208 80.1128 53.7946 80.2761C53.4684 80.4393 53.3052 80.929 53.4684 81.2555C53.6315 81.582 54.1208 81.7452 54.4471 81.582C54.7733 81.4187 54.9364 81.0923 54.7733 80.6025Z" fill="url(#paint8_linear_0_1533)"/>
<path id="XMLID_12_" d="M70.4311 99.2113C70.1049 98.5584 69.2893 98.2319 68.4737 98.5584C67.8212 98.8848 67.495 99.701 67.8212 100.517C68.1475 101.17 68.9631 101.497 69.7786 101.17C70.4311 100.844 70.7573 100.027 70.4311 99.2113Z" fill="url(#paint9_linear_0_1533)"/>
<path id="XMLID_11_" d="M67.3301 91.5393C67.167 91.0496 66.5146 90.8864 66.0252 91.0496C65.5359 91.2129 65.3727 91.8658 65.5358 92.3555C65.699 92.8452 66.3514 93.0084 66.8408 92.8452C67.3301 92.5187 67.4933 91.8658 67.3301 91.5393Z" fill="url(#paint10_linear_0_1533)"/>
<path id="XMLID_5_" d="M95.8797 136.103C95.7166 135.45 95.5534 134.797 95.2272 134.307L64.0719 70.4821C56.4054 73.0938 47.5971 64.1159 40.42 62.4835L79.4049 142.142C79.7311 142.795 80.0574 143.285 80.3836 143.775C83.4828 148.019 88.2132 147.692 91.3124 146.223C94.2485 144.754 97.3477 141.163 95.8797 136.103ZM54.6111 82.235C53.9587 82.5615 53.1431 82.235 52.6537 81.5821C52.3275 80.9291 52.6537 80.113 53.3062 79.6233C53.9587 79.2968 54.7743 79.6232 55.2636 80.2762C55.5899 81.0924 55.4267 81.9085 54.6111 82.235ZM63.9088 97.7424C63.2563 98.0689 62.4407 97.7424 61.9514 97.0895C61.6252 96.4365 61.9514 95.6203 62.6039 95.1306C63.2563 94.8042 64.0719 95.1306 64.5613 95.7836C64.8875 96.5997 64.5613 97.4159 63.9088 97.7424ZM67.3342 93.4983C66.5187 93.988 65.3769 93.4983 65.0506 92.6821C64.5613 91.8659 65.0506 90.7233 65.8662 90.3968C66.6818 89.9071 67.8236 90.3968 68.1498 91.213C68.4761 92.0291 68.1498 93.0086 67.3342 93.4983ZM70.2704 102.313C68.9654 102.966 67.3342 102.476 66.5187 101.007C65.8662 99.7012 66.3556 98.0689 67.8236 97.2527C69.1285 96.5997 70.7597 97.0894 71.5753 98.5586C72.2278 100.028 71.7384 101.66 70.2704 102.313Z" fill="url(#paint11_linear_0_1533)"/>
</g>
</g>
<g id="XMLID_1_">
<path id="XMLID_2_" d="M44.4943 11.8807C43.0262 9.92191 40.2532 9.26897 37.9696 10.4116L27.367 15.6352L16.7644 20.8587C14.4808 22.0013 13.1759 24.6131 13.8283 26.8984C14.3177 28.694 15.7857 29.8366 17.58 29.9999C17.7431 30.4896 18.3956 31.6322 19.0481 33.1014L32.5867 60.5249L35.5229 66.5647L73.6921 144.754C74.3446 146.06 75.1602 147.203 75.9758 148.346C85.9259 159.935 105.174 150.468 102.238 135.45C101.911 134.144 101.585 132.675 100.933 131.532L59.6641 47.4661C58.033 44.2014 46.1254 19.8793 44.6574 16.941C45.6361 15.3087 45.6361 13.3499 44.4943 11.8807ZM41.0688 15.3087C40.4163 15.9616 40.4163 16.7778 40.7426 17.594C41.5582 19.2263 42.7 21.5116 44.0049 24.1234L33.8917 29.1837C33.4023 29.3469 33.2392 29.9999 33.4023 30.4896C33.5654 30.9793 34.2179 31.1425 34.7073 30.9793L44.8205 25.919C45.7992 27.8778 46.7779 29.8367 47.7566 31.9587L37.6434 37.019C37.154 37.1823 36.9909 37.8352 37.154 38.3249C37.3171 38.8146 37.9696 38.9778 38.459 38.8146L48.5722 33.7543C49.5509 35.8764 50.6927 37.8352 51.5083 39.794L41.3951 44.8543C40.9057 45.0176 40.7426 45.6705 40.9057 46.1602C41.0688 46.6499 41.7213 46.8131 42.2106 46.6499L52.3239 41.5896C54.1182 45.344 55.5862 48.2823 56.0756 49.4249L97.5072 133.165C97.8334 133.818 98.1597 134.634 98.3228 135.45C101.585 147.203 85.7628 154.875 78.4225 145.244C77.9332 144.591 77.4438 143.938 77.1176 143.122L36.8278 60.8514L35.8491 58.8926C34.381 55.9543 26.0621 38.9778 21.6579 30.1631L20.0268 27.0616C19.7005 26.5719 18.885 26.2455 18.2325 26.2455C17.58 26.2455 17.2538 26.2455 17.0907 25.919C16.9275 25.5925 17.0907 24.7763 17.9062 24.4499L28.5088 19.2263L39.1114 14.0028C39.927 13.5131 40.5795 13.8396 40.9057 14.166C41.5582 14.4925 41.395 14.819 41.0688 15.3087Z" fill="url(#paint12_linear_0_1533)"/>
</g>
</g>
<defs>
<linearGradient id="paint0_linear_0_1533" x1="-0.0215762" y1="23.682" x2="11.835" y2="23.682" gradientUnits="userSpaceOnUse">
<stop stop-color="#0E4DC8"/>
<stop offset="0.9695" stop-color="#23B3F2"/>
</linearGradient>
<linearGradient id="paint1_linear_0_1533" x1="37.2962" y1="51.6757" x2="42.8057" y2="51.6757" gradientUnits="userSpaceOnUse">
<stop stop-color="#0E4DC8"/>
<stop offset="0.9695" stop-color="#23B3F2"/>
</linearGradient>
<linearGradient id="paint2_linear_0_1533" x1="32.7553" y1="48.2613" x2="35.565" y2="48.2613" gradientUnits="userSpaceOnUse">
<stop stop-color="#0E4DC8"/>
<stop offset="0.9695" stop-color="#23B3F2"/>
</linearGradient>
<linearGradient id="paint3_linear_0_1533" x1="35.6836" y1="43.669" x2="39.1895" y2="43.669" gradientUnits="userSpaceOnUse">
<stop stop-color="#0E4DC8"/>
<stop offset="0.9695" stop-color="#23B3F2"/>
</linearGradient>
<linearGradient id="paint4_linear_0_1533" x1="13.7528" y1="12.6116" x2="19.2623" y2="12.6116" gradientUnits="userSpaceOnUse">
<stop stop-color="#0E4DC8"/>
<stop offset="0.9695" stop-color="#23B3F2"/>
</linearGradient>
<linearGradient id="paint5_linear_0_1533" x1="19.9092" y1="1.53349" x2="22.7189" y2="1.53349" gradientUnits="userSpaceOnUse">
<stop stop-color="#0E4DC8"/>
<stop offset="0.9695" stop-color="#23B3F2"/>
</linearGradient>
<linearGradient id="paint6_linear_0_1533" x1="20.9881" y1="8.65729" x2="24.494" y2="8.65729" gradientUnits="userSpaceOnUse">
<stop stop-color="#0E4DC8"/>
<stop offset="0.9695" stop-color="#23B3F2"/>
</linearGradient>
<linearGradient id="paint7_linear_0_1533" x1="62.4916" y1="96.4796" x2="63.963" y2="96.4796" gradientUnits="userSpaceOnUse">
<stop stop-color="#0E4DC8"/>
<stop offset="0.9695" stop-color="#23B3F2"/>
</linearGradient>
<linearGradient id="paint8_linear_0_1533" x1="53.3044" y1="80.9811" x2="54.7761" y2="80.9811" gradientUnits="userSpaceOnUse">
<stop stop-color="#0E4DC8"/>
<stop offset="0.9695" stop-color="#23B3F2"/>
</linearGradient>
<linearGradient id="paint9_linear_0_1533" x1="67.6722" y1="99.8951" x2="70.558" y2="99.8951" gradientUnits="userSpaceOnUse">
<stop stop-color="#0E4DC8"/>
<stop offset="0.9695" stop-color="#23B3F2"/>
</linearGradient>
<linearGradient id="paint10_linear_0_1533" x1="65.5828" y1="91.888" x2="67.419" y2="91.888" gradientUnits="userSpaceOnUse">
<stop stop-color="#0E4DC8"/>
<stop offset="0.9695" stop-color="#23B3F2"/>
</linearGradient>
<linearGradient id="paint11_linear_0_1533" x1="40.3761" y1="104.882" x2="96.3059" y2="104.882" gradientUnits="userSpaceOnUse">
<stop stop-color="#0E4DC8"/>
<stop offset="0.9695" stop-color="#23B3F2"/>
</linearGradient>
<linearGradient id="paint12_linear_0_1533" x1="18.8445" y1="82.82" x2="172.713" y2="79.2022" gradientUnits="userSpaceOnUse">
<stop stop-color="#6E2986"/>
<stop offset="1" stop-color="#E12B80"/>
</linearGradient>
</defs>
</svg>
