<svg width="158" height="105" viewBox="0 0 158 105" fill="none" xmlns="http://www.w3.org/2000/svg">
<g id="Group">
<path id="Vector" d="M54.8965 80.7368C53.9178 80.7368 53.1022 80.4103 52.6129 79.5941C51.9604 78.9412 51.7973 77.9618 51.9604 76.9824L55.0596 64.25H145.1L157.66 49.2323L153.419 40.4176H60.9318L64.3573 26.7058C64.6835 25.8897 65.0097 25.2367 65.8253 24.9102C66.4778 24.4205 67.1303 24.2573 67.6196 24.2573H145.589L133.682 0.0984497H63.3786C52.4498 0.0984497 44.9464 5.81169 40.7054 17.4014L25.8617 77.7986C24.2306 84.8177 25.8617 91.0206 30.2659 96.4074C34.8332 101.794 40.7054 104.569 48.2087 104.569H111.335L131.235 80.7368H54.8965Z" fill="url(#paint0_linear_0_1516)"/>
<g id="Group_2">
<g id="Group_3">
<path id="Vector_2" d="M-8.23495 37.968C-9.37677 37.3151 -10.3555 36.0092 -10.3555 34.5401C-10.3555 32.418 -8.56119 30.6224 -6.44067 30.6224H46.246C48.3665 30.6224 50.1608 32.418 50.1608 34.5401C50.1608 36.6621 48.3665 38.4577 46.246 38.4577H-6.44067C-7.09314 38.4577 -7.7456 38.2945 -8.23495 37.968Z" fill="url(#paint1_linear_0_1516)"/>
</g>
<g id="Group_4">
<path id="Vector_3" d="M24.5522 22.4612C23.4103 21.8083 22.4316 20.5024 22.4316 19.0332C22.4316 16.9112 24.2259 15.1156 26.3464 15.1156L51.4664 15.2788C53.5869 15.2788 55.3812 17.0744 55.3812 19.1965C55.3812 21.3186 53.5869 23.1141 51.4664 23.1141L26.3464 22.9509C25.694 22.9509 25.0415 22.7877 24.5522 22.4612Z" fill="url(#paint2_linear_0_1516)"/>
</g>
<path id="Vector_4" d="M41.0269 61.4737L12.1552 61.6369C10.0347 61.6369 8.24042 63.4325 8.24042 65.5546C8.24042 67.0237 9.056 68.3296 10.1978 68.9825C10.6872 69.309 11.3396 69.4722 11.9921 69.4722L36.7858 69.309L41.0269 61.4737Z" fill="url(#paint3_linear_0_1516)"/>
<path id="Vector_5" d="M46.2465 46.9463L-3.66723 46.7831C-5.78775 46.7831 -7.58203 48.5787 -7.58203 50.7007C-7.58203 52.1699 -6.76645 53.4757 -5.62463 54.1287C-5.13528 54.4552 -4.48282 54.6184 -3.83035 54.6184L42.0054 54.7816L46.2465 46.9463Z" fill="url(#paint4_linear_0_1516)"/>
<g id="Group_5">
<path id="Vector_6" d="M-20.3033 68.8192C-21.6082 68.1663 -22.4238 66.8604 -22.4238 65.3913C-22.4238 63.2692 -20.6295 61.4736 -18.509 61.4736H1.39121C3.51173 61.4736 5.30601 63.2692 5.30601 65.3913C5.30601 67.5134 3.51173 69.3089 1.39121 69.3089H-18.509C-19.1615 69.3089 -19.814 69.1457 -20.3033 68.8192Z" fill="url(#paint5_linear_0_1516)"/>
</g>
<g id="Group_6">
<path id="Vector_7" d="M5.79045 22.6245C4.64864 21.9715 3.66994 20.6656 3.66994 19.1965C3.66994 17.0745 5.46422 15.2789 7.58474 15.2789H14.5988C16.7193 15.2789 18.5136 17.0745 18.5136 19.1965C18.5136 21.3186 16.7193 23.1142 14.5988 23.1142H7.58474C6.93227 23.1142 6.44292 22.9509 5.79045 22.6245Z" fill="url(#paint6_linear_0_1516)"/>
</g>
</g>
</g>
<defs>
<linearGradient id="paint0_linear_0_1516" x1="-52.6269" y1="61.3304" x2="304.35" y2="38.4175" gradientUnits="userSpaceOnUse">
<stop stop-color="#0E4DC8"/>
<stop offset="0.9695" stop-color="#23B3F2"/>
</linearGradient>
<linearGradient id="paint1_linear_0_1516" x1="-54.044" y1="39.3342" x2="302.933" y2="16.4212" gradientUnits="userSpaceOnUse">
<stop stop-color="#0E4DC8"/>
<stop offset="0.9695" stop-color="#23B3F2"/>
</linearGradient>
<linearGradient id="paint2_linear_0_1516" x1="-54.9521" y1="25.1755" x2="302.025" y2="2.2627" gradientUnits="userSpaceOnUse">
<stop stop-color="#0E4DC8"/>
<stop offset="0.9695" stop-color="#23B3F2"/>
</linearGradient>
<linearGradient id="paint3_linear_0_1516" x1="-52.0593" y1="70.245" x2="304.918" y2="47.3321" gradientUnits="userSpaceOnUse">
<stop stop-color="#0E4DC8"/>
<stop offset="0.9695" stop-color="#23B3F2"/>
</linearGradient>
<linearGradient id="paint4_linear_0_1516" x1="-53.0131" y1="55.3866" x2="303.964" y2="32.4737" gradientUnits="userSpaceOnUse">
<stop stop-color="#0E4DC8"/>
<stop offset="0.9695" stop-color="#23B3F2"/>
</linearGradient>
<linearGradient id="paint5_linear_0_1516" x1="-52.1879" y1="68.2151" x2="304.789" y2="45.3022" gradientUnits="userSpaceOnUse">
<stop stop-color="#0E4DC8"/>
<stop offset="0.9695" stop-color="#23B3F2"/>
</linearGradient>
<linearGradient id="paint6_linear_0_1516" x1="-55.0636" y1="23.488" x2="301.913" y2="0.575225" gradientUnits="userSpaceOnUse">
<stop stop-color="#0E4DC8"/>
<stop offset="0.9695" stop-color="#23B3F2"/>
</linearGradient>
</defs>
</svg>
