<svg width="119" height="105" viewBox="0 0 119 105" fill="none" xmlns="http://www.w3.org/2000/svg">
<path id="Vector" d="M37.5564 103.917C27.6063 103.264 20.266 101.142 15.2094 97.2239C10.1528 93.4695 6.23795 88.246 3.7912 81.7166C-1.91788 67.6783 -0.61297 51.518 7.54286 33.5621C18.4717 12.9944 36.2514 2.05762 60.882 0.588501H94.6472C105.087 1.24144 111.938 4.34292 115.2 9.72969C118.462 15.1165 119.278 21.1562 117.647 28.0121L117.484 28.9915L108.349 66.2092H47.6696C44.4072 65.7195 42.613 63.2709 42.4499 58.7004C42.2868 54.1298 43.7548 49.7224 46.6909 45.1518C49.627 40.5812 53.868 38.1327 59.414 37.643H71.3215H82.0872L84.2077 28.9915H83.7184H63.1657H63.0025C54.8467 29.318 48.1589 31.6033 43.1023 35.8474C38.0457 39.9283 34.7834 44.8253 33.1522 50.5386C29.2374 66.2092 33.9678 74.2077 47.1802 74.6974H62.8395H105.902L98.7251 104.406L37.5564 103.917Z" fill="#065A4A"/>
</svg>
