<svg width="785" height="217" viewBox="0 0 785 217" fill="none" xmlns="http://www.w3.org/2000/svg">
<path d="M190.764 128.921L170.701 153.57H134.652L177.715 101.661M203.161 71.9518L221.594 49.4253H257.153L216.048 99.0489" fill="#065A4A"/>
<path d="M330.388 49.915C340.338 50.4047 347.841 52.69 352.898 56.4444C357.955 60.362 361.869 65.5856 364.479 72.115C370.188 86.3165 368.883 102.314 360.728 120.269C349.636 141 331.856 151.937 307.225 153.57H280.8L263.999 216.089H231.213L263.51 88.9283H297.112L288.141 125.003H288.304H304.779H304.942C313.097 124.677 319.785 122.392 324.842 118.147C329.898 114.067 333.161 109.169 334.792 103.456C339.359 87.6224 334.792 79.4606 320.601 79.2974H304.942H265.957L273.134 49.5885L330.388 49.915Z" fill="#065A4A"/>
<path d="M419.619 49.4254H452.732L445.228 79.1343H427.285C425.165 79.1343 423.371 79.7872 421.739 81.2563C420.108 82.7255 418.966 84.5211 418.477 86.6431L402.165 153.57H369.053L387.159 78.1549C391.563 61.5048 402.492 51.8739 419.619 49.4254Z" fill="#065A4A"/>
<path d="M483.556 152.917C473.606 152.264 466.266 150.142 461.209 146.224C456.153 142.47 452.238 137.246 449.791 130.717C444.082 116.678 445.387 100.518 453.543 82.5621C464.472 61.9944 482.251 51.0576 506.882 49.5885H540.647C551.087 50.2414 557.938 53.3429 561.2 58.7297C564.462 64.1165 565.278 70.1562 563.647 77.0121L563.484 77.9915L554.349 115.209H493.67C490.407 114.719 488.613 112.271 488.45 107.7C488.287 103.13 489.755 98.7224 492.691 94.1518C495.627 89.5812 499.868 87.1327 505.414 86.643H517.321H528.087L530.208 77.9915H529.718H509.166H509.003C500.847 78.318 494.159 80.6033 489.102 84.8474C484.046 88.9283 480.783 93.8253 479.152 99.5386C475.237 115.209 479.968 123.208 493.18 123.697H508.839H551.902L544.725 153.406L483.556 152.917Z" fill="#065A4A"/>
<path d="M557.781 153.406L564.795 125.166H617.971C623.68 125.656 627.106 123.86 628.248 119.779C628.411 115.372 625.148 113.413 618.461 113.903H603.454C593.178 113.74 585.185 110.312 579.802 103.946C574.256 97.4161 572.625 88.4382 574.745 77.0117C580.781 57.2602 595.787 48.119 620.092 49.5881H676.693L670.006 76.6852H614.872C610.794 76.522 608.347 77.9911 607.695 81.2558C607.369 83.7043 608.347 85.4999 610.305 86.3161C612.425 87.1323 615.198 87.4588 618.787 87.2955L632.162 86.8058C644.722 87.2955 653.041 90.7235 657.119 97.5794C661.197 104.272 662.339 113.25 660.382 124.513C656.304 144.754 642.439 154.385 618.95 153.569H557.781V153.406Z" fill="#065A4A"/>
<path d="M666.252 153.406L673.266 125.166H726.442C732.151 125.656 735.577 123.86 736.718 119.779C736.881 115.372 733.619 113.413 726.931 113.903H711.925C701.648 113.74 693.656 110.312 688.273 103.946C682.727 97.4161 681.096 88.4382 683.216 77.0117C689.251 57.2602 704.258 48.119 728.563 49.5881H785.001L778.313 76.6852H723.18C719.102 76.522 716.655 77.9911 716.003 81.2558C715.676 83.7043 716.655 85.4999 718.612 86.3161C720.733 87.1323 723.506 87.4588 727.094 87.2955L740.47 86.8058C753.03 87.2955 761.349 90.7235 765.427 97.5794C769.505 104.272 770.647 113.25 768.689 124.513C764.611 144.754 750.746 154.385 727.258 153.569H666.252V153.406Z" fill="#065A4A"/>
<path d="M54.8965 129.737C53.9178 129.737 53.1022 129.41 52.6129 128.594C51.9604 127.941 51.7973 126.962 51.9604 125.982L55.0596 113.25H145.1L157.66 98.2323L153.419 89.4176H60.9318L64.3573 75.7058C64.6835 74.8896 65.0097 74.2367 65.8253 73.9102C66.4778 73.4205 67.1303 73.2572 67.6196 73.2572H145.589L133.682 49.0984H63.3786C52.4498 49.0984 44.9464 54.8116 40.7054 66.4014L25.8617 126.798C24.2306 133.818 25.8617 140.021 30.2659 145.407C34.8332 150.794 40.7054 153.569 48.2087 153.569H111.335L131.235 129.737H54.8965Z" fill="url(#paint0_linear_1_1510)"/>
<path d="M-8.23495 86.968C-9.37677 86.3151 -10.3555 85.0092 -10.3555 83.5401C-10.3555 81.418 -8.56119 79.6224 -6.44067 79.6224H46.246C48.3665 79.6224 50.1608 81.418 50.1608 83.5401C50.1608 85.6621 48.3665 87.4577 46.246 87.4577H-6.44067C-7.09314 87.4577 -7.7456 87.2945 -8.23495 86.968Z" fill="url(#paint1_linear_1_1510)"/>
<path d="M24.5522 71.4612C23.4103 70.8083 22.4316 69.5024 22.4316 68.0332C22.4316 65.9112 24.2259 64.1156 26.3464 64.1156L51.4664 64.2788C53.5869 64.2788 55.3812 66.0744 55.3812 68.1965C55.3812 70.3186 53.5869 72.1141 51.4664 72.1141L26.3464 71.9509C25.694 71.9509 25.0415 71.7877 24.5522 71.4612Z" fill="url(#paint2_linear_1_1510)"/>
<path d="M41.0269 110.474L12.1552 110.637C10.0347 110.637 8.24042 112.432 8.24042 114.555C8.24042 116.024 9.056 117.33 10.1978 117.982C10.6872 118.309 11.3396 118.472 11.9921 118.472L36.7858 118.309L41.0269 110.474Z" fill="url(#paint3_linear_1_1510)"/>
<path d="M46.2465 95.9463L-3.66723 95.7831C-5.78775 95.7831 -7.58203 97.5787 -7.58203 99.7007C-7.58203 101.17 -6.76645 102.476 -5.62463 103.129C-5.13528 103.455 -4.48282 103.618 -3.83035 103.618L42.0054 103.782L46.2465 95.9463Z" fill="url(#paint4_linear_1_1510)"/>
<path d="M-20.3033 117.819C-21.6082 117.166 -22.4238 115.86 -22.4238 114.391C-22.4238 112.269 -20.6295 110.474 -18.509 110.474H1.39121C3.51173 110.474 5.30601 112.269 5.30601 114.391C5.30601 116.513 3.51173 118.309 1.39121 118.309H-18.509C-19.1615 118.309 -19.814 118.146 -20.3033 117.819Z" fill="url(#paint5_linear_1_1510)"/>
<path d="M5.79045 71.6245C4.64864 70.9716 3.66994 69.6657 3.66994 68.1966C3.66994 66.0745 5.46422 64.2789 7.58474 64.2789H14.5988C16.7193 64.2789 18.5136 66.0745 18.5136 68.1966C18.5136 70.3186 16.7193 72.1142 14.5988 72.1142H7.58474C6.93227 72.1142 6.44292 71.951 5.79045 71.6245Z" fill="url(#paint6_linear_1_1510)"/>
<path d="M139.547 23.3062C139.547 22.9797 139.547 22.8165 139.384 22.49C139.384 22.3268 139.384 22.1635 139.384 22.0003C139.221 20.5312 139.058 18.8988 139.058 17.4297C139.058 16.94 139.221 16.2871 139.221 15.7974C138.242 16.1238 137.1 16.7768 135.632 17.4297C132.044 19.2253 129.597 20.8577 128.945 22.0003C127.15 24.9386 127.966 28.693 130.902 30.4886C131.065 30.6518 131.228 30.6518 131.391 30.815C131.718 30.9783 131.881 31.1415 132.207 31.1415C134.817 32.1209 138.079 30.9783 139.221 28.693C140.036 27.2238 139.873 25.265 139.547 23.3062ZM131.718 29.9989C128.129 27.8768 128.945 24.2856 128.945 24.2856C128.945 23.9591 129.271 23.7959 129.597 23.9591C129.923 23.9591 130.086 24.2856 129.923 24.6121C129.923 24.7753 129.271 27.5503 132.207 29.3459C132.37 29.5091 132.533 29.8356 132.37 29.9989C132.207 29.9989 132.044 29.9989 131.718 29.9989Z" fill="url(#paint7_linear_1_1510)"/>
<path d="M169.236 54.1575C167.932 54.8105 166.3 54.3208 165.485 52.8517C164.832 51.5458 165.322 49.9134 166.79 49.0972C168.095 48.4443 169.726 48.934 170.541 50.4031C171.194 51.8722 170.705 53.5046 169.236 54.1575ZM167.442 50.4031C166.79 50.7296 166.463 51.5458 166.79 52.3619C167.116 53.0149 167.932 53.3414 168.747 53.0149C169.4 52.6884 169.726 51.8722 169.4 51.0561C169.073 50.4031 168.095 50.0767 167.442 50.4031Z" fill="url(#paint8_linear_1_1510)"/>
<path d="M162.707 49.5876C162.054 49.9141 161.238 49.5876 160.749 48.9347C160.423 48.2817 160.749 47.4656 161.402 46.9759C162.054 46.6494 162.87 46.9759 163.359 47.6288C163.685 48.2817 163.522 49.2611 162.707 49.5876ZM161.891 47.6288C161.565 47.792 161.402 48.2817 161.565 48.6082C161.728 48.9347 162.217 49.0979 162.543 48.9347C162.87 48.7714 163.033 48.2817 162.87 47.9553C162.707 47.6288 162.217 47.4656 161.891 47.6288Z" fill="url(#paint9_linear_1_1510)"/>
<path d="M166.135 45.1803C165.32 45.67 164.178 45.1803 163.852 44.3641C163.525 43.5479 163.852 42.4053 164.667 42.0788C165.483 41.5891 166.625 42.0788 166.951 42.895C167.277 43.7112 167.114 44.8538 166.135 45.1803ZM164.993 42.895C164.504 43.0582 164.341 43.7112 164.504 44.2009C164.667 44.6906 165.32 44.8538 165.809 44.6906C166.298 44.5273 166.461 43.8744 166.298 43.3847C165.972 42.7317 165.483 42.5685 164.993 42.895Z" fill="url(#paint10_linear_1_1510)"/>
<path d="M145.744 15.1452C144.439 15.7982 142.808 15.3085 141.992 13.8393C141.34 12.5335 141.829 10.9011 143.297 10.0849C144.765 9.26874 146.233 9.92169 147.049 11.3908C147.865 12.8599 147.049 14.4923 145.744 15.1452ZM143.95 11.3908C143.297 11.7173 142.971 12.5335 143.297 13.3496C143.624 14.0026 144.439 14.329 145.255 14.0026C145.907 13.6761 146.233 12.8599 145.907 12.0437C145.418 11.2276 144.602 10.9011 143.95 11.3908Z" fill="url(#paint11_linear_1_1510)"/>
<path d="M149.988 2.73948C149.335 3.06595 148.52 2.73948 148.03 2.08654C147.704 1.43359 148.03 0.617416 148.683 0.12771C149.335 -0.198761 150.151 0.12771 150.64 0.780652C150.966 1.59683 150.64 2.41301 149.988 2.73948ZM149.009 0.943888C148.683 1.10712 148.52 1.59683 148.683 1.9233C148.846 2.24977 149.335 2.41301 149.662 2.24977C149.988 2.08654 150.151 1.59683 149.988 1.27036C149.825 0.780652 149.335 0.617417 149.009 0.943888Z" fill="url(#paint12_linear_1_1510)"/>
<path d="M151.45 10.2477C150.634 10.7374 149.492 10.2477 149.166 9.43152C148.84 8.61534 149.166 7.47269 149.982 7.14622C150.797 6.81975 151.939 7.14622 152.265 7.9624C152.755 8.77858 152.428 9.75799 151.45 10.2477ZM150.308 7.79916C149.819 7.9624 149.655 8.61534 149.819 9.10505C149.982 9.59476 150.634 9.75799 151.124 9.59476C151.613 9.43152 151.776 8.77858 151.613 8.28887C151.287 7.79916 150.797 7.63593 150.308 7.79916Z" fill="url(#paint13_linear_1_1510)"/>
<path d="M191.904 96.1094C191.741 95.7829 191.252 95.6197 190.925 95.7829C190.599 95.9461 190.436 96.4359 190.599 96.7623C190.762 97.0888 191.252 97.252 191.578 97.0888C191.904 96.9256 192.067 96.5991 191.904 96.1094Z" fill="url(#paint14_linear_1_1510)"/>
<path d="M182.773 80.6025C182.61 80.2761 182.121 80.1128 181.795 80.2761C181.468 80.4393 181.305 80.929 181.468 81.2555C181.631 81.582 182.121 81.7452 182.447 81.582C182.773 81.4187 182.936 81.0923 182.773 80.6025Z" fill="url(#paint15_linear_1_1510)"/>
<path d="M198.431 99.2113C198.105 98.5584 197.289 98.2319 196.474 98.5584C195.821 98.8848 195.495 99.701 195.821 100.517C196.147 101.17 196.963 101.497 197.779 101.17C198.431 100.844 198.757 100.027 198.431 99.2113Z" fill="url(#paint16_linear_1_1510)"/>
<path d="M195.33 91.5393C195.167 91.0496 194.515 90.8864 194.025 91.0496C193.536 91.2129 193.373 91.8658 193.536 92.3555C193.699 92.8452 194.351 93.0084 194.841 92.8452C195.33 92.5187 195.493 91.8658 195.33 91.5393Z" fill="url(#paint17_linear_1_1510)"/>
<path d="M223.88 136.103C223.717 135.45 223.553 134.797 223.227 134.307L192.072 70.4821C184.405 73.0938 175.597 64.1159 168.42 62.4835L207.405 142.142C207.731 142.795 208.057 143.285 208.384 143.775C211.483 148.019 216.213 147.692 219.312 146.223C222.248 144.754 225.348 141.163 223.88 136.103ZM182.611 82.235C181.959 82.5615 181.143 82.235 180.654 81.5821C180.328 80.9291 180.654 80.113 181.306 79.6233C181.959 79.2968 182.774 79.6232 183.264 80.2762C183.59 81.0924 183.427 81.9085 182.611 82.235ZM191.909 97.7424C191.256 98.0689 190.441 97.7424 189.951 97.0895C189.625 96.4365 189.951 95.6203 190.604 95.1306C191.256 94.8042 192.072 95.1306 192.561 95.7836C192.887 96.5997 192.561 97.4159 191.909 97.7424ZM195.334 93.4983C194.519 93.988 193.377 93.4983 193.051 92.6821C192.561 91.8659 193.051 90.7233 193.866 90.3968C194.682 89.9071 195.824 90.3968 196.15 91.213C196.476 92.0291 196.15 93.0086 195.334 93.4983ZM198.27 102.313C196.965 102.966 195.334 102.476 194.519 101.007C193.866 99.7012 194.356 98.0689 195.824 97.2527C197.129 96.5997 198.76 97.0894 199.575 98.5586C200.228 100.028 199.738 101.66 198.27 102.313Z" fill="url(#paint18_linear_1_1510)"/>
<path d="M172.494 11.8807C171.026 9.92191 168.253 9.26897 165.97 10.4116L155.367 15.6352L144.764 20.8587C142.481 22.0013 141.176 24.6131 141.828 26.8984C142.318 28.694 143.786 29.8366 145.58 29.9999C145.743 30.4896 146.396 31.6322 147.048 33.1014L160.587 60.5249L163.523 66.5647L201.692 144.754C202.345 146.06 203.16 147.203 203.976 148.346C213.926 159.935 233.174 150.468 230.238 135.45C229.911 134.144 229.585 132.675 228.933 131.532L187.664 47.4661C186.033 44.2014 174.125 19.8793 172.657 16.941C173.636 15.3087 173.636 13.3499 172.494 11.8807ZM169.069 15.3087C168.416 15.9616 168.416 16.7778 168.743 17.594C169.558 19.2263 170.7 21.5116 172.005 24.1234L161.892 29.1837C161.402 29.3469 161.239 29.9999 161.402 30.4896C161.565 30.9793 162.218 31.1425 162.707 30.9793L172.82 25.919C173.799 27.8778 174.778 29.8367 175.757 31.9587L165.643 37.019C165.154 37.1823 164.991 37.8352 165.154 38.3249C165.317 38.8146 165.97 38.9778 166.459 38.8146L176.572 33.7543C177.551 35.8764 178.693 37.8352 179.508 39.794L169.395 44.8543C168.906 45.0176 168.743 45.6705 168.906 46.1602C169.069 46.6499 169.721 46.8131 170.211 46.6499L180.324 41.5896C182.118 45.344 183.586 48.2823 184.076 49.4249L225.507 133.165C225.833 133.818 226.16 134.634 226.323 135.45C229.585 147.203 213.763 154.875 206.423 145.244C205.933 144.591 205.444 143.938 205.118 143.122L164.828 60.8514L163.849 58.8926C162.381 55.9543 154.062 38.9778 149.658 30.1631L148.027 27.0616C147.701 26.5719 146.885 26.2455 146.232 26.2455C145.58 26.2455 145.254 26.2455 145.091 25.919C144.928 25.5925 145.091 24.7763 145.906 24.4499L156.509 19.2263L167.111 14.0028C167.927 13.5131 168.579 13.8396 168.906 14.166C169.558 14.4925 169.395 14.819 169.069 15.3087Z" fill="url(#paint19_linear_1_1510)"/>
<defs>
<linearGradient id="paint0_linear_1_1510" x1="-52.6269" y1="110.33" x2="304.35" y2="87.4174" gradientUnits="userSpaceOnUse">
<stop stop-color="#0E4DC8"/>
<stop offset="0.9695" stop-color="#23B3F2"/>
</linearGradient>
<linearGradient id="paint1_linear_1_1510" x1="-54.044" y1="88.3342" x2="302.933" y2="65.4212" gradientUnits="userSpaceOnUse">
<stop stop-color="#0E4DC8"/>
<stop offset="0.9695" stop-color="#23B3F2"/>
</linearGradient>
<linearGradient id="paint2_linear_1_1510" x1="-54.9521" y1="74.1755" x2="302.025" y2="51.2627" gradientUnits="userSpaceOnUse">
<stop stop-color="#0E4DC8"/>
<stop offset="0.9695" stop-color="#23B3F2"/>
</linearGradient>
<linearGradient id="paint3_linear_1_1510" x1="-52.0593" y1="119.245" x2="304.918" y2="96.332" gradientUnits="userSpaceOnUse">
<stop stop-color="#0E4DC8"/>
<stop offset="0.9695" stop-color="#23B3F2"/>
</linearGradient>
<linearGradient id="paint4_linear_1_1510" x1="-53.0131" y1="104.387" x2="303.964" y2="81.4737" gradientUnits="userSpaceOnUse">
<stop stop-color="#0E4DC8"/>
<stop offset="0.9695" stop-color="#23B3F2"/>
</linearGradient>
<linearGradient id="paint5_linear_1_1510" x1="-52.1879" y1="117.215" x2="304.789" y2="94.3022" gradientUnits="userSpaceOnUse">
<stop stop-color="#0E4DC8"/>
<stop offset="0.9695" stop-color="#23B3F2"/>
</linearGradient>
<linearGradient id="paint6_linear_1_1510" x1="-55.0636" y1="72.488" x2="301.913" y2="49.5753" gradientUnits="userSpaceOnUse">
<stop stop-color="#0E4DC8"/>
<stop offset="0.9695" stop-color="#23B3F2"/>
</linearGradient>
<linearGradient id="paint7_linear_1_1510" x1="127.978" y1="23.682" x2="139.835" y2="23.682" gradientUnits="userSpaceOnUse">
<stop stop-color="#0E4DC8"/>
<stop offset="0.9695" stop-color="#23B3F2"/>
</linearGradient>
<linearGradient id="paint8_linear_1_1510" x1="165.296" y1="51.6757" x2="170.806" y2="51.6757" gradientUnits="userSpaceOnUse">
<stop stop-color="#0E4DC8"/>
<stop offset="0.9695" stop-color="#23B3F2"/>
</linearGradient>
<linearGradient id="paint9_linear_1_1510" x1="160.755" y1="48.2613" x2="163.565" y2="48.2613" gradientUnits="userSpaceOnUse">
<stop stop-color="#0E4DC8"/>
<stop offset="0.9695" stop-color="#23B3F2"/>
</linearGradient>
<linearGradient id="paint10_linear_1_1510" x1="163.684" y1="43.669" x2="167.189" y2="43.669" gradientUnits="userSpaceOnUse">
<stop stop-color="#0E4DC8"/>
<stop offset="0.9695" stop-color="#23B3F2"/>
</linearGradient>
<linearGradient id="paint11_linear_1_1510" x1="141.753" y1="12.6116" x2="147.262" y2="12.6116" gradientUnits="userSpaceOnUse">
<stop stop-color="#0E4DC8"/>
<stop offset="0.9695" stop-color="#23B3F2"/>
</linearGradient>
<linearGradient id="paint12_linear_1_1510" x1="147.909" y1="1.53349" x2="150.719" y2="1.53349" gradientUnits="userSpaceOnUse">
<stop stop-color="#0E4DC8"/>
<stop offset="0.9695" stop-color="#23B3F2"/>
</linearGradient>
<linearGradient id="paint13_linear_1_1510" x1="148.988" y1="8.65729" x2="152.494" y2="8.65729" gradientUnits="userSpaceOnUse">
<stop stop-color="#0E4DC8"/>
<stop offset="0.9695" stop-color="#23B3F2"/>
</linearGradient>
<linearGradient id="paint14_linear_1_1510" x1="190.492" y1="96.4796" x2="191.963" y2="96.4796" gradientUnits="userSpaceOnUse">
<stop stop-color="#0E4DC8"/>
<stop offset="0.9695" stop-color="#23B3F2"/>
</linearGradient>
<linearGradient id="paint15_linear_1_1510" x1="181.304" y1="80.9811" x2="182.776" y2="80.9811" gradientUnits="userSpaceOnUse">
<stop stop-color="#0E4DC8"/>
<stop offset="0.9695" stop-color="#23B3F2"/>
</linearGradient>
<linearGradient id="paint16_linear_1_1510" x1="195.672" y1="99.8951" x2="198.558" y2="99.8951" gradientUnits="userSpaceOnUse">
<stop stop-color="#0E4DC8"/>
<stop offset="0.9695" stop-color="#23B3F2"/>
</linearGradient>
<linearGradient id="paint17_linear_1_1510" x1="193.583" y1="91.888" x2="195.419" y2="91.888" gradientUnits="userSpaceOnUse">
<stop stop-color="#0E4DC8"/>
<stop offset="0.9695" stop-color="#23B3F2"/>
</linearGradient>
<linearGradient id="paint18_linear_1_1510" x1="168.376" y1="104.882" x2="224.306" y2="104.882" gradientUnits="userSpaceOnUse">
<stop stop-color="#0E4DC8"/>
<stop offset="0.9695" stop-color="#23B3F2"/>
</linearGradient>
<linearGradient id="paint19_linear_1_1510" x1="146.844" y1="82.82" x2="300.713" y2="79.2022" gradientUnits="userSpaceOnUse">
<stop stop-color="#6E2986"/>
<stop offset="1" stop-color="#E12B80"/>
</linearGradient>
</defs>
</svg>