<svg width="198" height="56" viewBox="0 0 198 56" fill="none" xmlns="http://www.w3.org/2000/svg">
<g id="Group">
<path id="Vector" d="M0.425629 55.0879V1.54663H11.8438V43.6614H46.4245V55.0879H0.425629Z" fill="url(#paint0_linear_0_1556)"/>
<path id="Vector_2" d="M113.631 55.0881L106.128 42.3557H83.4547L88.6745 33.3778H100.745L90.9581 16.891L68.448 54.9249H55.3987L85.7384 4.32185C87.0433 2.03656 88.6745 0.567444 91.2843 0.567444C93.7311 0.567444 95.5254 2.03656 96.8303 4.32185L127.17 54.9249H113.631V55.0881Z" fill="url(#paint1_linear_0_1556)"/>
<path id="Vector_3" d="M138.918 55.0881V1.54688H178.229C188.995 1.54688 196.335 6.2807 196.335 15.5851C196.335 22.1145 193.236 25.216 190.137 26.6851C194.215 28.3175 197.314 32.5616 197.314 38.1116C197.314 48.7219 190.137 55.0881 179.697 55.0881H138.918ZM157.024 32.3984V23.4204H178.555C182.796 23.4204 184.591 21.7881 184.591 18.1969C184.591 14.2792 181.655 12.9734 176.761 12.9734H150.499V43.6616H177.577C182.47 43.6616 185.569 41.8661 185.569 37.9484C185.569 34.3572 183.286 32.3984 179.208 32.3984H157.024Z" fill="url(#paint2_linear_0_1556)"/>
</g>
<defs>
<linearGradient id="paint0_linear_0_1556" x1="-38.2229" y1="36.584" x2="870.913" y2="-85.919" gradientUnits="userSpaceOnUse">
<stop stop-color="#0E4DC8"/>
<stop offset="0.9695" stop-color="#23B3F2"/>
</linearGradient>
<linearGradient id="paint1_linear_0_1556" x1="-36.7391" y1="47.5767" x2="872.397" y2="-74.9265" gradientUnits="userSpaceOnUse">
<stop stop-color="#0E4DC8"/>
<stop offset="0.9695" stop-color="#23B3F2"/>
</linearGradient>
<linearGradient id="paint2_linear_0_1556" x1="-35.7776" y1="54.6864" x2="873.359" y2="-67.8168" gradientUnits="userSpaceOnUse">
<stop stop-color="#0E4DC8"/>
<stop offset="0.9695" stop-color="#23B3F2"/>
</linearGradient>
</defs>
</svg>
