<svg width="137" height="168" viewBox="0 0 137 168" fill="none" xmlns="http://www.w3.org/2000/svg">
<path id="Vector" d="M99.3878 0.914973C109.338 1.40468 116.841 3.68998 121.898 7.44439C126.955 11.362 130.869 16.5856 133.479 23.115C139.188 37.3165 137.883 53.3136 129.728 71.2695C118.636 92.0004 100.856 102.937 76.2253 104.57H49.8004L32.9994 167.089H0.212891L32.51 39.9283H66.112L57.1406 76.0033H57.3037H73.7785H73.9416C82.0975 75.6768 88.7852 73.3915 93.8419 69.1474C98.8985 65.0665 102.161 60.1695 103.792 54.4562C108.359 38.6224 103.792 30.4606 89.6008 30.2974H73.9416H34.9568L42.1339 0.588501L99.3878 0.914973Z" fill="#065A4A"/>
</svg>
