<svg width="120" height="105" viewBox="0 0 120 105" fill="none" xmlns="http://www.w3.org/2000/svg">
<path id="Vector" d="M0.78125 104.406L7.79525 76.1662H60.9713C66.6804 76.6559 70.1058 74.8603 71.2476 70.7794C71.4108 66.372 68.1484 64.4132 61.4606 64.9029H46.4539C36.1776 64.7397 28.1849 61.3117 22.802 54.9455C17.256 48.4161 15.6249 39.4382 17.7454 28.0117C23.7807 8.26018 38.7874 -0.88101 63.0918 0.588109H119.693L113.006 27.6852H57.8721C53.7942 27.522 51.3474 28.9911 50.6949 32.2558C50.3687 34.7043 51.3474 36.4999 53.3048 37.3161C55.4253 38.1323 58.1983 38.4588 61.7869 38.2955L75.1624 37.8058C87.7224 38.2955 96.0414 41.7235 100.119 48.5794C104.197 55.272 105.339 64.25 103.382 75.5132C99.3037 95.7544 85.4388 105.385 61.95 104.569H0.78125V104.406Z" fill="#065A4A"/>
</svg>
