<svg xmlns="http://www.w3.org/2000/svg" width="30" height="30" fill="none">
  <path fill="#fff" fill-rule="evenodd" d="M10.363 14.528c1.326 1.478 2.318 2.765 2.977 3.922 2.473 4.342-1.045 8.752-5.756 8.673-4.711.08-8.23-4.33-5.756-8.673.659-1.157 1.651-2.444 2.977-3.922.194.068.402.105.618.105h4.322c.216 0 .424-.037.618-.105Zm-4.94-.789h4.322a.971.971 0 0 0 .968-.968.971.971 0 0 0-.968-.969H5.423a.971.971 0 0 0-.968.969c0 .532.436.968.968.968Zm7.384-.97a.489.489 0 0 0-.489.488v2.177c.666.82 1.291 1.682 1.8 2.574 1.031 1.812 1.257 3.914.402 5.841a6.54 6.54 0 0 1-.207.423h1.213V13.257a.489.489 0 0 0-.488-.488h-2.231Zm10.777.298-.092 1.36a.144.144 0 0 0 .074.139c.05.028.11.026.157-.007l3.508-2.44a.143.143 0 0 0 .063-.11.143.143 0 0 0-.049-.12l-3.152-2.845a.144.144 0 0 0-.154-.027.144.144 0 0 0-.092.126l-.095 1.41c-2.552-.069-6.05-1.11-8.285-2.445-2.464-1.472-4.082-3.223-5.22-5.232.758 3.052 3.01 6.072 6.371 8.08 2.263 1.351 4.69 2.042 6.966 2.111Zm4.915 12.099H13.74a6.825 6.825 0 0 1-1.193 1.21h15.953a.488.488 0 0 0 .487-.488v-.235a.488.488 0 0 0-.487-.487Zm-1.548-5.806h-2.232a.49.49 0 0 0-.488.488v4.424h3.208v-4.424a.49.49 0 0 0-.488-.488Zm-8.188-3.224h2.231c.27 0 .489.22.489.488v7.648h-3.208v-7.648c0-.269.219-.488.488-.488ZM7.534 22.568a1.519 1.519 0 0 1-.799-.237.994.994 0 0 1-.424-.595.44.44 0 0 0-.853.21c.123.493.413.865.792 1.118a2.3 2.3 0 0 0 .875.342v.342a.44.44 0 1 0 .88 0v-.334c.384-.058.774-.198 1.08-.43.368-.28.613-.68.6-1.216a1.697 1.697 0 0 0-.01-.161c-.072-.588-.39-.971-.812-1.226-.37-.224-.815-.335-1.222-.402-.294-.048-.603-.13-.83-.278a.64.64 0 0 1-.313-.523.735.735 0 0 1 .282-.622c.142-.114.322-.195.518-.234a1.414 1.414 0 0 1 .623.015c.327.083.625.299.782.672a.44.44 0 1 0 .811-.34 1.993 1.993 0 0 0-1.508-1.213v-.341a.44.44 0 1 0-.88 0v.347a2.079 2.079 0 0 0-.9.413 1.586 1.586 0 0 0-.605 1.344c.027.573.314.958.712 1.218.347.227.774.344 1.167.409.316.052.653.133.91.288.204.124.358.305.39.576a.59.59 0 0 1-.246.576c-.192.147-.465.233-.737.266a2.036 2.036 0 0 1-.193.016h-.021a.457.457 0 0 0-.069 0ZM5.29 10.913l-.696-.697a.998.998 0 0 1 0-1.407 1 1 0 0 1 1.242-.134.498.498 0 0 0 .472.042.498.498 0 0 0 .304-.363 1 1 0 0 1 .973-.784 1 1 0 0 1 .973.784.498.498 0 0 0 .304.363c.16.067.327.052.472-.042a1 1 0 0 1 1.242.134.998.998 0 0 1 0 1.407l-.696.697a1.867 1.867 0 0 0-.134-.005H5.423c-.045 0-.09.002-.134.005Z" clip-rule="evenodd"/>
</svg>