<svg width="30" height="30" viewBox="0 0 30 30" fill="none" xmlns="http://www.w3.org/2000/svg">
<path fill-rule="evenodd" clip-rule="evenodd" d="M19.1699 24.1178C18.5108 24.3633 17.7871 24.3728 17.1217 24.1448L19.0523 28.6929L20.8407 24.9599L24.7684 26.2665L22.2596 20.3561C22.0045 20.4171 21.772 20.5495 21.5895 20.738C21.407 20.9264 21.2821 21.163 21.2293 21.42L21.1271 21.8834C21.0204 22.3926 20.7842 22.8658 20.4414 23.2572C20.0986 23.6486 19.6607 23.945 19.1699 24.1178ZM7.74054 20.3561L5.23149 26.2665L9.15918 24.9599L10.948 28.6929L12.8785 24.1448C12.4674 24.2831 12.0317 24.3332 11.5999 24.2922C11.1681 24.2511 10.7498 24.1196 10.3721 23.9064C9.99437 23.6931 9.66574 23.4028 9.40752 23.0543C9.1493 22.7058 8.96727 22.3068 8.87325 21.8834L8.77108 21.42C8.71829 21.163 8.59329 20.9264 8.41077 20.738C8.22824 20.5495 7.9957 20.4171 7.74054 20.3561ZM15 6.17091C13.7701 6.17091 12.5677 6.53563 11.5451 7.21895C10.5224 7.90226 9.72534 8.87348 9.25465 10.0098C8.78396 11.1461 8.66079 12.3965 8.90072 13.6028C9.14065 14.8091 9.7329 15.9172 10.6026 16.7869C11.4723 17.6566 12.5803 18.2489 13.7866 18.4889C14.9929 18.7289 16.2433 18.6058 17.3796 18.1351C18.516 17.6645 19.4872 16.8675 20.1706 15.8448C20.8539 14.8222 21.2187 13.6199 21.2188 12.39C21.2188 11.5733 21.058 10.7646 20.7455 10.0101C20.433 9.25553 19.9749 8.56994 19.3974 7.99245C18.82 7.41495 18.1344 6.95686 17.3799 6.64432C16.6254 6.33178 15.8167 6.17091 15 6.17091ZM18.6462 10.857L14.9631 15.1536C14.8755 15.2666 14.7641 15.359 14.6369 15.4243C14.5097 15.4896 14.3697 15.5262 14.2268 15.5316C14.0839 15.537 13.9415 15.5109 13.8098 15.4553C13.678 15.3998 13.56 15.316 13.4642 15.2099L11.369 12.8762C11.2832 12.7809 11.2171 12.6696 11.1743 12.5487C11.1315 12.4278 11.113 12.2996 11.1197 12.1715C11.1264 12.0435 11.1583 11.918 11.2136 11.8022C11.2688 11.6865 11.3463 11.5827 11.4416 11.497C11.537 11.4112 11.6483 11.345 11.7692 11.3022C11.8901 11.2594 12.0182 11.2409 12.1463 11.2476C12.2744 11.2543 12.3999 11.2862 12.5156 11.3415C12.6314 11.3967 12.7351 11.4742 12.8209 11.5696L14.1741 13.0765L17.1639 9.5885C17.2472 9.49116 17.3488 9.41119 17.4631 9.35315C17.5773 9.2951 17.7018 9.26012 17.8295 9.2502C17.9572 9.24028 18.0857 9.25562 18.2075 9.29533C18.3293 9.33504 18.4421 9.39836 18.5394 9.48166C18.6367 9.56497 18.7167 9.66663 18.7748 9.78084C18.8328 9.89505 18.8678 10.0196 18.8777 10.1473C18.8876 10.275 18.8723 10.4035 18.8326 10.5253C18.7929 10.6471 18.7295 10.7599 18.6462 10.8572V10.857ZM26.1814 10.6894C26.1209 10.315 25.9642 9.96278 25.7267 9.66718C25.4892 9.37158 25.179 9.14273 24.8264 9.00306L24.3878 8.82203C23.9274 8.63647 23.5424 8.30206 23.2942 7.87215C23.046 7.44224 22.949 6.94159 23.0185 6.45008L23.0811 5.97955C23.1308 5.60473 23.0852 5.22341 22.9483 4.87094C22.8115 4.51847 22.5878 4.20625 22.2982 3.96323C22.0085 3.7202 21.6622 3.55424 21.2913 3.48072C20.9204 3.4072 20.537 3.42851 20.1765 3.54266L19.7238 3.6859C19.2518 3.83974 18.7419 3.83106 18.2754 3.66125C17.809 3.49144 17.4128 3.17029 17.1502 2.74903L16.8958 2.34864C16.693 2.02947 16.413 1.76665 16.0816 1.58457C15.7502 1.40248 15.3782 1.30701 15 1.30701C14.6219 1.30701 14.2499 1.40248 13.9185 1.58457C13.5871 1.76665 13.3071 2.02947 13.1043 2.34864L12.8499 2.74903C12.5872 3.17031 12.191 3.49147 11.7245 3.66126C11.258 3.83105 10.7481 3.83969 10.2761 3.68579L9.82365 3.54266C9.46317 3.42851 9.07971 3.40722 8.70881 3.48076C8.33792 3.5543 7.99159 3.72029 7.70194 3.96334C7.41229 4.20639 7.18868 4.51864 7.05186 4.87113C6.91504 5.22362 6.86942 5.60495 6.91924 5.97977L6.98178 6.45019C7.05138 6.94171 6.95434 7.44238 6.70616 7.87231C6.45797 8.30224 6.07293 8.63666 5.61249 8.8222L5.17381 9.00328C4.82429 9.14751 4.51684 9.37766 4.27996 9.67237C4.04308 9.96709 3.88445 10.3168 3.81876 10.6892C3.75307 11.0616 3.78246 11.4445 3.9042 11.8025C4.02593 12.1605 4.23608 12.4819 4.51516 12.737L4.86547 13.0573C5.23472 13.3891 5.4822 13.835 5.56841 14.3239C5.65461 14.8127 5.57458 15.3164 5.34109 15.7545L5.1215 16.1751C4.94648 16.5102 4.85891 16.8842 4.86692 17.2622C4.87493 17.6403 4.97825 18.0102 5.16731 18.3377C5.35636 18.6651 5.62504 18.9396 5.94842 19.1355C6.2718 19.3315 6.63943 19.4426 7.01721 19.4587L7.49132 19.4787C7.98746 19.4956 8.46366 19.6781 8.84395 19.9972C9.22424 20.3163 9.4867 20.7536 9.58947 21.2393L9.69164 21.7027C9.77302 22.0719 9.94632 22.4147 10.1955 22.6991C10.4446 22.9835 10.7615 23.2005 11.1168 23.3298C11.4721 23.4591 11.8543 23.4966 12.228 23.4388C12.6017 23.3811 12.9547 23.2299 13.2544 22.9993L13.6306 22.7099C14.0214 22.4039 14.5036 22.2376 15 22.2376C15.4965 22.2376 15.9786 22.4039 16.3695 22.7099L16.7456 22.9993C17.0453 23.2299 17.3983 23.381 17.772 23.4388C18.1457 23.4965 18.5279 23.459 18.8832 23.3297C19.2385 23.2004 19.5554 22.9835 19.8046 22.6991C20.0537 22.4147 20.227 22.0719 20.3084 21.7027L20.4107 21.2393C20.5134 20.7536 20.7758 20.3163 21.1561 19.9972C21.5364 19.6781 22.0127 19.4955 22.5088 19.4787L22.9828 19.4586C23.3605 19.4426 23.7282 19.3315 24.0516 19.1355C24.375 18.9396 24.6436 18.6652 24.8327 18.3377C25.0218 18.0102 25.1251 17.6403 25.1331 17.2623C25.1411 16.8843 25.0536 16.5103 24.8786 16.1751L24.659 15.7544C24.4255 15.3164 24.3454 14.8127 24.4316 14.3238C24.5178 13.8349 24.7653 13.389 25.1346 13.0572L25.4848 12.7369C25.7683 12.4852 25.9815 12.1641 26.1036 11.8051C26.2257 11.4462 26.2525 11.0618 26.1814 10.6894ZM15 19.4468C13.6042 19.4468 12.2398 19.0329 11.0793 18.2574C9.91873 17.482 9.0142 16.3798 8.48007 15.0902C7.94595 13.8007 7.80621 12.3818 8.07853 11.0128C8.35085 9.64385 9.02301 8.38639 10.01 7.39945C10.997 6.41251 12.2544 5.74041 13.6234 5.46814C14.9924 5.19587 16.4113 5.33567 17.7008 5.86984C18.9904 6.40402 20.0925 7.30859 20.8679 8.46916C21.6433 9.62973 22.0572 10.9942 22.0571 12.39C22.057 14.2615 21.3134 16.0564 19.99 17.3798C18.6665 18.7032 16.8716 19.4467 15 19.4468Z" fill="#D32929" />
</svg>
