<svg xmlns="http://www.w3.org/2000/svg" width="30" height="30" fill="none">
  <g fill="#D32929" clip-path="url(#a)">
    <path d="M9.844 13.635a.838.838 0 0 0 .71.616l4.642.553.553 4.642a.839.839 0 0 0 1.504.403l2.8-3.743 4.296 1.841a.839.839 0 0 0 1.101-1.101L23.61 12.55l3.743-2.8a.84.84 0 0 0-.403-1.504l-4.642-.553-.553-4.642a.837.837 0 0 0-1.504-.403l-2.8 3.744-4.296-1.842a.839.839 0 0 0-1.1 1.101l1.84 4.296-3.743 2.8a.84.84 0 0 0-.307.888Z"/>
    <path d="m25.272 5.914 1.186-1.186a.838.838 0 1 0-1.186-1.186l-1.185 1.186a.838.838 0 1 0 1.185 1.186ZM16.799 3.96a.838.838 0 0 0 .593-1.026l-.434-1.62a.839.839 0 0 0-1.62.434l.434 1.62a.84.84 0 0 0 1.027.593ZM20.704 18.536a.838.838 0 0 0-.593 1.027l.435 1.62a.84.84 0 0 0 1.62-.434l-.435-1.62a.839.839 0 0 0-1.027-.593ZM10.871 8.269l-1.62-.434a.838.838 0 1 0-.434 1.62l1.62.434a.838.838 0 1 0 .434-1.62ZM26.04 13.201a.84.84 0 0 0 .592 1.027l1.62.434a.838.838 0 1 0 .434-1.62l-1.62-.434a.838.838 0 0 0-1.027.593ZM2.124 29.062a.838.838 0 0 0 1.185 0l10.63-10.63-.252-2.119-2.118-.252L.938 26.69a.838.838 0 0 0 0 1.186l1.186 1.185Z"/>
  </g>
  <defs>
    <clipPath id="a">
      <path fill="#fff" d="M.692.692h28.615v28.615H.692z"/>
    </clipPath>
  </defs>
</svg>