<svg xmlns="http://www.w3.org/2000/svg" width="30" height="30" fill="none">
  <g fill="#fff" clip-path="url(#a)">
    <path d="M25.177 15.968h-2.213c.225.618.349 1.284.349 1.979v8.364c0 .29-.05.567-.142.826h3.658a2.481 2.481 0 0 0 2.479-2.479v-4.56a4.135 4.135 0 0 0-4.131-4.13Zm-18.49 1.979c0-.695.123-1.361.35-1.979H4.822A4.135 4.135 0 0 0 .693 20.1v4.56a2.481 2.481 0 0 0 2.478 2.478h3.658a2.467 2.467 0 0 1-.142-.826v-8.364Zm10.843-4.131h-5.06a4.135 4.135 0 0 0-4.13 4.131v8.364c0 .456.37.826.826.826h11.668c.457 0 .826-.37.826-.826v-8.364a4.135 4.135 0 0 0-4.13-4.13ZM15 2.863a4.973 4.973 0 0 0-4.968 4.968A4.971 4.971 0 0 0 15 12.799a4.971 4.971 0 0 0 4.968-4.968A4.973 4.973 0 0 0 15 2.863Zm-8.723 4.63A3.72 3.72 0 0 0 2.56 11.21a3.72 3.72 0 0 0 5.18 3.414 3.738 3.738 0 0 0 1.814-1.67c.279-.52.437-1.114.437-1.744a3.72 3.72 0 0 0-3.715-3.716Zm17.446 0a3.72 3.72 0 0 0-3.715 3.716c0 .63.158 1.224.437 1.745a3.739 3.739 0 0 0 1.814 1.669 3.72 3.72 0 0 0 5.18-3.414 3.72 3.72 0 0 0-3.716-3.716Z"/>
  </g>
  <defs>
    <clipPath id="a">
      <path fill="#fff" d="M.692.692h28.615v28.615H.692z"/>
    </clipPath>
  </defs>
</svg>