<svg width="30" height="30" viewBox="0 0 30 30" fill="none" xmlns="http://www.w3.org/2000/svg">
<path d="M1.83694 4.81283V25.0725C1.83694 27.0184 3.43941 28.6208 5.38525 28.6208H20.6086C22.5545 28.6208 24.1569 27.0184 24.1569 25.0725V20.1507L23.3557 20.9519C22.5545 21.7531 21.4099 22.3255 20.2653 22.6688L17.8616 23.1267C16.8314 23.3556 15.6868 23.0122 15.1145 22.211C14.5422 21.5242 14.3133 20.723 14.5422 19.8073L15.1145 17.2891C15.3434 16.1445 15.9157 15.1144 16.8314 14.1987L22.5545 8.4756C23.0123 8.01776 23.6991 7.55991 24.2714 7.33099V4.81283C24.2714 2.86699 22.6689 1.26453 20.7231 1.26453H5.38525C3.43941 1.26453 1.83694 2.86699 1.83694 4.81283ZM7.44556 5.27068H18.4339C19.1206 5.27068 19.5785 5.72853 19.5785 6.4153C19.5785 7.10207 19.1206 7.55991 18.4339 7.55991H7.44556C6.75879 7.55991 6.30094 7.10207 6.30094 6.4153C6.30094 5.84299 6.87325 5.27068 7.44556 5.27068ZM7.44556 9.9636H13.8554C14.5422 9.9636 15 10.4214 15 11.1082C15 11.795 14.5422 12.2528 13.8554 12.2528H7.44556C6.75879 12.2528 6.30094 11.795 6.30094 11.1082C6.30094 10.4214 6.87325 9.9636 7.44556 9.9636Z" fill="#D32929" />
<path d="M27.4763 10.1925C26.5606 9.27681 24.9582 9.27681 24.0425 10.1925L18.3194 15.9156C17.7471 16.4879 17.4037 17.0602 17.2892 17.8614L16.7169 20.2651C16.6025 20.6085 16.9459 20.9519 17.2892 20.8374L19.8074 20.2651C20.4942 20.1507 21.1809 19.6928 21.7532 19.235L27.4763 13.5119C28.392 12.5962 28.392 11.1082 27.4763 10.1925Z" fill="#D32929" />
</svg>
