<svg width="30" height="30" viewBox="0 0 30 30" fill="none" xmlns="http://www.w3.org/2000/svg">
<path d="M21.2596 15.8945C20.1984 15.8945 19.161 16.2092 18.2787 16.7988C17.3964 17.3883 16.7087 18.2263 16.3026 19.2067C15.8965 20.1871 15.7902 21.2659 15.9973 22.3067C16.2043 23.3474 16.7153 24.3035 17.4657 25.0538C18.216 25.8042 19.172 26.3152 20.2128 26.5222C21.2536 26.7292 22.3324 26.623 23.3128 26.2169C24.2932 25.8108 25.1312 25.1231 25.7207 24.2408C26.3103 23.3584 26.6249 22.3211 26.6249 21.2599C26.6235 19.8374 26.0578 18.4735 25.0519 17.4676C24.046 16.4617 22.6821 15.896 21.2596 15.8945ZM23.8528 22.5539C23.8004 22.659 23.7277 22.7528 23.639 22.8298C23.5503 22.9069 23.4473 22.9657 23.3358 23.0029C23.2244 23.0401 23.1067 23.0549 22.9895 23.0466C22.8723 23.0383 22.7579 23.007 22.6528 22.9545L20.8643 22.0603C20.7148 21.9866 20.5889 21.8726 20.5007 21.7312C20.4126 21.5898 20.3657 21.4266 20.3653 21.2599V18.5772C20.3653 18.3401 20.4595 18.1126 20.6272 17.9449C20.7949 17.7772 21.0224 17.683 21.2596 17.683C21.4967 17.683 21.7242 17.7772 21.8919 17.9449C22.0596 18.1126 22.1538 18.3401 22.1538 18.5772V20.7073L23.4477 21.3538C23.5533 21.4059 23.6475 21.4782 23.725 21.5668C23.8025 21.6553 23.8617 21.7583 23.8994 21.8698C23.937 21.9812 23.9523 22.0991 23.9443 22.2165C23.9363 22.3338 23.9052 22.4485 23.8528 22.5539Z" fill="#D32929" />
<path d="M24.8365 6.95211C24.8365 6.24062 24.5538 5.55826 24.0507 5.05516C23.5476 4.55206 22.8653 4.26942 22.1538 4.26942H19.4711V3.37519C19.4711 3.13802 19.3769 2.91057 19.2092 2.74287C19.0415 2.57517 18.814 2.48096 18.5769 2.48096C18.3397 2.48096 18.1123 2.57517 17.9445 2.74287C17.7768 2.91057 17.6826 3.13802 17.6826 3.37519V4.26942H9.63456V3.37519C9.63456 3.13802 9.54035 2.91057 9.37264 2.74287C9.20494 2.57517 8.97749 2.48096 8.74033 2.48096C8.50316 2.48096 8.27571 2.57517 8.10801 2.74287C7.94031 2.91057 7.8461 3.13802 7.8461 3.37519V4.26942H5.16341C4.45191 4.26942 3.76956 4.55206 3.26646 5.05516C2.76335 5.55826 2.48071 6.24062 2.48071 6.95211V9.6348H24.8365V6.95211Z" fill="#D32929" />
<path d="M21.2596 14.106C22.5165 14.1043 23.7512 14.4376 24.8365 15.0718V11.4233H2.48071V22.1541C2.48284 22.865 2.76616 23.5461 3.2688 24.0487C3.77144 24.5514 4.45256 24.8347 5.16341 24.8368H15.0715C14.4373 23.7515 14.1039 22.5168 14.1057 21.2599C14.1083 19.3634 14.8629 17.5453 16.2039 16.2042C17.5449 14.8632 19.363 14.1086 21.2596 14.106ZM7.8461 21.2599H6.05764C5.82047 21.2599 5.59302 21.1657 5.42532 20.998C5.25762 20.8303 5.16341 20.6028 5.16341 20.3656C5.16341 20.1285 5.25762 19.901 5.42532 19.7333C5.59302 19.5656 5.82047 19.4714 6.05764 19.4714H7.8461C8.08326 19.4714 8.31071 19.5656 8.47841 19.7333C8.64611 19.901 8.74033 20.1285 8.74033 20.3656C8.74033 20.6028 8.64611 20.8303 8.47841 20.998C8.31071 21.1657 8.08326 21.2599 7.8461 21.2599ZM7.8461 16.7887H6.05764C5.82047 16.7887 5.59302 16.6945 5.42532 16.5268C5.25762 16.3591 5.16341 16.1317 5.16341 15.8945C5.16341 15.6573 5.25762 15.4299 5.42532 15.2622C5.59302 15.0945 5.82047 15.0003 6.05764 15.0003H7.8461C8.08326 15.0003 8.31071 15.0945 8.47841 15.2622C8.64611 15.4299 8.74033 15.6573 8.74033 15.8945C8.74033 16.1317 8.64611 16.3591 8.47841 16.5268C8.31071 16.6945 8.08326 16.7887 7.8461 16.7887ZM13.2115 16.7887H11.423C11.1859 16.7887 10.9584 16.6945 10.7907 16.5268C10.623 16.3591 10.5288 16.1317 10.5288 15.8945C10.5288 15.6573 10.623 15.4299 10.7907 15.2622C10.9584 15.0945 11.1859 15.0003 11.423 15.0003H13.2115C13.4486 15.0003 13.6761 15.0945 13.8438 15.2622C14.0115 15.4299 14.1057 15.6573 14.1057 15.8945C14.1057 16.1317 14.0115 16.3591 13.8438 16.5268C13.6761 16.6945 13.4486 16.7887 13.2115 16.7887Z" fill="#D32929" />
</svg>
