<svg width="30" height="30" viewBox="0 0 30 30" fill="none" xmlns="http://www.w3.org/2000/svg">
<g clip-path="url(#clip0_1_15517)">
<path d="M25.1636 3.10653C24.689 2.63091 24.0578 2.3689 23.3862 2.3689H22.2715V3.48668C22.2715 4.71938 21.2697 5.72226 20.0384 5.72226H9.98946C8.7581 5.72226 7.75634 4.71938 7.75634 3.48668V2.3689H6.63794C5.25423 2.3689 4.12727 3.49585 4.12571 4.88113L4.10156 26.7898C4.10078 27.4621 4.36179 28.0943 4.83634 28.57C5.31101 29.0456 5.94223 29.3076 6.61379 29.3076H23.362C24.7457 29.3076 25.8727 28.1806 25.8742 26.7954L25.8984 4.88672C25.8992 4.21442 25.6382 3.5822 25.1636 3.10653ZM15.2847 10.7523H21.2343C21.6968 10.7523 22.0717 11.1277 22.0717 11.5907C22.0717 12.0536 21.6968 12.429 21.2343 12.429H15.2847C14.8222 12.429 14.4473 12.0536 14.4473 11.5907C14.4473 11.1277 14.8222 10.7523 15.2847 10.7523ZM15.2847 16.3413H21.2343C21.6968 16.3413 22.0717 16.7166 22.0717 17.1796C22.0717 17.6426 21.6968 18.0179 21.2343 18.0179H15.2847C14.8222 18.0179 14.4473 17.6426 14.4473 17.1796C14.4473 16.7166 14.8222 16.3413 15.2847 16.3413ZM15.2847 21.9302H21.2582C21.7207 21.9302 22.0956 22.3055 22.0956 22.7685C22.0956 23.2315 21.7207 23.6069 21.2582 23.6069H15.2847C14.8222 23.6069 14.4473 23.2315 14.4473 22.7685C14.4473 22.3055 14.8222 21.9302 15.2847 21.9302ZM8.14969 10.7854C8.47676 10.458 9.00692 10.458 9.33399 10.7854L9.78932 11.2413L11.7205 9.30796C12.0476 8.98062 12.5778 8.9805 12.9048 9.30796C13.2318 9.6353 13.2318 10.1661 12.9048 10.4935L10.3814 13.0196C10.2244 13.1768 10.0114 13.2652 9.78926 13.2652C9.56716 13.2652 9.35416 13.1769 9.19711 13.0196L8.14963 11.9709C7.82263 11.6436 7.82263 11.1127 8.14969 10.7854ZM8.14969 16.8012C8.47676 16.4738 9.00692 16.4738 9.33399 16.8012L9.78932 17.257L11.7205 15.3237C12.0475 14.9963 12.5778 14.9963 12.9048 15.3237C13.2318 15.651 13.2318 16.1819 12.9048 16.5093L10.3814 19.0354C10.2244 19.1926 10.0114 19.281 9.78926 19.281C9.56716 19.281 9.35416 19.1927 9.19711 19.0354L8.14963 17.9867C7.82263 17.6593 7.82263 17.1286 8.14969 16.8012ZM8.14969 22.3901C8.47676 22.0627 9.00692 22.0627 9.33399 22.3901L9.78932 22.8459L11.7205 20.9126C12.0475 20.5853 12.5778 20.5853 12.9048 20.9126C13.2318 21.24 13.2318 21.7708 12.9048 22.0982L10.3814 24.6243C10.2244 24.7816 10.0114 24.8699 9.78926 24.8699C9.56716 24.8699 9.35416 24.7816 9.19711 24.6243L8.14963 23.5756C7.82263 23.2483 7.82263 22.7175 8.14969 22.3901Z" fill="#D32929" />
<path d="M9.43123 3.48673C9.43123 3.79541 9.68117 4.04563 9.98951 4.04563H20.0384C20.3468 4.04563 20.5967 3.79541 20.5967 3.48673V1.25115C20.5967 0.942478 20.3468 0.692261 20.0384 0.692261H9.98951C9.68117 0.692261 9.43123 0.942478 9.43123 1.25115V3.48673Z" fill="#D32929" />
</g>
<defs>
<clipPath id="clip0_1_15517">
<rect width="28.6154" height="28.6154" fill="#D32929"  transform="translate(0.692307 0.692261)"/>
</clipPath>
</defs>
</svg>
