<svg width="30" height="30" viewBox="0 0 30 30" fill="none" xmlns="http://www.w3.org/2000/svg">
<g clip-path="url(#clip0_1_15452)">
<path d="M6.05769 26.1139C6.18715 26.0736 6.30031 25.9929 6.38067 25.8837C6.46103 25.7744 6.50437 25.6424 6.50437 25.5068C6.50437 25.3712 6.46103 25.2391 6.38067 25.1299C6.30031 25.0207 6.18715 24.94 6.05769 24.8997V26.1139Z" fill="white"/>
<path d="M10.5288 24.3893C10.5288 23.4166 10.2404 22.4657 9.69997 21.6569C9.15954 20.8481 8.39141 20.2177 7.49272 19.8455C6.59402 19.4732 5.60512 19.3758 4.65107 19.5656C3.69702 19.7553 2.82067 20.2238 2.13284 20.9116C1.445 21.5994 0.976584 22.4758 0.786812 23.4298C0.597039 24.3839 0.694438 25.3728 1.06669 26.2715C1.43894 27.1702 2.06933 27.9383 2.87813 28.4787C3.68694 29.0192 4.63784 29.3076 5.61058 29.3076C6.91453 29.3061 8.16466 28.7875 9.08669 27.8655C10.0087 26.9434 10.5274 25.6933 10.5288 24.3893ZM7.39859 25.5065C7.39558 25.8796 7.25847 26.2393 7.0123 26.5197C6.76613 26.8002 6.42731 26.9827 6.05769 27.0341V27.072C6.05769 27.1906 6.01059 27.3043 5.92674 27.3882C5.84289 27.472 5.72916 27.5191 5.61058 27.5191C5.492 27.5191 5.37827 27.472 5.29442 27.3882C5.21057 27.3043 5.16346 27.1906 5.16346 27.072V27.0443C4.79419 27.009 4.44772 26.8498 4.18038 26.5926C3.94918 26.3567 3.8207 26.0389 3.82299 25.7087C3.82872 25.5902 3.88127 25.4789 3.96909 25.3991C4.05691 25.3194 4.1728 25.2779 4.29127 25.2836C4.40973 25.2893 4.52107 25.3419 4.60079 25.4297C4.68051 25.5175 4.72208 25.6334 4.71635 25.7519C4.72707 25.8383 4.76742 25.9181 4.83053 25.978C4.92552 26.0593 5.04043 26.1139 5.16346 26.1361V24.7993C4.79263 24.7509 4.45209 24.5692 4.20535 24.2881C3.95862 24.0071 3.82256 23.6459 3.82256 23.2719C3.82256 22.898 3.95862 22.5368 4.20535 22.2557C4.45209 21.9747 4.79263 21.793 5.16346 21.7446V21.7066C5.16346 21.5881 5.21057 21.4743 5.29442 21.3905C5.37827 21.3066 5.492 21.2595 5.61058 21.2595C5.72916 21.2595 5.84289 21.3066 5.92674 21.3905C6.01059 21.4743 6.05769 21.5881 6.05769 21.7066V21.7345C6.42694 21.7698 6.7734 21.929 7.04078 22.1861C7.27197 22.422 7.40045 22.7398 7.39817 23.07C7.38891 23.1872 7.3353 23.2964 7.24828 23.3754C7.16125 23.4544 7.04738 23.4972 6.92987 23.4951C6.81337 23.4894 6.7037 23.4384 6.62425 23.353C6.5448 23.2676 6.50186 23.1546 6.50459 23.038C6.49722 22.9475 6.45663 22.863 6.39063 22.8006C6.29562 22.7195 6.1807 22.6651 6.05769 22.643V23.9794C6.42716 24.0309 6.76583 24.2134 7.01197 24.4937C7.2581 24.774 7.39532 25.1335 7.39859 25.5065Z" fill="white"/>
<path d="M4.7168 23.2718C4.71679 23.4074 4.76013 23.5395 4.84048 23.6487C4.92084 23.758 5.034 23.8387 5.16347 23.8791V22.6648C5.03399 22.7051 4.92079 22.7857 4.84042 22.8949C4.76006 23.0041 4.71674 23.1362 4.7168 23.2718Z" fill="white"/>
<path d="M28.8606 26.1779H11.1369C11.04 26.4863 10.9158 26.7856 10.7658 27.0721C10.2884 27.9864 9.5772 28.7578 8.70462 29.3077H28.8606C28.9791 29.3073 29.0926 29.2601 29.1764 29.1763C29.2601 29.0925 29.3073 28.979 29.3077 28.8605V26.625C29.3073 26.5065 29.2601 26.393 29.1764 26.3092C29.0926 26.2254 28.9791 26.1782 28.8606 26.1779Z" fill="white"/>
<path d="M7.84615 19.024V15C7.8458 14.8815 7.79858 14.768 7.71481 14.6842C7.63103 14.6004 7.51751 14.5532 7.39904 14.5529H3.82212C3.70364 14.5532 3.59012 14.6004 3.50635 14.6842C3.42257 14.768 3.37535 14.8815 3.375 15V19.024C4.08337 18.7289 4.84318 18.5769 5.61058 18.5769C6.37798 18.5769 7.13778 18.7289 7.84615 19.024Z" fill="white"/>
<path d="M14.1058 25.2836V12.7644C14.1054 12.6459 14.0582 12.5324 13.9744 12.4486C13.8906 12.3648 13.7771 12.3176 13.6587 12.3173H10.0817C9.96325 12.3176 9.84974 12.3648 9.76596 12.4486C9.68219 12.5324 9.63497 12.6459 9.63461 12.7644V20.1999C10.2003 20.7412 10.6504 21.3915 10.9578 22.1115C11.2652 22.8316 11.4235 23.6065 11.4231 24.3894C11.4235 24.6887 11.4011 24.9877 11.356 25.2836H14.1058Z" fill="white"/>
<path d="M16.3413 9.63452C16.2229 9.63488 16.1093 9.6821 16.0256 9.76587C15.9418 9.84964 15.8946 9.96316 15.8942 10.0816V25.2836H20.3654V10.0816C20.365 9.96316 20.3178 9.84964 20.234 9.76587C20.1503 9.6821 20.0367 9.63488 19.9183 9.63452H16.3413Z" fill="white"/>
<path d="M22.1538 7.39902V25.2836H26.625V7.39902C26.6246 7.28055 26.5774 7.16703 26.4936 7.08325C26.4099 6.99948 26.2964 6.95226 26.1779 6.9519H22.601C22.4825 6.95226 22.369 6.99948 22.2852 7.08325C22.2014 7.16703 22.1542 7.28055 22.1538 7.39902Z" fill="white"/>
<path d="M5.61013 11.8701L5.63174 11.8697C13.644 11.488 21.4917 4.57 23.9423 2.21426V5.16341C23.9423 5.282 23.9894 5.39572 24.0733 5.47957C24.1571 5.56342 24.2708 5.61053 24.3894 5.61053C24.508 5.61053 24.6217 5.56342 24.7056 5.47957C24.7894 5.39572 24.8365 5.282 24.8365 5.16341V1.13938L24.8355 1.13419C24.8316 1.01752 24.7832 0.90676 24.7003 0.8246C24.6173 0.74244 24.5061 0.695095 24.3894 0.692261H20.3654C20.2468 0.692261 20.1331 0.739367 20.0492 0.823218C19.9654 0.907068 19.9183 1.02079 19.9183 1.13938C19.9183 1.25796 19.9654 1.37168 20.0492 1.45553C20.1331 1.53938 20.2468 1.58649 20.3654 1.58649H23.2957C20.8863 3.87523 13.1758 10.6152 5.5894 10.9764C5.47284 10.9819 5.36308 11.0328 5.28355 11.1182C5.20401 11.2036 5.161 11.3167 5.16371 11.4334C5.16642 11.55 5.21462 11.661 5.29803 11.7426C5.38143 11.8242 5.49344 11.87 5.61013 11.8701Z" fill="white"/>
</g>
<defs>
<clipPath id="clip0_1_15452">
<rect width="28.6154" height="28.6154" fill="white" transform="translate(0.692307 0.692261)"/>
</clipPath>
</defs>
</svg>
