<svg width="30" height="30" viewBox="0 0 30 30" fill="none" xmlns="http://www.w3.org/2000/svg">
<g clip-path="url(#clip0_1_15526)">
<path d="M12.4505 4.90816C12.0833 5.19023 12.0143 5.71659 12.2964 6.0838C12.5784 6.45101 13.1046 6.52 13.4718 6.23793C14.3717 5.54696 15.6285 5.54696 16.5282 6.23793C16.8959 6.52022 17.422 6.45079 17.7039 6.0838C17.9859 5.71659 17.9167 5.19023 17.5495 4.90816C16.0484 3.75522 13.9516 3.75522 12.4505 4.90816Z" fill="#D32929" />
<path d="M11.4565 3.55768C13.5429 1.97139 16.4571 1.97139 18.5435 3.55768C18.912 3.838 19.438 3.76618 19.7183 3.39766C19.9986 3.02913 19.9268 2.50299 19.5583 2.22289C16.8745 0.182052 13.1257 0.182052 10.4417 2.22289C10.0732 2.50299 10.0016 3.02913 10.2819 3.39766C10.562 3.76618 11.088 3.83778 11.4565 3.55768Z" fill="#D32929" />
<path d="M15 19.191C13.6132 19.191 12.485 20.3193 12.485 21.7063C12.485 23.093 13.6132 24.2213 15 24.2213C16.3867 24.2213 17.515 23.093 17.515 21.7063C17.515 20.3193 16.3867 19.191 15 19.191Z" fill="#D32929" />
<path d="M20.03 7.45337H9.96996C8.58321 7.45337 7.45494 8.58164 7.45494 9.96861V26.7924C7.45494 28.1794 8.58321 29.3076 9.96996 29.3076H20.03C21.4168 29.3076 22.5451 28.1794 22.5451 26.7924V9.96861C22.5451 8.58164 21.4168 7.45337 20.03 7.45337ZM15 10.8069C15.4631 10.8069 15.8383 11.1825 15.8383 11.6453C15.8383 12.1083 15.4631 12.4838 15 12.4838C14.537 12.4838 14.1617 12.1083 14.1617 11.6453C14.1617 11.1825 14.537 10.8069 15 10.8069ZM15 14.1605C15.4631 14.1605 15.8383 14.536 15.8383 14.9991C15.8383 15.4619 15.4631 15.8374 15 15.8374C14.537 15.8374 14.1617 15.4619 14.1617 14.9991C14.1617 14.536 14.537 14.1605 15 14.1605ZM11.6466 10.8069C12.1097 10.8069 12.485 11.1825 12.485 11.6453C12.485 12.1083 12.1097 12.4838 11.6466 12.4838C11.1836 12.4838 10.8083 12.1083 10.8083 11.6453C10.8083 11.1825 11.1836 10.8069 11.6466 10.8069ZM11.6466 14.1605C12.1097 14.1605 12.485 14.536 12.485 14.9991C12.485 15.4619 12.1097 15.8374 11.6466 15.8374C11.1836 15.8374 10.8083 15.4619 10.8083 14.9991C10.8083 14.536 11.1836 14.1605 11.6466 14.1605ZM15 25.8982C12.6887 25.8982 10.8083 24.0176 10.8083 21.7063C10.8083 19.3947 12.6887 17.5143 15 17.5143C17.3113 17.5143 19.1917 19.3947 19.1917 21.7063C19.1917 24.0176 17.3113 25.8982 15 25.8982ZM18.3534 15.8374C17.8903 15.8374 17.515 15.4619 17.515 14.9991C17.515 14.536 17.8903 14.1605 18.3534 14.1605C18.8164 14.1605 19.1917 14.536 19.1917 14.9991C19.1917 15.4619 18.8164 15.8374 18.3534 15.8374ZM18.3534 12.4838C17.8903 12.4838 17.515 12.1083 17.515 11.6453C17.515 11.1825 17.8903 10.8069 18.3534 10.8069C18.8164 10.8069 19.1917 11.1825 19.1917 11.6453C19.1917 12.1083 18.8164 12.4838 18.3534 12.4838Z" fill="#D32929" />
</g>
<defs>
<clipPath id="clip0_1_15526">
<rect width="28.6154" height="28.6154" fill="#D32929"  transform="translate(0.692307 0.692261)"/>
</clipPath>
</defs>
</svg>
