<svg width="30" height="30" viewBox="0 0 30 30" fill="none" xmlns="http://www.w3.org/2000/svg">
<g clip-path="url(#clip0_1_15556)">
<path d="M13.7896 29.3076C15.949 29.3076 17.7554 27.7683 18.1702 25.7307H9.40909C9.82411 27.7683 11.6305 29.3076 13.7896 29.3076Z" fill="#D32929" />
<path d="M22.1501 14.9988C22.1453 14.9988 22.1405 14.9999 22.1357 14.9999C17.5347 14.9999 13.7896 11.256 13.7896 6.65383C13.7896 5.38867 14.0807 4.19273 14.5874 3.11729C14.325 3.0924 14.059 3.0769 13.7896 3.0769C9.18029 3.0769 5.44356 6.81342 5.44356 11.423V14.7471C5.44356 17.1067 4.40982 19.334 2.59625 20.8672C1.99173 21.3835 1.72342 22.2062 1.94042 23.0087C2.19324 23.9422 3.11607 24.5384 4.08431 24.5384H23.4891C24.5049 24.5384 25.4624 23.8802 25.6685 22.8847C25.8283 22.1145 25.5541 21.3453 24.9568 20.8434C23.2232 19.3901 22.2204 17.2545 22.1501 14.9988Z" fill="#D32929" />
<path d="M28.0973 6.65387C28.0973 9.94633 25.4284 12.6153 22.1357 12.6153C18.8433 12.6153 16.1743 9.94633 16.1743 6.65387C16.1743 3.36142 18.8433 0.692261 22.1357 0.692261C25.4284 0.692261 28.0973 3.36142 28.0973 6.65387Z" fill="#D32929" />
</g>
<defs>
<clipPath id="clip0_1_15556">
<rect width="28.6154" height="28.6154" fill="#D32929"  transform="translate(0.692307 0.692261)"/>
</clipPath>
</defs>
</svg>
