<svg width="171" height="32" viewBox="0 0 171 32" fill="none" xmlns="http://www.w3.org/2000/svg">
<g clip-path="url(#clip0_18_66)">
<path d="M153.783 30.3993C153.753 30.5695 153.526 30.8276 153.436 31.0143C152.934 31.4783 147.823 31.9286 147.842 30.3471L147.763 2.38591C147.476 -0.411854 152.019 0.604019 153.718 0.958201C155.395 4.16781 156.621 7.6108 158.195 10.8698C158.416 11.3311 159.104 13.102 159.653 12.9675L165.242 1.01311C165.788 0.453011 168.883 0.485958 169.776 0.604019C170.579 0.711097 170.975 0.95271 171.005 1.83954L170.975 30.111C171.216 32.1647 165.258 31.514 165.258 30.6793V15.444C164.693 15.3287 164.627 15.7241 164.387 16.0782C163.16 17.8848 162.379 21.1247 161.093 23.0603C160.606 23.5325 159.041 23.4941 158.413 23.2827C157.244 22.8928 155.332 17.2506 154.401 15.7982C154.226 15.5264 154.433 15.3095 153.789 15.444V30.4048L153.783 30.3993Z" fill="#0E83CC"/>
<path d="M128.383 31.0857C128.208 31.3603 122.232 32.0988 122.666 30.1055L122.896 0.996655C123.158 0.661692 123.483 0.647964 123.865 0.598543C126.43 0.258088 134.136 0.403605 136.58 1.01862C144.595 3.03115 144.663 16.729 137.654 20.2571L142.707 29.4493C143.942 31.9835 139.954 31.5195 138.339 31.3713C136.381 31.1901 136.07 30.0616 135.165 28.5241C134.472 27.3489 132.054 23.0713 131.789 22.0335C131.595 21.2757 131.522 15.5181 131.781 15.1447C132.453 14.6533 133.365 14.9937 134.196 14.8263C138.337 13.9861 137.037 7.20172 134.259 7.20172H128.386V31.0857H128.383Z" fill="#0E83CC"/>
<path d="M105.644 0.132067C109.918 -0.53786 114.734 1.37857 116.605 5.45305C118.228 8.98664 118.304 22.5966 116.777 26.1467C113.174 34.518 100.35 33.5735 98.0254 24.6778C97.1131 21.1908 97.1377 10.0876 98.2166 6.6666C99.2354 3.44326 102.295 0.656477 105.644 0.132067ZM106.733 6.44421C105.264 6.71053 103.86 8.12177 103.592 9.60165C103.223 11.6279 103.259 19.7384 103.521 21.8992C104.095 26.6216 110.784 26.7068 111.661 22.3797C112.052 20.4413 111.956 12.2621 111.724 10.0876C111.445 7.46557 109.298 5.98295 106.733 6.44695V6.44421Z" fill="#0E83CC"/>
<path d="M25.1463 0.615234V18.3216C25.1463 22.2039 21.6855 28.1701 18.4077 30.2156C8.73271 36.2477 -0.464243 25.8418 0.0192323 16.2624H6.30168C5.93293 22.9233 13.9335 27.4974 17.7193 20.7378C17.9351 20.3506 18.8638 18.275 18.8638 18.0471V0.615234H25.1463Z" fill="#0E83CC"/>
<path d="M52.1822 16.2624H45.8998C46.2822 11.1693 40.8929 6.03781 36.2057 9.67574C34.9765 10.6285 33.3376 13.5113 33.3376 15.0269V31.9096H27.0552V14.4778C27.0552 9.74438 31.3027 2.92155 35.8014 1.30714C45.307 -2.1029 52.4745 7.52044 52.1822 16.2624Z" fill="#0E83CC"/>
<path d="M81.1337 7.20194V12.2813L81.5434 12.6931H91.7865C92.1279 13.6623 92.453 19.008 91.3768 19.008H81.1337V30.9487L80.7239 31.3605H76.0804C76.034 31.3605 75.5996 30.9377 75.5396 30.8086V1.1671C75.5996 1.03806 76.034 0.615234 76.0804 0.615234H93.0129C94.081 2.0759 94.0892 5.71656 93.0129 7.20468H81.1337V7.20194Z" fill="#0E83CC"/>
<path d="M66.6593 7.20194V24.771C67.4132 24.8452 69.5328 24.4965 69.9371 25.2488C70.4069 26.1191 70.568 31.3577 69.2542 31.3577H58.0578C57.0908 31.3577 57.2137 26.196 57.5552 25.3806C57.954 24.4306 60.1064 24.8562 60.9231 24.7683V7.20194C58.8581 7.07015 57.6371 8.00365 57.3722 5.41729C57.2301 4.0088 57.1509 1.76839 58.055 0.615234H69.2515C70.1665 0.615234 70.1037 5.69185 69.8797 6.46337C69.541 7.6275 67.5962 7.10858 66.6565 7.20468L66.6593 7.20194Z" fill="#0E83CC"/>
<path d="M6.30149 0.615234H0.019043V8.57748H6.30149V0.615234Z" fill="#E01544"/>
<path d="M52.1853 23.9502H45.9028V31.9124H52.1853V23.9502Z" fill="#E01544"/>
</g>
<defs>
<clipPath id="clip0_18_66">
<rect width="171" height="32" fill="white"/>
</clipPath>
</defs>
</svg>
