<svg width="426" height="484" viewBox="0 0 426 484" fill="none" xmlns="http://www.w3.org/2000/svg">
<path d="M105 0H0V128H105V0Z" fill="#E01544"/>
<path fill-rule="evenodd" clip-rule="evenodd" d="M0.452755 149C0.152476 153.628 0 158.296 0 163V271C0 388.637 95.3633 484 213 484C330.637 484 426 388.637 426 271V163C426 158.296 425.848 153.628 425.547 149H325.141C325.708 153.587 326 158.259 326 163V271C326 333.408 275.408 384 213 384C150.592 384 100 333.408 100 271V163C100 158.259 100.292 153.587 100.859 149H0.452755Z" fill="white"/>
</svg>
