<svg width="90" height="34" viewBox="0 0 90 34" fill="none" xmlns="http://www.w3.org/2000/svg">
<g id="Frame" clip-path="url(#clip0_0_1728)">
<g id="Group">
<g id="Group_2">
<path id="Vector" d="M25.0701 14.7535L22.9092 17.4082H19.0266L23.6647 11.8174M26.4053 8.61762L28.3906 6.19141H32.2205L27.7932 11.5361" fill="white"/>
<path id="Vector_2" d="M40.1087 6.24415C41.1804 6.29689 41.9885 6.54303 42.5332 6.9474C43.0778 7.36935 43.4994 7.93195 43.7805 8.6352C44.3954 10.1648 44.2549 11.8877 43.3764 13.8217C42.1818 16.0545 40.2668 17.2324 37.614 17.4082H34.7679L32.9584 24.1419H29.4271L32.9056 10.4461H36.5247L35.5585 14.3315H35.5761H37.3505H37.368C38.2465 14.2964 38.9668 14.0502 39.5114 13.5931C40.056 13.1536 40.4074 12.6261 40.5831 12.0108C41.075 10.3054 40.5831 9.42635 39.0546 9.40877H37.368H33.1692L33.9422 6.20898L40.1087 6.24415Z" fill="white"/>
<path id="Vector_3" d="M49.7187 6.19141H53.2851L52.4769 9.39119H50.5444C50.316 9.39119 50.1228 9.46152 49.9471 9.61975C49.7714 9.77798 49.6484 9.97137 49.5957 10.1999L47.8389 17.4082H44.2725L46.2226 9.28571C46.6969 7.49242 47.874 6.45512 49.7187 6.19141Z" fill="white"/>
<path id="Vector_4" d="M56.6055 17.3379C55.5338 17.2676 54.7432 17.039 54.1986 16.6171C53.654 16.2127 53.2323 15.6501 52.9688 14.9469C52.3539 13.4349 52.4945 11.6943 53.3729 9.7604C54.55 7.54516 56.4649 6.36722 59.1178 6.20898H62.7544C63.8788 6.27931 64.6167 6.61335 64.9681 7.19353C65.3194 7.77372 65.4073 8.42422 65.2316 9.16263L65.214 9.26812L64.2302 13.2766H57.6947C57.3434 13.2239 57.1501 12.9602 57.1325 12.4679C57.115 11.9756 57.2731 11.5009 57.5893 11.0087C57.9056 10.5164 58.3623 10.2527 58.9597 10.1999H60.2422H61.4017L61.6301 9.26812H61.5774H59.3637H59.3462C58.4677 9.30328 57.7474 9.54942 57.2028 10.0065C56.6582 10.4461 56.3068 10.9735 56.1311 11.5888C55.7095 13.2766 56.219 14.1381 57.642 14.1909H59.3286H63.9667L63.1937 17.3907L56.6055 17.3379Z" fill="white"/>
<path id="Vector_5" d="M64.5991 17.3906L65.3546 14.3491H71.0819C71.6968 14.4018 72.0657 14.2084 72.1887 13.7689C72.2063 13.2942 71.8549 13.0832 71.1346 13.1359H69.5183C68.4115 13.1184 67.5506 12.7492 66.9709 12.0635C66.3735 11.3602 66.1978 10.3933 66.4262 9.16259C67.0763 7.03526 68.6926 6.05071 71.3103 6.20894H77.4065L76.6862 9.12742H70.7481C70.3089 9.10984 70.0453 9.26807 69.9751 9.6197C69.9399 9.88342 70.0453 10.0768 70.2562 10.1647C70.4845 10.2526 70.7832 10.2878 71.1697 10.2702L72.6103 10.2175C73.9631 10.2702 74.8591 10.6394 75.2983 11.3778C75.7375 12.0987 75.8605 13.0656 75.6497 14.2787C75.2105 16.4588 73.7171 17.4961 71.1873 17.4082H64.5991V17.3906Z" fill="white"/>
<path id="Vector_6" d="M76.2821 17.3906L77.0376 14.3491H82.7649C83.3798 14.4018 83.7487 14.2084 83.8717 13.7689C83.8893 13.2942 83.5379 13.0832 82.8176 13.1359H81.2013C80.0945 13.1184 79.2336 12.7492 78.6539 12.0635C78.0565 11.3602 77.8809 10.3933 78.1093 9.16259C78.7593 7.03526 80.3756 6.05071 82.9933 6.20894H89.072L88.3517 9.12742H82.4135C81.9743 9.10984 81.7108 9.26807 81.6405 9.6197C81.6054 9.88342 81.7108 10.0768 81.9216 10.1647C82.15 10.2526 82.4487 10.2878 82.8352 10.2702L84.2758 10.2175C85.6286 10.2702 86.5245 10.6394 86.9637 11.3778C87.403 12.0987 87.5259 13.0656 87.3151 14.2787C86.8759 16.4588 85.3826 17.4961 82.8527 17.4082H76.2821V17.3906Z" fill="white"/>
<g id="Group_3">
<path id="Vector_7" d="M10.4356 14.8414C10.3302 14.8414 10.2423 14.8062 10.1896 14.7183C10.1193 14.648 10.1018 14.5425 10.1193 14.437L10.4532 13.0657H20.1509L21.5037 11.4482L21.0469 10.4988H11.0856L11.4546 9.02199C11.4897 8.93409 11.5248 8.86376 11.6127 8.8286C11.6829 8.77586 11.7532 8.75827 11.8059 8.75827H20.2036L18.9211 6.15625H11.3491C10.1721 6.15625 9.36391 6.77159 8.90713 8.01986L7.3084 14.5249C7.13271 15.2809 7.3084 15.949 7.78275 16.5292C8.27466 17.1094 8.90713 17.4082 9.71528 17.4082H16.5143L18.6576 14.8414H10.4356Z" fill="white"/>
<g id="Group_4">
<g id="Group_5">
<path id="Vector_8" d="M3.63656 10.235C3.51358 10.1647 3.40817 10.024 3.40817 9.8658C3.40817 9.63724 3.60143 9.44385 3.82982 9.44385H9.50442C9.73281 9.44385 9.92607 9.63724 9.92607 9.8658C9.92607 10.0944 9.73281 10.2877 9.50442 10.2877H3.82982C3.75954 10.2877 3.68927 10.2702 3.63656 10.235Z" fill="white"/>
</g>
<g id="Group_6">
<path id="Vector_9" d="M7.16781 8.56484C7.04483 8.49451 6.93942 8.35386 6.93942 8.19563C6.93942 7.96707 7.13268 7.77368 7.36107 7.77368L10.0666 7.79126C10.295 7.79126 10.4882 7.98466 10.4882 8.21321C10.4882 8.44177 10.295 8.63516 10.0666 8.63516L7.36107 8.61758C7.29079 8.61758 7.22052 8.6 7.16781 8.56484Z" fill="white"/>
</g>
<path id="Vector_10" d="M8.94221 12.7667L5.83259 12.7843C5.6042 12.7843 5.41095 12.9777 5.41095 13.2063C5.41095 13.3645 5.49879 13.5051 5.62177 13.5755C5.67448 13.6106 5.74475 13.6282 5.81502 13.6282L8.48543 13.6106L8.94221 12.7667Z" fill="white"/>
<path id="Vector_11" d="M9.50441 11.202L4.12846 11.1844C3.90007 11.1844 3.70682 11.3778 3.70682 11.6064C3.70682 11.7646 3.79466 11.9053 3.91764 11.9756C3.97034 12.0108 4.04062 12.0283 4.11089 12.0283L9.04763 12.0459L9.50441 11.202Z" fill="white"/>
<g id="Group_7">
<path id="Vector_12" d="M0.210699 13.5755C0.0877202 13.5051 -0.00012207 13.3645 -0.00012207 13.2063C-0.00012207 12.9777 0.193131 12.7843 0.421521 12.7843H1.17696C1.40535 12.7843 1.58104 12.9777 1.58104 13.2063C1.58104 13.4348 1.38779 13.6282 1.1594 13.6282H0.403952C0.351247 13.6282 0.280973 13.6106 0.210699 13.5755Z" fill="white"/>
</g>
<g id="Group_8">
<path id="Vector_13" d="M2.33648 13.5579C2.19594 13.4876 2.10809 13.3469 2.10809 13.1887C2.10809 12.9601 2.30135 12.7667 2.52974 12.7667H4.67309C4.90148 12.7667 5.09473 12.9601 5.09473 13.1887C5.09473 13.4172 4.90148 13.6106 4.67309 13.6106H2.52974C2.45946 13.6106 2.38919 13.593 2.33648 13.5579Z" fill="white"/>
</g>
<g id="Group_9">
<path id="Vector_14" d="M1.96757 11.9756C1.84459 11.9053 1.73918 11.7646 1.75674 11.6064C1.75674 11.3778 1.95 11.1844 2.17839 11.1844H2.93383C3.16222 11.1844 3.35547 11.3778 3.35547 11.6064C3.35547 11.835 3.16222 12.0283 2.93383 12.0283H2.17839C2.09054 12.0283 2.02027 12.0108 1.96757 11.9756Z" fill="white"/>
</g>
<g id="Group_10">
<path id="Vector_15" d="M5.14746 8.58242C5.02448 8.51209 4.91907 8.37144 4.91907 8.21321C4.91907 7.98465 5.11232 7.79126 5.34071 7.79126H6.09615C6.32454 7.79126 6.5178 7.98465 6.5178 8.21321C6.5178 8.44177 6.32454 8.63516 6.09615 8.63516H5.34071C5.27044 8.63516 5.21773 8.61758 5.14746 8.58242Z" fill="white"/>
</g>
</g>
</g>
<g id="Group_11">
<g id="Group_12">
<path id="XMLID_39_" d="M19.5534 3.37832C19.5534 3.34315 19.5534 3.32557 19.5358 3.29041C19.5358 3.27283 19.5358 3.25525 19.5358 3.23767C19.5182 3.07944 19.5007 2.90362 19.5007 2.74539C19.5007 2.69265 19.5182 2.62232 19.5182 2.56958C19.4128 2.60474 19.2899 2.67507 19.1317 2.74539C18.7452 2.93879 18.4817 3.1146 18.4114 3.23767C18.2182 3.55413 18.306 3.9585 18.6223 4.15189C18.6398 4.16947 18.6574 4.16947 18.675 4.18705C18.7101 4.20464 18.7277 4.22222 18.7628 4.22222C19.0439 4.3277 19.3953 4.20464 19.5182 3.9585C19.6061 3.80027 19.5885 3.58929 19.5534 3.37832ZM18.7101 4.09915C18.3236 3.87059 18.4114 3.4838 18.4114 3.4838C18.4114 3.44864 18.4466 3.43106 18.4817 3.44864C18.5168 3.44864 18.5344 3.4838 18.5168 3.51897C18.5168 3.53655 18.4466 3.83543 18.7628 4.02882C18.7804 4.0464 18.7979 4.08157 18.7804 4.09915C18.7628 4.09915 18.7452 4.09915 18.7101 4.09915Z" fill="url(#paint0_linear_0_1728)"/>
<g id="Group_13">
<g id="XMLID_35_">
<path id="XMLID_36_" d="M22.7508 6.70119C22.6103 6.77152 22.4346 6.71877 22.3467 6.56054C22.2765 6.41989 22.3292 6.24408 22.4873 6.15617C22.6278 6.08585 22.8035 6.13859 22.8914 6.29682C22.9616 6.45505 22.9089 6.63087 22.7508 6.70119ZM22.5576 6.29682C22.4873 6.33199 22.4521 6.41989 22.4873 6.5078C22.5224 6.57812 22.6103 6.61329 22.6981 6.57812C22.7684 6.54296 22.8035 6.45505 22.7684 6.36715C22.7332 6.29682 22.6278 6.26166 22.5576 6.29682Z" fill="url(#paint1_linear_0_1728)"/>
</g>
<g id="XMLID_31_">
<path id="XMLID_32_" d="M22.0481 6.20891C21.9778 6.24407 21.8899 6.20891 21.8372 6.13859C21.8021 6.06826 21.8372 5.98036 21.9075 5.92761C21.9778 5.89245 22.0656 5.92761 22.1183 5.99794C22.1535 6.06826 22.1359 6.17375 22.0481 6.20891ZM21.9602 5.99794C21.9251 6.01552 21.9075 6.06826 21.9251 6.10343C21.9427 6.13859 21.9954 6.15617 22.0305 6.13859C22.0656 6.12101 22.0832 6.06826 22.0656 6.0331C22.0481 5.99794 21.9954 5.98036 21.9602 5.99794Z" fill="url(#paint2_linear_0_1728)"/>
</g>
<g id="XMLID_27_">
<path id="XMLID_28_" d="M22.417 5.73424C22.3292 5.78698 22.2062 5.73424 22.1711 5.64633C22.1359 5.55843 22.1711 5.43536 22.2589 5.40019C22.3467 5.34745 22.4697 5.40019 22.5049 5.4881C22.54 5.57601 22.5224 5.69908 22.417 5.73424ZM22.294 5.4881C22.2413 5.50568 22.2238 5.57601 22.2413 5.62875C22.2589 5.68149 22.3292 5.69908 22.3819 5.68149C22.4346 5.66391 22.4522 5.59359 22.4346 5.54084C22.3994 5.47052 22.3467 5.45294 22.294 5.4881Z" fill="url(#paint3_linear_0_1728)"/>
</g>
<g id="XMLID_23_">
<path id="XMLID_24_" d="M20.221 2.49933C20.0804 2.56965 19.9047 2.51691 19.8169 2.35868C19.7466 2.21803 19.7993 2.04222 19.9574 1.95431C20.1155 1.8664 20.2737 1.93673 20.3615 2.09496C20.4494 2.25319 20.3615 2.429 20.221 2.49933ZM20.0277 2.09496C19.9574 2.13012 19.9223 2.21803 19.9574 2.30594C19.9926 2.37626 20.0804 2.41142 20.1683 2.37626C20.2385 2.3411 20.2737 2.25319 20.2385 2.16529C20.1858 2.07738 20.098 2.04222 20.0277 2.09496Z" fill="url(#paint4_linear_0_1728)"/>
</g>
<g id="XMLID_19_">
<path id="XMLID_20_" d="M20.6777 1.16314C20.6075 1.1983 20.5196 1.16314 20.4669 1.09281C20.4318 1.02249 20.4669 0.93458 20.5372 0.881836C20.6075 0.846674 20.6953 0.881836 20.748 0.952161C20.7831 1.04007 20.748 1.12797 20.6777 1.16314ZM20.5723 0.969743C20.5372 0.987324 20.5196 1.04007 20.5372 1.07523C20.5548 1.11039 20.6075 1.12797 20.6426 1.11039C20.6777 1.09281 20.6953 1.04007 20.6777 1.00491C20.6602 0.952161 20.6075 0.93458 20.5723 0.969743Z" fill="url(#paint5_linear_0_1728)"/>
</g>
<g id="XMLID_15_">
<path id="XMLID_16_" d="M20.8358 1.97191C20.748 2.02465 20.625 1.97191 20.5899 1.884C20.5547 1.7961 20.5899 1.67303 20.6777 1.63786C20.7656 1.6027 20.8885 1.63786 20.9237 1.72577C20.9764 1.81368 20.9412 1.91916 20.8358 1.97191ZM20.7129 1.70819C20.6602 1.72577 20.6426 1.7961 20.6602 1.84884C20.6777 1.90158 20.748 1.91916 20.8007 1.90158C20.8534 1.884 20.871 1.81368 20.8534 1.76093C20.8183 1.70819 20.7656 1.69061 20.7129 1.70819Z" fill="url(#paint6_linear_0_1728)"/>
</g>
<path id="XMLID_14_" d="M25.1928 11.2196C25.1753 11.1844 25.1226 11.1668 25.0874 11.1844C25.0523 11.202 25.0347 11.2547 25.0523 11.2899C25.0699 11.325 25.1226 11.3426 25.1577 11.325C25.1928 11.3075 25.2104 11.2723 25.1928 11.2196Z" fill="url(#paint7_linear_0_1728)"/>
<path id="XMLID_13_" d="M24.209 9.54938C24.1915 9.51422 24.1388 9.49664 24.1036 9.51422C24.0685 9.5318 24.0509 9.58455 24.0685 9.61971C24.086 9.65487 24.1388 9.67245 24.1739 9.65487C24.209 9.63729 24.2266 9.60213 24.209 9.54938Z" fill="url(#paint8_linear_0_1728)"/>
<path id="XMLID_12_" d="M25.8956 11.5536C25.8604 11.4833 25.7726 11.4481 25.6847 11.4833C25.6145 11.5184 25.5793 11.6063 25.6145 11.6943C25.6496 11.7646 25.7374 11.7997 25.8253 11.7646C25.8956 11.7294 25.9307 11.6415 25.8956 11.5536Z" fill="url(#paint9_linear_0_1728)"/>
<path id="XMLID_11_" d="M25.5618 10.7273C25.5442 10.6746 25.4739 10.657 25.4212 10.6746C25.3685 10.6921 25.351 10.7625 25.3685 10.8152C25.3861 10.868 25.4564 10.8855 25.5091 10.868C25.5618 10.8328 25.5793 10.7625 25.5618 10.7273Z" fill="url(#paint10_linear_0_1728)"/>
<path id="XMLID_5_" d="M28.6363 15.527C28.6187 15.4567 28.6011 15.3864 28.566 15.3336L25.2104 8.45938C24.3847 8.74068 23.436 7.77371 22.663 7.5979L26.8619 16.1775C26.897 16.2479 26.9321 16.3006 26.9673 16.3534C27.3011 16.8105 27.8105 16.7753 28.1444 16.6171C28.4606 16.4588 28.7944 16.0721 28.6363 15.527ZM24.1914 9.72523C24.1212 9.76039 24.0333 9.72523 23.9806 9.65491C23.9455 9.58458 23.9806 9.49668 24.0509 9.44393C24.1212 9.40877 24.209 9.44393 24.2617 9.51426C24.2969 9.60216 24.2793 9.69007 24.1914 9.72523ZM25.1929 11.3954C25.1226 11.4306 25.0347 11.3954 24.982 11.3251C24.9469 11.2548 24.982 11.1669 25.0523 11.1141C25.1226 11.079 25.2104 11.1141 25.2631 11.1845C25.2983 11.2724 25.2631 11.3603 25.1929 11.3954ZM25.5618 10.9383C25.4739 10.9911 25.351 10.9383 25.3158 10.8504C25.2631 10.7625 25.3158 10.6395 25.4037 10.6043C25.4915 10.5515 25.6145 10.6043 25.6496 10.6922C25.6848 10.7801 25.6496 10.8856 25.5618 10.9383ZM25.878 11.8877C25.7375 11.958 25.5618 11.9053 25.4739 11.7471C25.4037 11.6064 25.4564 11.4306 25.6145 11.3427C25.755 11.2724 25.9307 11.3251 26.0186 11.4834C26.0888 11.6416 26.0361 11.8174 25.878 11.8877Z" fill="url(#paint11_linear_0_1728)"/>
</g>
</g>
<g id="XMLID_1_">
<path id="XMLID_2_" d="M23.1022 2.14774C22.9441 1.93677 22.6454 1.86644 22.3995 1.98951L21.2575 2.55211L20.1156 3.11471C19.8696 3.23778 19.7291 3.51908 19.7993 3.76522C19.852 3.95861 20.0102 4.08168 20.2034 4.09926C20.221 4.15201 20.2913 4.27507 20.3615 4.43331L21.8197 7.38696L22.1359 8.03746L26.247 16.4589C26.3172 16.5995 26.4051 16.7226 26.4929 16.8457C27.5646 18.0939 29.6377 17.0742 29.3214 15.4567C29.2863 15.3161 29.2512 15.1579 29.1809 15.0348L24.7361 5.98046C24.5604 5.62883 23.2779 3.00923 23.1198 2.69276C23.2252 2.51695 23.2252 2.30598 23.1022 2.14774ZM22.7333 2.51695C22.663 2.58728 22.663 2.67518 22.6981 2.76309C22.786 2.9389 22.909 3.18504 23.0495 3.46634L21.9603 4.01136C21.9076 4.02894 21.89 4.09926 21.9076 4.15201C21.9251 4.20475 21.9954 4.22233 22.0481 4.20475L23.1373 3.65973C23.2428 3.87071 23.3482 4.08168 23.4536 4.31024L22.3643 4.85526C22.3116 4.87284 22.2941 4.94316 22.3116 4.99591C22.3292 5.04865 22.3995 5.06623 22.4522 5.04865L23.5414 4.50363C23.6468 4.73219 23.7698 4.94316 23.8577 5.15414L22.7684 5.69916C22.7157 5.71674 22.6981 5.78706 22.7157 5.83981C22.7333 5.89255 22.8035 5.91013 22.8563 5.89255L23.9455 5.34753C24.1387 5.7519 24.2969 6.06836 24.3496 6.19143L28.812 15.2106C28.8471 15.2809 28.8822 15.3688 28.8998 15.4567C29.2512 16.7226 27.547 17.5489 26.7564 16.5116C26.7037 16.4413 26.651 16.371 26.6159 16.2831L22.2765 7.42212L22.1711 7.21114C22.013 6.89468 21.117 5.06623 20.6426 4.11684L20.4669 3.7828C20.4318 3.73006 20.344 3.69489 20.2737 3.69489C20.2034 3.69489 20.1683 3.69489 20.1507 3.65973C20.1331 3.62457 20.1507 3.53666 20.2386 3.5015L21.3805 2.9389L22.5224 2.3763C22.6103 2.32356 22.6806 2.35872 22.7157 2.39388C22.786 2.42904 22.7684 2.46421 22.7333 2.51695Z" fill="url(#paint12_linear_0_1728)"/>
</g>
</g>
</g>
<g id="Group_14">
<path id="Vector_16" d="M7.80032 24.1418V18.3751H9.03012V22.9111H12.7546V24.1418H7.80032Z" fill="white"/>
<path id="Vector_17" d="M19.9928 24.1418L19.1847 22.7705H16.7427L17.3049 21.8035H18.6049L17.5508 20.0278L15.1264 24.1242H13.7209L16.9886 18.674C17.1292 18.4279 17.3048 18.2697 17.5859 18.2697C17.8495 18.2697 18.0427 18.4279 18.1833 18.674L21.451 24.1242H19.9928V24.1418Z" fill="white"/>
<path id="Vector_18" d="M22.7159 24.1418V18.3751H26.9499C28.1094 18.3751 28.9 18.885 28.9 19.8871C28.9 20.5904 28.5662 20.9244 28.2324 21.0826C28.6716 21.2584 29.0054 21.7156 29.0054 22.3133C29.0054 23.4561 28.2324 24.1418 27.108 24.1418H22.7159ZM24.666 21.698V20.731H26.985C27.4418 20.731 27.6351 20.5552 27.6351 20.1684C27.6351 19.7465 27.3188 19.6058 26.7918 19.6058H23.9633V22.9111H26.8796C27.4067 22.9111 27.7405 22.7177 27.7405 22.2957C27.7405 21.909 27.4945 21.698 27.0553 21.698H24.666Z" fill="white"/>
</g>
<g id="Group_15">
<path id="Vector_19" d="M10.1194 26.6032C10.1545 26.6383 10.2072 26.6735 10.2599 26.6911C10.3126 26.7087 10.3653 26.7262 10.4356 26.7262C10.5586 26.7262 10.664 26.6911 10.7518 26.6032C10.8397 26.5153 10.8748 26.4098 10.8748 26.2867C10.8748 26.2164 10.8572 26.1636 10.8397 26.1109C10.8221 26.0581 10.787 26.0054 10.7518 25.9702C10.7167 25.9351 10.664 25.8999 10.6113 25.8648C10.5586 25.8296 10.5059 25.8296 10.4356 25.8296C10.3653 25.8296 10.3126 25.8472 10.2599 25.8648C10.2072 25.8823 10.1545 25.9175 10.1194 25.9702C10.0842 26.0054 10.0491 26.0581 10.014 26.1109C9.99639 26.1636 9.97882 26.2164 9.97882 26.2867C9.97882 26.357 9.99639 26.4098 10.014 26.4625C10.0315 26.5153 10.0667 26.568 10.1194 26.6032Z" fill="white"/>
<path id="Vector_20" d="M8.80171 26.6032C8.83685 26.6383 8.88955 26.6735 8.94226 26.6911C8.99496 26.7087 9.04767 26.7262 9.11794 26.7262C9.18822 26.7262 9.24092 26.7087 9.29363 26.6911C9.34633 26.6735 9.39904 26.6383 9.43418 26.6032C9.46931 26.568 9.50445 26.5153 9.53959 26.4625C9.55715 26.4098 9.57472 26.357 9.57472 26.2867C9.57472 26.2164 9.55715 26.1636 9.53959 26.1109C9.52202 26.0581 9.48688 26.0054 9.43418 25.9702C9.39904 25.9351 9.34633 25.8999 9.29363 25.8648C9.24092 25.8296 9.18822 25.8296 9.11794 25.8296C9.04767 25.8296 8.99496 25.8472 8.94226 25.8648C8.88955 25.8823 8.83685 25.9175 8.80171 25.9702C8.76657 26.0054 8.73144 26.0581 8.6963 26.1109C8.67873 26.1636 8.66116 26.2164 8.66116 26.2867C8.66116 26.357 8.67873 26.4098 8.6963 26.4625C8.71387 26.5153 8.76657 26.568 8.80171 26.6032Z" fill="white"/>
<path id="Vector_21" d="M13.2114 33.073C13.1763 33.0379 13.1236 33.0027 13.0708 32.9675C13.0181 32.95 12.9654 32.9324 12.8952 32.9324C12.8249 32.9324 12.7722 32.95 12.7195 32.9675C12.6668 32.9851 12.6141 33.0203 12.5789 33.073C12.5438 33.1082 12.5087 33.1609 12.4735 33.2137C12.456 33.2664 12.4384 33.3192 12.4384 33.3895C12.4384 33.4598 12.456 33.5126 12.4735 33.5653C12.4911 33.618 12.5262 33.6708 12.5789 33.7059C12.6141 33.7411 12.6668 33.7763 12.7195 33.7939C12.7722 33.8114 12.8249 33.829 12.8952 33.829C12.9654 33.829 13.0181 33.8114 13.0708 33.7939C13.1236 33.7763 13.1763 33.7411 13.2114 33.7059C13.2465 33.6708 13.2817 33.618 13.3168 33.5653C13.3519 33.5126 13.3519 33.4598 13.3519 33.3895C13.3519 33.3192 13.3344 33.2664 13.3168 33.2137C13.2992 33.1609 13.2641 33.1082 13.2114 33.073Z" fill="white"/>
<path id="Vector_22" d="M14.529 33.073C14.4939 33.0379 14.4412 33.0027 14.3885 32.9675C14.3358 32.9324 14.2831 32.9324 14.2128 32.9324C14.1425 32.9324 14.0898 32.95 14.0371 32.9675C13.9844 32.9851 13.9317 33.0203 13.8966 33.073C13.8614 33.1082 13.8263 33.1609 13.7911 33.2137C13.756 33.2664 13.756 33.3192 13.756 33.3895C13.756 33.4598 13.7736 33.5126 13.7911 33.5653C13.8087 33.618 13.8439 33.6708 13.8966 33.7059C13.9317 33.7411 13.9844 33.7763 14.0371 33.7939C14.0898 33.8114 14.1425 33.829 14.2128 33.829C14.3358 33.829 14.4412 33.7939 14.529 33.7059C14.6169 33.618 14.652 33.5126 14.652 33.3895C14.652 33.3192 14.6344 33.2664 14.6169 33.2137C14.5993 33.1609 14.5642 33.1082 14.529 33.073Z" fill="white"/>
<path id="Vector_23" d="M16.7778 32.9148C16.7075 32.9148 16.6548 32.9324 16.6021 32.95C16.5494 32.9675 16.4967 33.0027 16.4615 33.0379C16.4264 33.073 16.3913 33.1258 16.3561 33.1785C16.321 33.2313 16.321 33.284 16.321 33.3543C16.321 33.4247 16.3386 33.4774 16.3561 33.5301C16.3737 33.5829 16.4088 33.6356 16.4615 33.6708C16.5142 33.706 16.5494 33.7411 16.6021 33.7763C16.6548 33.7939 16.7075 33.8114 16.7778 33.8114C16.848 33.8114 16.9007 33.7939 16.9534 33.7763C17.0062 33.7587 17.0589 33.7235 17.094 33.6708C17.1291 33.618 17.1643 33.5829 17.1818 33.5301C17.1994 33.4774 17.217 33.4247 17.217 33.3543C17.217 33.2313 17.1818 33.1258 17.094 33.0379C17.0062 32.95 16.9007 32.9148 16.7778 32.9148Z" fill="white"/>
<path id="Vector_24" d="M25.3336 30.6469C25.3336 30.7172 25.3161 30.8051 25.2985 30.8578C25.2634 30.9282 25.2282 30.9809 25.1755 31.0336C25.1228 31.0864 25.0701 31.1216 24.9998 31.1567C24.9296 31.1919 24.8593 31.2095 24.789 31.2095H24.7714H24.3849H23.8754V29.6799C23.8754 29.2931 23.8227 28.9766 23.7173 28.7129C23.6119 28.4492 23.4714 28.2382 23.3133 28.0624C23.1376 27.9042 22.9443 27.7811 22.7159 27.6932C22.4875 27.6229 22.2416 27.5877 21.9781 27.5877C21.8024 27.5877 21.6091 27.6053 21.4334 27.6405C21.2402 27.6756 21.0645 27.7284 20.8888 27.7987C20.7131 27.869 20.5374 27.9569 20.3618 28.0448C20.1861 28.1327 20.028 28.2382 19.8874 28.3613V25.8296H19.009V31.1919H18.4995H18.113H17.5684V27.5701H16.6899V31.1919H15.5831H15.1966H14.6871V27.5701H13.8087V31.1919H12.7019H12.3154H11.8059V29.6271C11.8059 29.3458 11.7532 29.0821 11.6478 28.836C11.5424 28.5899 11.4018 28.3613 11.2086 28.1855C11.0153 27.9921 10.8045 27.8514 10.5586 27.746C10.3126 27.6405 10.0491 27.5877 9.76798 27.5877C9.48689 27.5877 9.22336 27.6405 8.9774 27.746C8.73144 27.8514 8.52062 28.0097 8.32737 28.1855C8.15168 28.3789 7.99357 28.5899 7.88816 28.836C7.78275 29.0821 7.73004 29.3634 7.73004 29.6447V30.6293C7.73004 30.8227 7.76518 31.0161 7.83545 31.1919C7.90573 31.3677 8.01114 31.5083 8.15168 31.649C8.27466 31.7721 8.43278 31.8775 8.60846 31.9479C8.78415 32.0182 8.95983 32.0534 9.17065 32.0534H10.1369V31.1743H9.17065C9.10038 31.1743 9.03011 31.1567 8.95983 31.1216C8.88956 31.0864 8.83685 31.0512 8.78415 30.9985C8.73144 30.9457 8.69631 30.893 8.66117 30.8227C8.62603 30.7523 8.60846 30.682 8.60846 30.6117V29.6271C8.60846 29.4513 8.6436 29.3107 8.69631 29.1525C8.74901 29.0118 8.83685 28.8887 8.94226 28.7657C9.04768 28.6426 9.17065 28.5723 9.3112 28.5019C9.45175 28.4316 9.5923 28.414 9.75041 28.414C9.90853 28.414 10.0491 28.4492 10.1896 28.5019C10.3302 28.5547 10.4532 28.6426 10.5586 28.7657C10.664 28.8712 10.7518 28.9942 10.8045 29.1349C10.8572 29.2755 10.8924 29.4162 10.8924 29.5744V32.0182H12.2803H12.6668H15.1615H15.548H18.0427H18.4292H24.3147H24.7012H24.7187C24.912 32.0182 25.1052 31.983 25.2809 31.9127C25.4566 31.8424 25.6147 31.7369 25.7377 31.5962C25.8607 31.4732 25.9661 31.3149 26.0539 31.1391C26.1242 30.9633 26.1593 30.7699 26.1593 30.5765V25.7769H25.2809V30.6469H25.3336ZM22.9619 31.2095H19.8523V29.8381C19.8523 29.7326 19.8874 29.6096 19.9401 29.5041C19.9928 29.3986 20.0807 29.2931 20.1861 29.1876C20.2915 29.0821 20.4145 28.9942 20.555 28.9063C20.6956 28.8184 20.8361 28.7481 20.9942 28.6778C21.1523 28.6074 21.3105 28.5723 21.4686 28.5195C21.6267 28.4844 21.8024 28.4668 21.9605 28.4668C22.101 28.4668 22.224 28.4844 22.347 28.5371C22.47 28.5723 22.5754 28.6426 22.6632 28.7481C22.7511 28.8536 22.8213 28.9766 22.8916 29.1173C22.9619 29.2579 22.9795 29.4513 22.9795 29.6799V31.2095H22.9619Z" fill="white"/>
<path id="Vector_25" d="M28.0567 25.8296H27.1783V32.0709H28.0567V25.8296Z" fill="white"/>
<path id="Vector_26" d="M38.2816 30.6645C38.2816 30.7348 38.264 30.8051 38.2289 30.8755C38.1937 30.9458 38.1586 30.9985 38.1059 31.0513C38.0532 31.104 38.0005 31.1392 37.9302 31.1743C37.8599 31.2095 37.7897 31.2271 37.7018 31.2271H37.1572V27.6053H36.2788V31.2271H35.1544V27.6053H34.276V31.8073C34.276 32.0007 34.2408 32.1589 34.153 32.3171C34.0651 32.4578 33.9597 32.5808 33.8368 32.6687C33.6962 32.7567 33.5557 32.8446 33.38 32.8797C33.2043 32.9325 33.0286 32.95 32.8529 32.95C32.6772 32.95 32.5016 32.9325 32.3259 32.8797C32.1502 32.827 32.0096 32.7567 31.8691 32.6687C31.7285 32.5808 31.6231 32.4578 31.5529 32.3171C31.465 32.1765 31.4299 32.0007 31.4299 31.8073V28.4141H30.5515V31.8073C30.5515 32.1413 30.6217 32.4402 30.7447 32.7039C30.8853 32.95 31.0434 33.161 31.2718 33.3368C31.5001 33.5126 31.7285 33.6357 32.0096 33.7236C32.2907 33.8115 32.5718 33.8467 32.8529 33.8467C33.1164 33.8467 33.38 33.8115 33.6435 33.7412C33.907 33.6709 34.1354 33.5654 34.3462 33.4072C34.5571 33.2665 34.7327 33.0731 34.8733 32.8621C35.0138 32.6512 35.1017 32.3874 35.1368 32.1061H37.7194C37.9126 32.1061 38.1059 32.071 38.2816 32.0007C38.4573 31.9303 38.6154 31.8248 38.7384 31.7018C38.8789 31.5787 38.9667 31.4205 39.0546 31.2447C39.1249 31.0689 39.16 30.893 39.16 30.6996V27.6229H38.2816V30.6645Z" fill="white"/>
<path id="Vector_27" d="M43.8859 32.9148C43.8156 32.9148 43.7629 32.9324 43.7102 32.95C43.6575 32.9675 43.6048 33.0027 43.5696 33.0379C43.5345 33.073 43.4994 33.1258 43.4642 33.1785C43.4291 33.2313 43.4291 33.284 43.4291 33.3543C43.4291 33.4247 43.4466 33.4774 43.4642 33.5301C43.4818 33.5829 43.5169 33.6356 43.5696 33.6708C43.6223 33.706 43.6575 33.7411 43.7102 33.7763C43.7629 33.7939 43.8156 33.8114 43.8859 33.8114C43.9561 33.8114 44.0088 33.7939 44.0615 33.7763C44.1142 33.7587 44.167 33.7235 44.2021 33.6708C44.2372 33.618 44.2724 33.5829 44.2899 33.5301C44.3075 33.4774 44.3251 33.4247 44.3251 33.3543C44.3251 33.2313 44.2899 33.1258 44.2021 33.0379C44.1142 32.95 44.0088 32.9148 43.8859 32.9148Z" fill="white"/>
<path id="Vector_28" d="M57.3609 28.3965C57.2379 28.2382 57.1149 28.1152 56.9568 28.0097C56.7987 27.9042 56.623 27.8163 56.4473 27.7635C56.2716 27.7108 56.0608 27.658 55.8675 27.6229C55.6743 27.5877 55.4635 27.5877 55.2526 27.5877C55.1824 27.5877 55.1121 27.5877 55.0418 27.5877C54.9715 27.5877 54.9013 27.5877 54.831 27.6053L56.1838 26.3922L55.5513 25.7769L53.0566 28.08L53.4607 28.8008C53.5309 28.7657 53.6188 28.7305 53.7418 28.6953C53.8647 28.6602 54.0053 28.625 54.1634 28.5899C54.3215 28.5547 54.4972 28.5195 54.6729 28.5019C54.8486 28.4844 55.0418 28.4668 55.2175 28.4668C55.4108 28.4668 55.604 28.4844 55.8148 28.5195C56.0257 28.5547 56.1838 28.625 56.3419 28.7129C56.5 28.8008 56.623 28.9239 56.7108 29.0821C56.7987 29.2404 56.8514 29.4338 56.8514 29.6799V30.6644C56.8514 30.7348 56.8338 30.8051 56.7987 30.8754C56.7635 30.9457 56.7284 30.9985 56.6757 31.0512C56.623 31.104 56.5703 31.1391 56.5 31.1743C56.4297 31.2095 56.3595 31.227 56.2716 31.227H52.5822H52.1957H51.6863V27.6053H50.8078V31.227H49.6834V27.6053H48.805V31.227H47.6806V27.6053H46.8022V31.227H45.5549H45.1684H44.6589V27.6053H43.7804V31.227H42.6736H42.2871H41.7776V27.6053H40.8992V31.6842C40.8992 31.86 40.8465 32.0182 40.7762 32.194C40.7411 32.2643 40.6884 32.3347 40.6357 32.4226C40.583 32.4929 40.5127 32.5808 40.4249 32.6511C40.337 32.7214 40.2316 32.8094 40.1262 32.8797C40.0032 32.95 39.8803 33.0203 39.7221 33.0907L40.0559 33.8994C40.3546 33.7763 40.6181 33.6357 40.8114 33.4774C41.0222 33.3192 41.1803 33.161 41.3033 33.0027C41.4263 32.8445 41.5317 32.6863 41.5844 32.5281C41.6547 32.3698 41.6898 32.2292 41.7249 32.1061H42.2871H42.6736H45.1684H45.5549H52.1957H52.5822H56.2716C56.4649 32.1061 56.6581 32.0709 56.8338 32.0006C57.0095 31.9303 57.1676 31.8248 57.2906 31.7017C57.4136 31.5787 57.519 31.4204 57.6068 31.2446C57.6771 31.0688 57.7122 30.893 57.7122 30.682V29.6975C57.7122 29.4162 57.6771 29.1876 57.6068 28.9591C57.5717 28.7305 57.4663 28.5547 57.3609 28.3965Z" fill="white"/>
<path id="Vector_29" d="M59.5745 25.8296H58.6961V32.0709H59.5745V25.8296Z" fill="white"/>
<path id="Vector_30" d="M65.214 26.6032C65.2491 26.6383 65.3018 26.6735 65.3546 26.6911C65.4073 26.7087 65.46 26.7262 65.5302 26.7262C65.6532 26.7262 65.7586 26.6911 65.8465 26.6032C65.9343 26.5153 65.9694 26.4098 65.9694 26.2867C65.9694 26.2164 65.9519 26.1636 65.9343 26.1109C65.9167 26.0581 65.8816 26.0054 65.8465 25.9702C65.8113 25.9351 65.7586 25.8999 65.7059 25.8648C65.6532 25.8296 65.6005 25.8296 65.5302 25.8296C65.46 25.8296 65.4073 25.8472 65.3546 25.8648C65.3018 25.8823 65.2491 25.9175 65.214 25.9702C65.1789 26.0054 65.1437 26.0581 65.1086 26.1109C65.091 26.1636 65.0735 26.2164 65.0735 26.2867C65.0735 26.357 65.091 26.4098 65.1086 26.4625C65.1262 26.5153 65.1789 26.568 65.214 26.6032Z" fill="white"/>
<path id="Vector_31" d="M63.8963 26.6032C63.9315 26.6383 63.9842 26.6735 64.0369 26.6911C64.0896 26.7087 64.1423 26.7262 64.2126 26.7262C64.2829 26.7262 64.3356 26.7087 64.3883 26.6911C64.441 26.6735 64.4937 26.6383 64.5288 26.6032C64.5639 26.568 64.5991 26.5153 64.6342 26.4625C64.6694 26.4098 64.6694 26.357 64.6694 26.2867C64.6694 26.2164 64.6518 26.1636 64.6342 26.1109C64.6167 26.0581 64.5815 26.0054 64.5288 25.9702C64.4937 25.9351 64.441 25.8999 64.3883 25.8648C64.3356 25.8296 64.2829 25.8296 64.2126 25.8296C64.1423 25.8296 64.0896 25.8472 64.0369 25.8648C63.9842 25.8823 63.9315 25.9175 63.8963 25.9702C63.8612 26.0054 63.8261 26.0581 63.7909 26.1109C63.7734 26.1636 63.7558 26.2164 63.7558 26.2867C63.7558 26.357 63.7734 26.4098 63.7909 26.4625C63.8085 26.5153 63.8612 26.568 63.8963 26.6032Z" fill="white"/>
<path id="Vector_32" d="M66.8127 30.6293C66.8127 30.7172 66.7951 30.7876 66.76 30.8579C66.7249 30.9282 66.6897 30.981 66.637 31.0337C66.5843 31.0864 66.5316 31.1216 66.4613 31.1568C66.3911 31.1919 66.3208 31.2095 66.2505 31.2095H64.1072C63.949 31.2095 63.7909 31.1743 63.6504 31.1216C63.5098 31.0689 63.3869 30.981 63.2814 30.8755C63.176 30.77 63.0882 30.6469 63.0355 30.5063C62.9828 30.3656 62.9476 30.2074 62.9476 30.0491V28.4141H62.0692V30.0491C62.0692 30.3304 62.1219 30.5942 62.2273 30.8403C62.3327 31.0864 62.4733 31.2974 62.6665 31.4908C62.8598 31.6666 63.0706 31.8249 63.3166 31.9303C63.5625 32.0358 63.8261 32.0886 64.1072 32.0886H66.2505C66.4438 32.0886 66.637 32.0534 66.8127 31.9831C66.9884 31.9128 67.1465 31.8073 67.2695 31.6666C67.3925 31.5436 67.4979 31.3853 67.5681 31.2095C67.6384 31.0337 67.6736 30.8403 67.6736 30.6469V27.5878H66.7951V30.6293H66.8127Z" fill="white"/>
<path id="Vector_33" d="M69.5358 25.8296H68.6574V32.0709H69.5358V25.8296Z" fill="white"/>
<path id="Vector_34" d="M74.2793 32.9148C74.209 32.9148 74.1563 32.9324 74.1036 32.95C74.0509 32.9675 73.9982 33.0027 73.9631 33.0379C73.9279 33.073 73.8928 33.1258 73.8577 33.1785C73.8225 33.2313 73.8225 33.284 73.8225 33.3543C73.8225 33.4247 73.8401 33.4774 73.8577 33.5301C73.8752 33.5829 73.9104 33.6356 73.9631 33.6708C74.0158 33.706 74.0509 33.7411 74.1036 33.7763C74.1563 33.7939 74.209 33.8114 74.2793 33.8114C74.3496 33.8114 74.4023 33.7939 74.455 33.7763C74.5077 33.7587 74.5604 33.7235 74.5956 33.6708C74.6307 33.618 74.6658 33.5829 74.6834 33.5301C74.701 33.4774 74.7185 33.4247 74.7185 33.3543C74.7185 33.2313 74.6834 33.1258 74.5956 33.0379C74.5077 32.95 74.4023 32.9148 74.2793 32.9148Z" fill="white"/>
<path id="Vector_35" d="M77.1781 26.6032C77.2132 26.6383 77.266 26.6735 77.3187 26.6911C77.3714 26.7087 77.4241 26.7262 77.4943 26.7262C77.6173 26.7262 77.7227 26.6911 77.8106 26.6032C77.8984 26.5153 77.9336 26.4098 77.9336 26.2867C77.9336 26.2164 77.916 26.1636 77.8984 26.1109C77.8809 26.0581 77.8457 26.0054 77.8106 25.9702C77.7754 25.9351 77.7227 25.8999 77.67 25.8648C77.6173 25.8472 77.5646 25.8296 77.4943 25.8296C77.4241 25.8296 77.3714 25.8472 77.3187 25.8648C77.266 25.8823 77.2132 25.9175 77.1781 25.9702C77.143 26.0054 77.1078 26.0581 77.0727 26.1109C77.0551 26.1636 77.0376 26.2164 77.0376 26.2867C77.0376 26.357 77.0551 26.4098 77.0727 26.4625C77.0903 26.5153 77.143 26.568 77.1781 26.6032Z" fill="white"/>
<path id="Vector_36" d="M76.1767 26.7262C76.247 26.7262 76.2997 26.7087 76.3524 26.6911C76.4051 26.6735 76.4578 26.6383 76.4929 26.6032C76.5281 26.568 76.5632 26.5153 76.5983 26.4625C76.6335 26.4098 76.6335 26.357 76.6335 26.2867C76.6335 26.2164 76.6159 26.1636 76.5983 26.1109C76.5808 26.0581 76.5456 26.0054 76.4929 25.9702C76.4578 25.9351 76.4051 25.8999 76.3524 25.8648C76.2997 25.8472 76.247 25.8296 76.1767 25.8296C76.1064 25.8296 76.0537 25.8472 76.001 25.8648C75.9483 25.8823 75.8956 25.9175 75.8605 25.9702C75.8253 26.0054 75.7902 26.0581 75.7726 26.1109C75.7551 26.1636 75.7375 26.2164 75.7375 26.2867C75.7375 26.4098 75.7726 26.5153 75.8605 26.6032C75.9483 26.6911 76.0537 26.7262 76.1767 26.7262Z" fill="white"/>
<path id="Vector_37" d="M80.7972 26.6032C80.8324 26.6383 80.8851 26.6735 80.9378 26.6911C80.9905 26.7087 81.0432 26.7262 81.1135 26.7262C81.2364 26.7262 81.3418 26.6911 81.4297 26.6032C81.5175 26.5153 81.5527 26.4098 81.5527 26.2867C81.5527 26.2164 81.5351 26.1636 81.5175 26.1109C81.5 26.0581 81.4648 26.0054 81.4297 25.9702C81.3946 25.9351 81.3418 25.8999 81.2891 25.8648C81.2364 25.8296 81.1837 25.8296 81.1135 25.8296C81.0432 25.8296 80.9905 25.8472 80.9378 25.8648C80.8851 25.8823 80.8324 25.9175 80.7972 25.9702C80.7621 26.0054 80.7269 26.0581 80.6918 26.1109C80.6742 26.1636 80.6567 26.2164 80.6567 26.2867C80.6567 26.357 80.6742 26.4098 80.6918 26.4625C80.7269 26.5153 80.7621 26.568 80.7972 26.6032Z" fill="white"/>
<path id="Vector_38" d="M88.4219 28.8536C88.3165 28.6075 88.1759 28.3965 87.9827 28.2031C87.807 28.0097 87.5786 27.8691 87.3327 27.746C87.0867 27.6405 86.8232 27.5878 86.5597 27.5878C86.2786 27.5878 86.015 27.6405 85.7691 27.746C85.5231 27.8515 85.3123 28.0097 85.1366 28.1855C84.9609 28.3789 84.8028 28.5899 84.6974 28.836C84.592 29.0822 84.5393 29.3459 84.5393 29.6272V30.6293C84.5393 30.7348 84.5393 30.8227 84.5568 30.9106C84.5744 30.9985 84.592 31.104 84.6096 31.1919H84.0298H83.6433H83.1338V29.6624C83.1338 29.2404 83.0811 28.9064 82.9581 28.6251C82.8351 28.3613 82.6946 28.1328 82.5013 27.9921C82.3081 27.8339 82.0973 27.7284 81.8513 27.6581C81.6053 27.5878 81.3594 27.5702 81.1134 27.5702C80.9377 27.5702 80.7621 27.5878 80.5864 27.6229C80.4107 27.6581 80.235 27.6933 80.0593 27.746C79.9012 27.7987 79.7431 27.8339 79.6025 27.8867C79.462 27.9394 79.3566 27.9746 79.2687 28.0273L79.6377 28.8185C79.708 28.7833 79.7958 28.7481 79.9012 28.713C80.0066 28.6778 80.1296 28.6251 80.2526 28.5899C80.3756 28.5547 80.5161 28.5196 80.6567 28.502C80.7972 28.4844 80.9377 28.4668 81.0783 28.4668C81.2188 28.4668 81.3594 28.4844 81.4999 28.5196C81.6405 28.5547 81.7635 28.6251 81.8689 28.713C81.9743 28.8009 82.0621 28.9239 82.1324 29.0822C82.2027 29.2404 82.2378 29.4338 82.2378 29.6799V31.2095H78.7944H78.4079H77.8984V27.5878H77.02V31.2095H75.9132H75.5267H75.0172V27.5878H74.1388V31.2095H73.0319H72.6454H72.136V27.5878H71.2575V31.6666C71.2575 31.8424 71.2048 32.0007 71.1346 32.1765C71.0994 32.2468 71.0467 32.3171 70.994 32.405C70.9413 32.4754 70.871 32.5633 70.7832 32.6336C70.6953 32.7039 70.5899 32.7918 70.4845 32.8621C70.3615 32.9325 70.2386 33.0028 70.0804 33.0731L70.4142 33.8819C70.7129 33.7588 70.9764 33.6181 71.1697 33.4599C71.3805 33.3017 71.5386 33.1434 71.6616 32.9852C71.7846 32.827 71.89 32.6688 71.9427 32.5105C72.013 32.3523 72.0481 32.2116 72.0832 32.0886H72.6454H73.0319H75.5442H75.9307H78.4255H78.812H83.6257H84.0122H85.1015C85.2772 32.282 85.5055 32.4402 85.7339 32.5457C85.9799 32.6512 86.2434 32.7039 86.5245 32.7039C86.8056 32.7039 87.0516 32.6512 87.2975 32.5457C87.5435 32.4402 87.7543 32.282 87.93 32.1062C88.1057 31.9128 88.2638 31.7018 88.3692 31.4556C88.4746 31.2095 88.5273 30.9458 88.5273 30.6645V29.6624C88.58 29.3635 88.5273 29.0998 88.4219 28.8536ZM87.7016 30.6469C87.7016 30.8051 87.6665 30.9634 87.6138 31.104C87.5611 31.2447 87.4732 31.3677 87.3678 31.4732C87.2624 31.5787 87.1394 31.6666 86.9989 31.7194C86.8583 31.7897 86.7178 31.8073 86.5597 31.8073C86.4015 31.8073 86.261 31.7721 86.1204 31.7194C85.9799 31.649 85.8569 31.5787 85.7691 31.4732C85.6637 31.3677 85.5934 31.2447 85.5231 31.104C85.4704 30.9634 85.4353 30.8051 85.4353 30.6469V29.6448C85.4353 29.4865 85.4704 29.3283 85.5231 29.1877C85.5758 29.047 85.6637 28.9239 85.7691 28.8185C85.8745 28.713 85.9975 28.6251 86.1204 28.5723C86.261 28.502 86.4015 28.4844 86.5597 28.4844C86.7178 28.4844 86.8583 28.5196 86.9989 28.5723C87.1394 28.6251 87.2624 28.713 87.3678 28.836C87.4732 28.9415 87.5611 29.0646 87.6138 29.2052C87.6665 29.3459 87.7016 29.5041 87.7016 29.6448V30.6469Z" fill="white"/>
</g>
</g>
</g>
<defs>
<linearGradient id="paint0_linear_0_1728" x1="18.3074" y1="3.41879" x2="19.5844" y2="3.41879" gradientUnits="userSpaceOnUse">
<stop stop-color="#0E4DC8"/>
<stop offset="0.9695" stop-color="#23B3F2"/>
</linearGradient>
<linearGradient id="paint1_linear_0_1728" x1="22.3264" y1="6.43389" x2="22.9198" y2="6.43389" gradientUnits="userSpaceOnUse">
<stop stop-color="#0E4DC8"/>
<stop offset="0.9695" stop-color="#23B3F2"/>
</linearGradient>
<linearGradient id="paint2_linear_0_1728" x1="21.8379" y1="6.06606" x2="22.1405" y2="6.06606" gradientUnits="userSpaceOnUse">
<stop stop-color="#0E4DC8"/>
<stop offset="0.9695" stop-color="#23B3F2"/>
</linearGradient>
<linearGradient id="paint3_linear_0_1728" x1="22.153" y1="5.57147" x2="22.5306" y2="5.57147" gradientUnits="userSpaceOnUse">
<stop stop-color="#0E4DC8"/>
<stop offset="0.9695" stop-color="#23B3F2"/>
</linearGradient>
<linearGradient id="paint4_linear_0_1728" x1="19.7911" y1="2.22645" x2="20.3845" y2="2.22645" gradientUnits="userSpaceOnUse">
<stop stop-color="#0E4DC8"/>
<stop offset="0.9695" stop-color="#23B3F2"/>
</linearGradient>
<linearGradient id="paint5_linear_0_1728" x1="20.4539" y1="1.03325" x2="20.7565" y2="1.03325" gradientUnits="userSpaceOnUse">
<stop stop-color="#0E4DC8"/>
<stop offset="0.9695" stop-color="#23B3F2"/>
</linearGradient>
<linearGradient id="paint6_linear_0_1728" x1="20.5707" y1="1.80061" x2="20.9483" y2="1.80061" gradientUnits="userSpaceOnUse">
<stop stop-color="#0E4DC8"/>
<stop offset="0.9695" stop-color="#23B3F2"/>
</linearGradient>
<linearGradient id="paint7_linear_0_1728" x1="25.0407" y1="11.2594" x2="25.1992" y2="11.2594" gradientUnits="userSpaceOnUse">
<stop stop-color="#0E4DC8"/>
<stop offset="0.9695" stop-color="#23B3F2"/>
</linearGradient>
<linearGradient id="paint8_linear_0_1728" x1="24.0508" y1="9.59016" x2="24.2093" y2="9.59016" gradientUnits="userSpaceOnUse">
<stop stop-color="#0E4DC8"/>
<stop offset="0.9695" stop-color="#23B3F2"/>
</linearGradient>
<linearGradient id="paint9_linear_0_1728" x1="25.5984" y1="11.6272" x2="25.9092" y2="11.6272" gradientUnits="userSpaceOnUse">
<stop stop-color="#0E4DC8"/>
<stop offset="0.9695" stop-color="#23B3F2"/>
</linearGradient>
<linearGradient id="paint10_linear_0_1728" x1="25.3736" y1="10.7649" x2="25.5714" y2="10.7649" gradientUnits="userSpaceOnUse">
<stop stop-color="#0E4DC8"/>
<stop offset="0.9695" stop-color="#23B3F2"/>
</linearGradient>
<linearGradient id="paint11_linear_0_1728" x1="22.6583" y1="12.1645" x2="28.6822" y2="12.1645" gradientUnits="userSpaceOnUse">
<stop stop-color="#0E4DC8"/>
<stop offset="0.9695" stop-color="#23B3F2"/>
</linearGradient>
<linearGradient id="paint12_linear_0_1728" x1="20.3396" y1="9.78824" x2="36.912" y2="9.39859" gradientUnits="userSpaceOnUse">
<stop stop-color="#6E2986"/>
<stop offset="1" stop-color="#E12B80"/>
</linearGradient>
<clipPath id="clip0_0_1728">
<rect width="89.072" height="33" fill="white" transform="translate(0 0.881836)"/>
</clipPath>
</defs>
</svg>
