<svg enable-background="new 0 0 511.995 511.995" height="511.9949951171875" width="511.9949951171875" xmlns="http://www.w3.org/2000/svg" style=""><rect id="backgroundrect" width="100%" height="100%" x="0" y="0" fill="none" stroke="none"/><g class="currentLayer" style=""><title>Layer 1</title><path d="m3.9286704159821966,172.0112424120307 c3.9122121334075928,-10.734000205993652 11.776688575744629,-19.305999755859375 22.143503189086914,-24.132999420166016 c37.52999496459961,-17.47800064086914 79.62808990478516,-19.312000274658203 118.54092407226562,-5.169000148773193 l40.65716552734375,14.777999877929688 l116.03659057617188,-57.35300064086914 c3.6778998374938965,-1.8170000314712524 7.943582534790039,-2.053999900817871 11.79971981048584,-0.6520000100135803 l69.2802963256836,25.183000564575195 c5.231969833374023,1.9019999504089355 8.980964660644531,6.5370001792907715 9.741978645324707,12.045000076293945 s-1.5911197662353516,10.984000205993652 -6.112143039703369,14.229999542236328 l-73.52794647216797,52.79100036621094 l102.18514251708984,37.141998291015625 l37.917518615722656,-30.70400047302246 c4.098459720611572,-3.318000078201294 9.63984203338623,-4.247000217437744 14.59744644165039,-2.444000005722046 l36.94922637939453,13.430999755859375 c3.7429864406585693,1.3609999418258667 6.792048454284668,4.151000022888184 8.47529125213623,7.756999969482422 s1.8634824752807617,7.730000019073486 0.5006669759750366,11.468999862670898 l-23.535356521606445,64.57599639892578 c-7.658202171325684,21.013999938964844 -23.052709579467773,37.79199981689453 -43.34775161743164,47.242000579833984 c-20.295034408569336,9.45199966430664 -43.059364318847656,10.444000244140625 -64.10139465332031,2.7960000038146973 l-90.02192687988281,-32.72200012207031 l19.411861419677734,76.1259994506836 c1.3738301992416382,5.388000011444092 -0.34946557879447937,11.093000411987305 -4.476963996887207,14.822999954223633 c-2.8077402114868164,2.5369999408721924 -6.414546012878418,3.878999948501587 -10.080430030822754,3.878000020980835 c-1.7232959270477295,0 -3.461611747741699,-0.29600000381469727 -5.134840488433838,-0.9039999842643738 l-69.28129577636719,-25.183000564575195 c-3.8571383953094482,-1.4019999504089355 -6.971287727355957,-4.318999767303467 -8.619482040405273,-8.074000358581543 l-46.51797866821289,-105.99299621582031 l-137.88670349121094,-50.11899948120117 c-22.188562393188477,-8.067000389099121 -33.669857025146484,-32.65700149536133 -25.593095779418945,-54.81700134277344 zm341.4779357910156,-28.863000869750977 l-36.534671783447266,-13.279000282287598 l-84.57768249511719,41.80400085449219 l54.02997970581055,19.638999938964844 zm-305.609130859375,55.487998962402344 l143.9257354736328,52.31399917602539 c3.8571383953094482,1.4019999504089355 6.971287727355957,4.318999767303467 8.619482040405273,8.074000358581543 l46.51797866821289,105.99299621582031 l36.535675048828125,13.279999732971191 l-19.411861419677734,-76.1259994506836 c-1.3738301992416382,-5.388000011444092 0.34946557879447937,-11.093000411987305 4.476963996887207,-14.822999954223633 c2.8077402114868164,-2.5369999408721924 6.414546012878418,-3.878000020980835 10.080430030822754,-3.878000020980835 c1.724297046661377,0 3.4626128673553467,0.296999990940094 5.134840488433838,0.9039999842643738 l116.7275161743164,42.42900085449219 c13.501988410949707,4.9079999923706055 28.10944938659668,4.270999908447266 41.13180160522461,-1.7929999828338623 s22.9005069732666,-16.829999923706055 27.814054489135742,-30.312999725341797 l18.39851188659668,-50.48099899291992 l-14.843775749206543,-5.395999908447266 l-37.917518615722656,30.70400047302246 c-4.097458839416504,3.316999912261963 -9.63884162902832,4.244999885559082 -14.59744644165039,2.444000005722046 l-278.0524597167969,-101.06800079345703 c-31.37279510498047,-11.404000282287598 -65.31401062011719,-9.923999786376953 -95.5713119506836,4.166999816894531 c-3.0941219329833984,1.440999984741211 -5.4422502517700195,4 -6.610807418823242,7.204999923706055 c-2.4092094898223877,6.616000175476074 1.0183565616607666,13.956999778747559 7.642181396484375,16.36400032043457 z" id="svg_2" transform="rotate(-0.245917, 257.682, 257.84)" class="selected"/></g></svg>