<?xml version="1.0" encoding="iso-8859-1"?>
<!-- Generator: Adobe Illustrator 19.0.0, SVG Export Plug-In . SVG Version: 6.00 Build 0)  -->
<svg version="1.1" id="Layer_1" xmlns="http://www.w3.org/2000/svg" x="0px" y="0px"
     viewBox="0 0 512 512" style="enable-background:new 0 0 512 512;" xml:space="preserve">
<path style="fill:#FF5200;" d="M434.087,33.391v311.652c0,18.441-14.95,33.391-33.391,33.391c-18.441,0-33.391-14.95-33.391-33.391
	V33.391C367.304,14.95,382.255,0,400.696,0C419.137,0,434.087,14.95,434.087,33.391z M400.696,411.826
	c-18.442,0-33.391,14.95-33.391,33.391s14.949,33.391,33.391,33.391c18.441,0,33.391-14.95,33.391-33.391
	S419.137,411.826,400.696,411.826z"/>
<path style="fill:#CC0000;" d="M434.087,33.391v311.652c0,18.441-14.95,33.391-33.391,33.391c-6.084,0-11.783-1.635-16.696-4.478
	c9.977-5.774,16.696-16.557,16.696-28.914V33.391c0-12.357-6.718-23.139-16.696-28.914C388.913,1.635,394.612,0,400.696,0
	C419.137,0,434.087,14.95,434.087,33.391z M410.391,413.261c0.929,3.069,1.435,6.323,1.435,9.696
	c0,18.441-14.95,33.391-33.391,33.391c-3.372,0-6.627-0.505-9.696-1.435c4.155,13.712,16.887,23.696,31.957,23.696
	c18.441,0,33.391-14.95,33.391-33.391C434.087,430.148,424.103,417.416,410.391,413.261z"/>
<path style="fill:#A5A8A0;" d="M222.609,503.652c0,4.61-3.738,8.348-8.348,8.348H91.826c-4.61,0-8.348-3.738-8.348-8.348
	s3.738-8.348,8.348-8.348h122.435C218.871,495.304,222.609,499.042,222.609,503.652z M459.13,495.304H325.565
	c-4.61,0-8.348,3.738-8.348,8.348s3.738,8.348,8.348,8.348H459.13c4.61,0,8.348-3.738,8.348-8.348S463.741,495.304,459.13,495.304z
	 M58.435,495.304h-1.113c-4.61,0-8.348,3.738-8.348,8.348S52.712,512,57.322,512h1.113c4.61,0,8.348-3.738,8.348-8.348
	S63.045,495.304,58.435,495.304z M503.652,495.304h-1.113c-4.61,0-8.348,3.738-8.348,8.348s3.738,8.348,8.348,8.348h1.113
	c4.61,0,8.348-3.738,8.348-8.348S508.262,495.304,503.652,495.304z M9.461,495.304H8.348c-4.61,0-8.348,3.738-8.348,8.348
	S3.738,512,8.348,512h1.113c4.61,0,8.348-3.738,8.348-8.348S14.071,495.304,9.461,495.304z M293.287,495.304h-1.113
	c-4.61,0-8.348,3.738-8.348,8.348s3.738,8.348,8.348,8.348h1.113c4.61,0,8.348-3.738,8.348-8.348S297.897,495.304,293.287,495.304z
	 M248.765,495.304h-1.113c-4.61,0-8.348,3.738-8.348,8.348s3.738,8.348,8.348,8.348h1.113c4.61,0,8.348-3.738,8.348-8.348
	S253.375,495.304,248.765,495.304z"/>
<path style="fill:#28749E;" d="M318.556,151.542c0.412,29.599-7.614,58.458-23.211,83.457
	c-15.139,24.264-36.663,43.798-62.248,56.491c-20.685,10.262-33.832,30.611-34.798,53.554c-0.038,0.904-0.057,0-0.057,0
	c0,18.441-14.95,33.391-33.391,33.391c-18.316,0-33.181-14.749-33.382-33.018c0.004,0.063,0.011,0.014,0.019-0.374
	c0.485-23.199,7.17-45.814,19.405-65.567c12.725-20.545,30.888-37.077,52.525-47.811c29.843-14.805,48.826-45.891,48.363-79.194
	c-0.649-46.595-39.085-85.032-85.681-85.68c-23.447-0.344-45.595,8.56-62.29,25.025c-16.698,16.469-25.895,38.453-25.895,61.904
	c0,18.441-14.95,33.391-33.391,33.391S11.13,172.161,11.13,153.72c0-41.464,16.26-80.336,45.786-109.454
	c29.521-29.113,68.627-44.81,110.112-44.25c40.087,0.558,77.88,16.58,106.414,45.113
	C301.976,73.662,317.999,111.455,318.556,151.542z M131.468,345.416c-0.001-0.125-0.009-0.248-0.009-0.373
	C131.459,345.043,131.463,345.333,131.468,345.416z M166.957,411.826c-18.442,0-33.391,14.95-33.391,33.391
	s14.949,33.391,33.391,33.391c18.441,0,33.391-14.95,33.391-33.391S185.397,411.826,166.957,411.826z"/>
<path style="fill:#2C4D67;" d="M285.168,152.007c0.642,46.078-25.622,89.088-66.912,109.571
	c-16.055,7.965-29.532,20.234-38.977,35.482c-9.066,14.634-14.048,31.469-14.408,48.682c-0.277,13.198-7.238,23.006-16.41,28.39
	c-10.045-5.672-16.858-16.39-16.993-28.717c0.004,0.063,0.011,0.014,0.019-0.374c0.485-23.199,7.17-45.814,19.405-65.567
	c12.725-20.545,30.888-37.077,52.525-47.811c29.843-14.805,48.826-45.891,48.363-79.194c-0.649-46.595-39.085-85.032-85.681-85.68
	c-23.447-0.344-45.595,8.56-62.29,25.025c-16.699,16.47-25.896,38.455-25.896,61.905c0,18.441-14.95,33.391-33.391,33.391
	c-12.353,0-23.13-6.713-28.906-16.683c5.781-9.977,16.569-16.708,28.906-16.708c0-32.457,12.729-62.886,35.841-85.68
	c23.151-22.829,53.811-35.112,86.23-34.638C231.081,34.307,284.27,87.511,285.168,152.007z M131.468,345.416
	c-0.001-0.125-0.009-0.248-0.009-0.373C131.459,345.043,131.463,345.333,131.468,345.416z M176.652,413.261
	c0.929,3.069,1.435,6.323,1.435,9.696c0,18.441-14.95,33.391-33.391,33.391c-3.373,0-6.627-0.505-9.696-1.435
	c4.155,13.712,16.888,23.696,31.957,23.696c18.441,0,33.391-14.95,33.391-33.391C200.348,430.148,190.364,417.416,176.652,413.261z"
	/>
<path style="fill:#FFFFFF;" d="M297.739,155.826c0,4.61-3.738,8.348-8.348,8.348s-8.348-3.738-8.348-8.348
	c0-50.812-34.104-95.957-82.934-109.784c-4.435-1.256-7.013-5.87-5.758-10.307c1.257-4.435,5.872-7.012,10.307-5.758
	C258.641,45.831,297.739,97.582,297.739,155.826z M167.841,25.046l-0.885-0.002c-4.61,0-8.348,3.738-8.348,8.348
	c0,4.61,3.738,8.348,8.348,8.348l0.787,0.002c0.017,0,0.033,0,0.05,0c4.587,0,8.32-3.705,8.347-8.299
	C176.167,28.832,172.452,25.074,167.841,25.046z M406.261,25.043c-4.61,0-8.348,3.738-8.348,8.348v66.783
	c0,4.61,3.738,8.348,8.348,8.348c4.61,0,8.348-3.738,8.348-8.348V33.391C414.609,28.781,410.871,25.043,406.261,25.043z
	 M406.261,122.691c-4.61,0-8.348,3.738-8.348,8.348v1.113c0,4.61,3.738,8.348,8.348,8.348c4.61,0,8.348-3.738,8.348-8.348v-1.113
	C414.609,126.428,410.871,122.691,406.261,122.691z"/>
<g>
</g>
<g>
</g>
<g>
</g>
<g>
</g>
<g>
</g>
<g>
</g>
<g>
</g>
<g>
</g>
<g>
</g>
<g>
</g>
<g>
</g>
<g>
</g>
<g>
</g>
<g>
</g>
<g>
</g>
</svg>
