<svg viewBox="0 0 64 64" id="default-avatar" xmlns="http://www.w3.org/2000/svg">
  <g stroke="none" stroke-width="1" fill="none" fill-rule="evenodd">
    <g transform="translate(1.000000, 1.000000)">
      <circle stroke="#FFFFFF" stroke-width="2" fill="#EBF0F2" cx="31" cy="31" r="31"/>
      <path d="M53.4970981,50.8469703 C48.0000863,57.0732206 39.9586174,61 31,61 C22.0420358,61 14.0010864,57.0737932 8.50410436,50.8483322 C8.92712582,50.6389759 9.35902165,50.468851 9.79393236,50.3445908 L22.1240719,46.8216937 C23.6863559,46.3753269 25,44.6568542 25,43 L25,41.39189 C26.7650402,42.4146278 28.8142771,43 31,43 C33.1837446,43 35.2336343,42.4133581 37,41.3885283 L37,43 C37,44.6684055 38.2875969,46.3678848 39.8759281,46.8216937 L52.2060676,50.3445908 C52.6420336,50.4691525 53.0742555,50.6387441 53.4970981,50.8469703 Z" fill="#A0A9AD"/>
      <path d="M19,18.3215077 C19,12.0688116 24.3860685,7 31,7 C37.627417,7 43,12.0901435 43,18.3215077 L43,29.6784923 C43,35.9311884 37.6139315,41 31,41 C24.372583,41 19,35.9098565 19,29.6784923 L19,18.3215077 Z" fill="#A0A9AD"/>
      <path d="M17.5,24 C17.5,22.3431458 18.8389342,21 20.4926339,21 L41.5073661,21 C43.1601521,21 44.5,22.3315945 44.5,24 C44.5,25.6568542 43.1610658,27 41.5073661,27 L20.4926339,27 C18.8398479,27 17.5,25.6684055 17.5,24 Z" fill="#A0A9AD"/>
    </g>
  </g>
</svg>
