<?xml version="1.0"?>
<svg xmlns="http://www.w3.org/2000/svg" version="1.1" id="Capa_1" x="0px" y="0px" viewBox="0 0 512.001 512.001"
     style="enable-background:new 0 0 512.001 512.001;" xml:space="preserve" width="512px" height="512px" class=""><g><path style="fill:#8C2943;" d="M406.997,220.365L406.997,220.365l-16.012-40.774c-7.27-21.001-12.567-42.626-15.825-64.605  c-9.681-58.833-51.852-91.974-119.156-91.974s-109.475,33.14-118.97,91.974c-3.277,21.997-8.639,43.622-16.012,64.605  l-16.384,40.774l0,0c-11.338,24.464-9.802,52.95,4.096,76.055l14.243,23.738c7.633,12.744,11.655,27.322,11.636,42.17v70.284  h242.036v-70.284c-0.019-14.848,4.003-29.426,11.636-42.17l14.243-23.738C416.501,273.371,418.168,244.904,406.997,220.365z" data-original="#8C2943" class=""/><path style="fill:#A3455D;" d="M359.241,413.994h17.78v-18.618h-17.687l0,0v-17.687h17.687V358.14h-17.687l0,0v-18.618h17.687   M377.952,339.521v-17.687h10.426v-0.931l7.354-12.102v-5.213h2.886l3.537-5.958c2.737-4.413,5.018-9.086,6.796-13.964h-12.474l0,0  V265.98h17.222c0.745-6.181,0.745-12.437,0-18.618h-17.222v-17.687 M396.477,229.674h13.126c-0.931-2.513-1.862-5.12-2.979-7.54l0,0  l-3.724-12.94h-6.423v-16.849l-1.117-1.769h-17.501v-18.618h-18.618V153.34h-18.618v-18.618h-18.618v18.618h-17.687v-18.618h-18.618  v-18.618h-18.618v18.618l0,0h-17.687v-18.618h-18.618v18.618h-18.618v18.618H194.47l0,0v-18.618h-18.618v18.618h-18.618v18.618  h-18.618v18.618h-18.618v18.618h-7.168l-4.468,11.078l0,0c-1.117,2.42-2.048,5.027-2.979,7.54h14.243 M119.625,228.278v18.153  h-18.618v18.618h17.967v18.618l0,0h-15.919c1.601,4.403,3.621,8.648,6.051,12.66l3.537,5.958h3.631v6.33l6.609,10.985v1.303h11.171  v18.618l0,0 M134.985,339.521h17.687v18.618l0,0h-17.687 M134.054,358.14L134.054,358.14v18.618l0,0 M134.52,376.758h17.687v18.618  l0,0H134.52l0,0v18.618l0,0 M134.985,413.994h17.687v18.618h18.618v-18.618 M171.29,413.994h17.687v18.618h18.618v-18.618   M208.061,413.994h17.687v18.618h18.618v-18.618 M244.832,413.994h17.687 M262.52,413.994v18.618h18.618v-18.618h17.687   M299.29,413.994v18.618h18.618v-18.618h17.687 M335.596,413.994v18.618h18.618v-18.618H335.596z M358.31,376.758h-17.687l0,0  v-17.687h17.687V376.758z M190.746,283.667h-17.687l0,0V265.98 M173.525,265.98h17.687v18.618l0,0L173.525,265.98z M191.212,303.216  v18.618l0,0h-17.687l0,0v-18.618 M191.212,283.667h17.687v18.618l0,0h-17.687l0,0V283.667z M190.746,264.118v-17.687   M191.212,245.965h17.687 M208.899,246.431v18.618l0,0h-17.687l0,0L208.899,246.431z M209.83,302.285h17.687v18.618l0,0H209.83l0,0  V302.285z M227.983,283.667h-17.687l0,0V265.98 M210.761,265.98h17.687v18.618l0,0L210.761,265.98z M228.914,284.598h17.687v18.618  l0,0h-17.687l0,0V284.598z M228.448,265.049v-18.618 M228.914,245.965h17.687 M246.601,246.431v18.618l0,0h-17.687l0,0  L246.601,246.431z M247.532,302.285h17.687 M265.685,302.285v18.618h-17.687l0,0L265.685,302.285z M265.219,283.667h-17.687l0,0  V265.98 M247.997,265.98h17.687 M266.15,265.98v18.618l0,0V265.98z M266.15,247.361L266.15,247.361h-17.687v-18.618   M265.685,246.431h17.687 M283.837,246.896v18.153H266.15l0,0v-17.687L283.837,246.896z M265.219,284.132h17.687 M283.372,284.132  v18.618h-17.687l0,0L283.372,284.132z M283.372,302.751h17.687 M301.525,302.751v18.618h-17.687l0,0L301.525,302.751z   M301.525,284.132h-17.687l0,0V265.98h17.687 M301.525,265.98v17.687l0,0V265.98z M301.525,246.431L301.525,246.431h-17.687v-17.687   M302.921,246.431h17.687 M321.074,246.896v18.153h-17.687l0,0v-17.687L321.074,246.896z M302.456,284.132h17.687 M320.608,284.132  v18.618h-17.687l0,0L320.608,284.132z M320.608,302.751h17.687 M338.761,302.751v18.618h-17.687l0,0L338.761,302.751z   M338.761,284.132h-17.687l0,0V265.98h17.687 M338.761,265.98v17.687l0,0V265.98z M338.761,284.132h17.687 M356.914,284.132v18.618  h-17.687l0,0L356.914,284.132z M356.914,265.514h-17.687l0,0v-18.153 M339.226,246.896h17.687 M356.914,247.361v17.687l0,0V247.361z   M356.914,265.514h17.687 M375.066,265.514v18.618h-17.687l0,0L375.066,265.514z M375.066,246.896h-17.687v-18.153 M357.379,228.278  h17.687 M375.066,228.743v17.687l0,0V228.743z M356.448,227.812L356.448,227.812h-17.687v-17.687 M340.157,209.194L340.157,209.194  H322.47v-17.687 M321.539,227.812h17.687 M339.692,228.278v18.153h-17.687v-17.687L339.692,228.278z M321.074,227.812  L321.074,227.812h-17.687v-17.687 M302.921,209.194L302.921,209.194h-17.687v-17.687 M284.303,190.576L284.303,190.576h-17.687  v-17.687 M265.685,209.194h17.687 M283.837,209.66v18.153H266.15v-17.687L283.837,209.66z M265.219,209.194L265.219,209.194h-17.687  v-17.687 M247.066,190.576h-17.687v-17.687 M228.914,209.194h17.687 M246.601,209.66v18.153h-17.687v-17.687L246.601,209.66z   M228.448,209.194h-17.687v-17.687 M210.296,227.812h17.687 M227.983,228.278v18.153h-17.687v-17.687L227.983,228.278z   M209.83,227.812h-17.687v-17.687 M191.677,209.194H173.99v-17.687 M173.059,227.812h17.687 M190.746,228.278v18.153h-17.687  v-17.687L190.746,228.278z M172.594,227.812h-17.687v-17.687 M154.441,246.431h17.687 M172.128,246.896v18.153l0,0h-17.687l0,0  v-17.687L172.128,246.896z M153.976,246.431h-17.687v-17.687 M135.823,265.049h17.687v18.618l0,0h-17.687l0,0V265.98V265.049z   M154.441,283.667h17.687v18.618l0,0h-17.687l0,0V283.667z M154.441,320.903h17.687v18.618l0,0h-17.687l0,0v-17.687V320.903z   M173.059,339.521h17.687v18.618l0,0h-17.687l0,0V339.521z M191.677,358.14h17.687v18.618l0,0h-17.687l0,0V358.14z M209.83,339.521  h-17.687l0,0v-17.687 M192.608,321.834h17.687v18.618h-0.465L192.608,321.834z M210.761,340.452h17.687v18.618l0,0h-17.687l0,0  V340.452z M229.379,359.071h17.687v18.618l0,0h-17.687l0,0V359.071z M247.532,340.452h-17.687l0,0v-17.687 M230.31,322.765h17.687  v18.618h-0.465L230.31,322.765z M248.463,341.383h17.687 M266.15,341.383v18.618l0,0h-17.687l0,0L266.15,341.383z M266.15,360.001  h17.687 M284.303,360.001v18.618h-17.687l0,0L284.303,360.001z M284.303,341.383h-17.687l0,0v-17.687h17.687 M284.303,323.696  v18.618l0,0V323.696z M284.303,342.314h17.687 M302.456,342.314v18.618h-17.687l0,0L302.456,342.314z M302.456,360.932h17.687   M320.608,360.932v18.618h-17.687l0,0L320.608,360.932z M320.608,342.314h-17.687l0,0v-17.687h17.687 M320.608,324.627v18.618l0,0  V324.627z M320.608,343.245h17.687 M338.761,343.245v18.618h-17.687l0,0L338.761,343.245z M357.379,342.314h-17.687v-21.411h17.687  V342.314z M375.997,323.696H358.31v-21.411h17.687V323.696z M394.616,305.078h-17.687v-21.411h17.687V305.078z M394.616,267.841  h-17.687v-21.411 M376.463,208.729h17.687 M394.616,209.194v18.618h-17.687v-17.687L394.616,209.194z M357.379,190.111h17.687   M375.532,190.576v18.618h-17.687v-17.687L375.532,190.576z M338.296,171.492h17.687 M356.448,171.958v18.618h-17.687v-17.687  L356.448,171.958z M319.212,152.874h17.687 M337.365,153.34v18.618h-17.687L337.365,153.34z M300.128,171.492h17.687   M318.281,171.958v18.618h-17.687v-17.687L318.281,171.958z M281.045,152.874h17.687 M299.197,153.34v18.618H281.51v-17.687  L299.197,153.34z M261.961,134.256h17.687 M280.114,134.721v18.618h-17.687L280.114,134.721z M242.877,152.874h17.687   M261.03,153.34v18.618h-17.687v-17.687L261.03,153.34z M223.794,134.256h17.687 M241.481,134.721v18.618h-17.687L241.481,134.721z   M209.83,153.34h17.687 M227.517,153.805v18.618H209.83L227.517,153.805z M191.677,172.423h17.687 M209.365,172.889v17.687h-17.687  v-17.687H209.365z M173.059,153.34h17.687 M190.746,153.805v18.153h-17.687L190.746,153.805z M154.441,171.958h17.687   M172.128,172.423v18.153h-17.687L172.128,172.423z M135.823,190.576h17.687 M153.51,191.041v18.153h-17.687L153.51,191.041z   M117.205,209.194h17.687 M134.892,209.66v18.153h-17.687L134.892,209.66z M117.205,246.431h17.687 M134.892,246.896v18.153l0,0  h-17.687l0,0L134.892,246.896z M135.357,302.751H117.67l0,0v-18.153 M118.136,284.598h17.687v17.687h-0.465L118.136,284.598z   M154.441,321.369h-17.687l0,0v-18.153 M137.219,303.216h17.687v17.687h-0.465L137.219,303.216z M155.372,358.605h17.687v18.618l0,0  h-17.687l0,0V358.605z M172.594,413.994L172.594,413.994h-17.687l0,0v-17.687 M191.677,396.307H173.99l0,0V378.62 M174.456,378.62  h17.687v18.618h-0.465L174.456,378.62z M210.761,414.925L210.761,414.925h-17.687l0,0v-17.687 M229.845,397.238h-17.687l0,0v-17.687   M212.623,379.551h17.687v18.618h-0.465L212.623,379.551z M248.928,415.856L248.928,415.856h-17.687l0,0v-17.687 M267.546,398.169  h-17.687l0,0v-17.687 M250.325,380.481h17.687 M268.012,380.481V399.1l0,0V380.481z M286.63,417.718L286.63,417.718h-17.687l0,0  v-21.411h17.687V417.718z M305.248,399.1h-17.687l0,0v-17.687h17.687 M305.248,381.412v18.618l0,0V381.412z M323.866,418.649  L323.866,418.649h-17.687l0,0v-22.342h17.687V418.649z M342.485,400.031h-17.687l0,0v-17.687h17.687 M342.485,382.343v18.618l0,0  V382.343z M361.103,419.58h-17.687l0,0v-17.687h17.687 M361.103,401.892v18.618l0,0V401.892z" data-original="#A3455D" class=""/><path style="fill:#F9DFCC" d="M498.04,414.832c-4.022-21.243-20.648-37.869-41.891-41.891l-134.982-24.111v-46.545H190.84v46.545  L55.858,372.941c-21.243,4.022-37.869,20.648-41.891,41.891l-4.655,23.273c157.379,68.236,336.002,68.236,493.382,0L498.04,414.832z  " data-original="#D8AB8D" class="active-path" data-old_color="#F9E5D6"/><polygon style="fill:#FBE8D9" points="190.84,330.305 283.93,386.16 321.167,386.16 321.167,302.378 190.84,302.378 " data-original="#D2A385" class="" data-old_color="#F6E3D4"/><path style="fill:#D5E7E5" d="M498.04,414.832c-4.022-21.243-20.648-37.869-41.891-41.891l-134.982-24.111  c-34.444,35.989-91.546,37.236-127.535,2.793l-2.793-2.793L55.858,372.941c-21.243,4.022-37.869,20.648-41.891,41.891l-4.655,23.273  c157.379,68.236,336.002,68.236,493.382,0L498.04,414.832z" data-original="#D5E7E5" class=""/><path style="fill:#E6EDEC;" d="M498.04,414.832c-4.022-21.243-20.648-37.869-41.891-41.891l-134.982-24.111  c-0.047,19.316,13.619,35.952,32.582,39.657l102.4,19.456c18.274,3.51,33.327,16.44,39.564,33.978l6.982-3.351L498.04,414.832z" data-original="#E6EDEC" class=""/><path style="fill:#EDF7F6;" d="M55.858,372.941c-21.243,4.022-37.869,20.648-41.891,41.891l-4.655,23.273l6.982,3.258  c6.246-17.427,21.346-30.171,39.564-33.42l102.4-19.642c18.916-3.659,32.573-20.21,32.582-39.471L55.858,372.941z" data-original="#EDF7F6" class=""/><g>
	<path style="fill:#333333;" d="M256.003,498.297c-85.411,0-170.831-17.25-250.396-51.749c-4.022-1.741-6.284-6.06-5.427-10.361   l4.655-23.273c4.748-25.079,24.101-44.432,49.282-49.208c5.623-1.396,23.459-4.338,46.024-8.034   c30.711-5.046,68.934-11.329,88.585-15.9c4.99-1.229,10.017,1.946,11.18,6.954c1.164,5.008-1.946,10.007-6.963,11.171   c-20.247,4.72-58.796,11.059-89.786,16.133c-21.29,3.5-39.666,6.516-45.075,7.857c-18.106,3.444-31.642,16.98-34.974,34.593   l-3.184,15.937c150.463,63.032,321.685,63.032,472.157,0l-3.174-15.844c-3.351-17.697-16.887-31.232-34.499-34.574   c-5.26-1.294-24.343-4.459-44.544-7.81c-31.083-5.157-69.772-11.571-90.736-16.272c-5.018-1.126-8.173-6.097-7.047-11.115   c1.126-5.008,6.125-8.155,11.115-7.047c20.452,4.58,58.852,10.957,89.712,16.077c22.351,3.705,40.01,6.637,45.484,7.987   c24.66,4.664,44.023,24.017,48.789,49.189l4.636,23.18c0.866,4.301-1.396,8.63-5.427,10.361   C426.834,481.048,341.423,498.297,256.003,498.297z" data-original="#333333" class=""/>
	<rect x="181.53" y="311.687" style="fill:#333333;" width="18.618" height="37.236" data-original="#333333" class=""/>
	<rect x="311.858" y="311.687" style="fill:#333333;" width="18.618" height="37.236" data-original="#333333" class=""/>
</g><path style="fill:#F9DFCC" d="M358.496,164.976v-23.273c0-59.113-30.627-100.073-102.4-100.073s-102.4,40.96-102.4,100.073v23.273  c-17.873,0-21.318,17.408-17.129,37.236c3.537,16.291,12.381,39.564,26.438,39.564v23.273c0,21.411,29.603,53.62,60.416,69.818  c10.417,3.835,21.504,5.483,32.582,4.841c10.314,0.642,20.648-1.005,30.255-4.841c30.906-16.198,62.929-48.407,62.929-69.818  v-23.273c13.964,0,24.297-22.993,27.927-39.471C381.676,182.384,376.277,165.441,358.496,164.976z" data-original="#D8AB8D" class="active-path" data-old_color="#F9E5D6"/><path style="fill:#FBE8D9" d="M358.496,164.976v-23.273c0-59.113-30.627-100.073-102.4-100.073h-12.195  c-14.522,52.969-34.257,126.604-34.444,198.842c0,18.618,1.117,55.855,3.258,87.599c3.444,2.458,7.019,4.729,10.705,6.796  c10.417,3.835,21.504,5.483,32.582,4.841c10.314,0.642,20.648-1.005,30.255-4.841c30.906-16.198,62.929-48.407,62.929-69.818  v-23.273c13.964,0,24.297-22.993,27.927-39.471C381.676,182.384,376.277,165.441,358.496,164.976z" data-original="#D2A385" class="" data-old_color="#F6E3D4"/><g>
	<path style="fill:#333333;" d="M251.246,349.147c-10.584,0-21.001-1.853-31.027-5.548c-0.391-0.14-0.763-0.307-1.126-0.503   c-31.446-16.524-65.396-51.07-65.396-78.057v-16.114c-15.267-7.317-24.427-31.567-27.722-46.899   c-3.398-15.481-1.648-28.095,5.073-36.445c2.579-3.202,6.786-6.842,13.34-8.695v-15.183c0-69.511,40.718-109.382,111.709-109.382   s111.709,39.871,111.709,109.382v15.332c6.805,2.001,11.115,5.846,13.712,9.197c6.516,8.397,8.136,20.815,4.673,35.914   c-2.793,14.168-11.86,39.387-27.695,46.825v16.077c0,26.224-35.254,60.947-67.919,78.066c-0.279,0.149-0.577,0.279-0.875,0.4   c-10.64,4.236-22.258,6.088-33.718,5.52C254.402,349.119,252.82,349.147,251.246,349.147z M227.201,326.34   c9.114,3.258,18.609,4.617,28.262,4.077c0.382-0.019,0.745-0.019,1.126,0c8.732,0.586,17.641-0.838,25.786-4.022   c29.631-15.677,57.512-45.382,57.512-61.347v-23.273c0-5.139,4.161-9.309,9.309-9.309c5.306,0,15.22-16.095,18.795-34.202   c2.169-9.477,1.722-16.887-1.173-20.62c-0.614-0.791-2.486-3.202-8.555-3.361c-5.046-0.13-9.067-4.264-9.067-9.309v-23.273   c0-41.407-16.151-90.764-93.091-90.764s-93.091,49.357-93.091,90.764v23.273c0,5.139-4.17,9.309-9.309,9.309   c-5.753,0-7.55,2.234-8.145,2.96c-2.923,3.649-3.444,11.432-1.387,20.824c3.984,18.544,13.684,34.388,18.832,34.388   c5.139,0,9.309,4.17,9.309,9.309v23.273C172.314,281.619,198.911,311.259,227.201,326.34z" data-original="#333333" class=""/>
	<path style="fill:#333333;" d="M255.947,385.974c-25.749,0-50.092-9.756-68.757-27.62l-2.932-2.932l13.163-13.163l2.793,2.793   c32.088,30.701,83.391,29.584,114.232-2.644l13.452,12.874c-18.385,19.205-43.138,30.096-69.716,30.683   C257.437,385.974,256.692,385.974,255.947,385.974z" data-original="#333333" class=""/>
	<path style="fill:#333333;" d="M339.785,218.503c0,43.939-36.026,58.182-46.545,65.164v4.655c0,5.139-4.17,9.309-9.309,9.309   h-5.492c-2.439-0.009-4.785-0.977-6.516-2.7l-3.91-3.817c-1.722-1.75-4.059-2.755-6.516-2.793h-10.985   c-2.458,0.037-4.794,1.043-6.516,2.793l-3.91,3.817c-1.731,1.722-4.077,2.69-6.516,2.7h-5.492c-5.139,0-9.309-4.17-9.309-9.309   v-4.655c-9.309-6.144-46.545-20.666-46.545-65.164h-9.309v59.578c12.381,24.204,58.461,61.44,85.178,61.44h15.825   c26.717,0,72.797-37.236,85.178-61.626v-59.392H339.785z" data-original="#333333" class=""/>
	<path style="fill:#333333;" d="M256.003,416.321c-3.854,0-6.982-3.128-6.982-6.982v-4.655c0-3.854,3.128-6.982,6.982-6.982   c3.854,0,6.982,3.128,6.982,6.982v4.655C262.985,413.194,259.857,416.321,256.003,416.321z" data-original="#333333" class=""/>
	<path style="fill:#333333;" d="M256.003,453.558c-3.854,0-6.982-3.128-6.982-6.982v-4.655c0-3.854,3.128-6.982,6.982-6.982   c3.854,0,6.982,3.128,6.982,6.982v4.655C262.985,450.43,259.857,453.558,256.003,453.558z" data-original="#333333" class=""/>
	<path style="fill:#333333;" d="M256.003,490.887c-3.854,0-6.982-3.128-6.982-6.982v-4.655c0-3.854,3.128-6.982,6.982-6.982   c3.854,0,6.982,3.128,6.982,6.982v4.655C262.985,487.759,259.857,490.887,256.003,490.887z" data-original="#333333" class=""/>
	<path style="fill:#333333;" d="M330.476,50.94c-8.006-17.967-18.618-27.927-74.473-27.927c-83.782,0-121.018,55.855-121.018,102.4   s27.927,46.545,27.927,65.164h9.309v-27.927c74.473-1.583,80.524-55.855,121.018-55.855c10.017,0.326,19.717,3.565,27.927,9.309   v20.201c0,4.962,1.974,9.719,5.492,13.219l13.126,13.126v27.927h9.309c0-18.618,27.927-18.618,27.927-65.164   S348.722,50.94,330.476,50.94z" data-original="#333333" class=""/>
</g><path style="fill:#D05A6B;" d="M390.985,181.267c-7.298-21.169-12.539-42.989-15.639-65.164  c-9.309-58.833-51.665-91.974-118.97-91.974s-109.475,33.42-118.97,91.974c-3.165,22.184-8.471,44.004-15.825,65.164l-16.57,40.774  c3.1-6.684,7.038-12.94,11.729-18.618l49.245-59.392c4.198-5.018,10.398-7.913,16.943-7.913h15.081  c7.485,0.093,14.494-3.621,18.618-9.868l5.585-8.285c4.236-6.042,11.236-9.551,18.618-9.309h32.303  c7.373-0.205,14.355,3.286,18.618,9.309l5.585,8.285c4.124,6.246,11.134,9.961,18.618,9.868h15.174  c6.544,0,12.744,2.895,16.943,7.913l49.245,59.02c4.692,5.679,8.63,11.934,11.729,18.618L390.985,181.267z" data-original="#D05A6B" class=""/><path style="fill:#E39CA6" d="M359.241,134.721L359.241,134.721v-17.687 M359.241,116.569h16.105  c-1.117-6.293-2.607-12.511-4.468-18.618h-12.102v18.618l0,0h-17.687V98.881 M341.088,98.416h18.618V78.867h-18.618V60.249H322.47  V41.631h-18.618V30.832c-6.097-1.862-12.316-3.258-18.618-4.189v14.988h-18.618V24.688h-18.618v16.943h-18.153V26.643  c-6.302,0.931-12.521,2.327-18.618,4.189v10.799h-18.618v18.618H173.99v18.618h-18.618v18.618h-13.498  c-1.862,6.107-3.351,12.325-4.468,18.618h16.105 M153.51,116.569v18.153h-18.618v18.618h18.618v-18.06 M153.976,135.28h18.153  v-18.618 M172.594,116.662h17.687 M190.281,116.662v18.06h18.618v-18.06 M208.899,116.662h14.522  c1.424-1.666,3.081-3.109,4.934-4.282V98.044 M228.355,97.578h18.618V79.425 M246.973,78.96h17.687 M265.126,79.425v18.06h18.153   M283.744,97.951v13.871c1.825,1.173,3.454,2.616,4.841,4.282h13.312 M302.362,116.569v18.153h18.618v-18.06 M320.981,116.662  h17.687 M338.668,116.662v18.06h18.618 M357.286,135.187v18.153h18.618v-18.618L357.286,135.187z M302.456,60.714h17.687   M320.143,61.18v17.687h-16.756V61.18H320.143z M284.768,41.631h17.687 M302.456,42.096v18.153h-17.687L302.456,42.096z   M210.761,41.631h17.687 M228.448,42.096v18.153h-18.153L228.448,42.096z M192.143,60.249h17.687 M209.83,60.714v18.153h-18.153  L209.83,60.714z M173.059,116.103h-18.153V98.416 M173.525,97.485h-0.465V79.798 M173.525,79.332h17.687 M191.212,79.798v17.687l0,0  V79.798z M209.83,116.103h-18.153V98.416 M192.143,97.951h17.687 M209.83,98.416v17.687V98.416z M228.448,97.485h-18.153V79.798   M247.066,78.867h-18.153V61.18 M265.219,60.249h-18.618V42.096 M247.532,41.631h17.687 M265.219,42.096v18.153l0,0V42.096z   M283.837,78.401H266.15V60.714 M266.15,60.249h17.687 M283.837,60.714v18.153l0,0V60.714z M302.456,97.02h-17.687V79.332   M284.768,78.867h17.687 M302.456,79.332v18.153l0,0V79.332z M321.074,115.638h-17.687V97.951 M339.692,97.02h-17.687V79.332   M322.005,78.867h17.687 M339.692,79.332v18.153l0,0V79.332z" data-original="#E39CA6" class=""/><g>
	<path style="fill:#333333;" d="M398.73,223.837l-16.384-40.774c-7.587-21.867-13.051-44.172-16.403-66.709   c-8.899-54.132-47.96-84.033-109.94-84.033c-62.036,0-101.022,29.882-109.773,84.145c-3.333,22.407-8.872,44.721-16.421,66.206   l-16.524,41.155l-17.278-6.926l16.384-40.774c7.019-19.996,12.26-41.155,15.444-62.511c10.249-63.535,56.962-99.914,128.168-99.914   c71.131,0,117.909,36.361,128.335,99.766c3.202,21.541,8.388,42.71,15.444,63.069l16.216,40.355L398.73,223.837z" data-original="#333333" class=""/>
	<path style="fill:#333333;" d="M367.712,70.116H144.294c-5.399,0-9.775-4.375-9.775-9.775s4.375-9.775,9.775-9.775h223.418   c5.399,0,9.775,4.375,9.775,9.775S373.112,70.116,367.712,70.116z" data-original="#333333" class=""/>
	<path style="fill:#333333;" d="M377.021,88.735H134.985c-5.399,0-9.775-4.375-9.775-9.775c0-5.399,4.375-9.775,9.775-9.775h242.036   c5.399,0,9.775,4.375,9.775,9.775S382.421,88.735,377.021,88.735z" data-original="#333333" class=""/>
	<path style="fill:#333333;" d="M367.712,362.338c-0.019-16.524,4.459-32.768,12.958-46.964l14.252-23.747   c15.937-26.456,13.359-60.127-6.423-83.819l-49.254-59.122c-2.439-2.942-6.014-4.636-9.84-4.655h-15.034   c-10.175,0.41-20.145-4.655-26.214-13.238l-5.697-8.471c-2.448-3.686-6.405-5.976-10.78-5.762h-31.781   c-4.617-0.214-8.462,2.067-10.854,5.688l-5.632,8.36c-6.2,8.751-15.965,13.666-26.596,13.405h-14.262c0,0,0,0-0.009,0   c-3.789,0-7.363,1.666-9.793,4.58l-49.226,59.187c-19.791,23.701-22.379,57.381-6.442,83.819l14.252,23.757   c8.499,14.187,12.977,30.431,12.968,46.974l-18.618-0.019c0.009-13.163-3.556-26.093-10.314-37.385l-14.234-23.729   c-20.024-33.215-16.775-75.562,8.099-105.342l49.236-59.187c5.995-7.168,14.764-11.264,24.083-11.264c0,0,0.009,0,0.019,0h14.522   c4.496,0.168,8.546-1.89,11.022-5.381l5.464-8.118c5.846-8.862,15.723-13.898,26.456-13.973h31.53   c10.566,0.009,20.499,5.111,26.391,14.057l5.53,8.211c2.346,3.305,6.023,5.399,10.65,5.204h15.332   c9.384,0.047,18.153,4.189,24.111,11.366l49.236,59.103c24.855,29.78,28.113,72.118,8.08,105.351l-14.234,23.72   c-6.758,11.292-10.324,24.222-10.305,37.376L367.712,362.338z" data-original="#333333" class=""/>
	<circle style="fill:#333333;" cx="212.064" cy="197.167" r="9.309" data-original="#333333" class=""/>
	<circle style="fill:#333333;" cx="300.501" cy="197.167" r="9.309" data-original="#333333" class=""/>
	<path style="fill:#333333;" d="M311.951,304.705h-18.618v-33.42c0.019-4.264-2.839-7.978-6.935-9.058   c-10.119-2.867-20.396-4.534-30.72-5.008c-9.505,0.419-19.754,2.095-29.677,4.952c-4.366,1.136-7.233,4.85-7.233,9.095v33.438   h-18.618v-33.42c-0.019-12.744,8.592-23.878,20.945-27.071c11.096-3.202,22.826-5.111,34.621-5.595   c12.567,0.531,24.259,2.43,35.598,5.651c12.12,3.193,20.675,14.336,20.638,27.043V304.705z" data-original="#333333" class=""/>
	<path style="fill:#333333;" d="M275.738,277.346h-37.236c-2.569,0-4.655-2.085-4.655-4.655s2.085-4.655,4.655-4.655h37.236   c2.569,0,4.655,2.085,4.655,4.655S278.317,277.346,275.738,277.346z" data-original="#333333" class=""/>
	<path style="fill:#333333;" d="M257.185,245.965c-3.342,0-6.73-0.549-9.951-1.648l-9.951-2.709c-2.486-0.68-3.947-3.24-3.267-5.716   c0.68-2.486,3.249-3.956,5.716-3.267l10.24,2.793c4.71,1.601,9.598,1.601,14.019,0.084l10.529-2.877   c2.523-0.68,5.046,0.791,5.716,3.267c0.67,2.486-0.791,5.036-3.267,5.716l-10.249,2.793   C263.702,245.444,260.462,245.965,257.185,245.965z" data-original="#333333" class=""/>
</g></g> </svg>
