<svg xmlns="http://www.w3.org/2000/svg" enable-background="new 0 0 50 50" viewBox="0 0 50 50"><path fill="#C7C7C7" d="M34.5,49c-1.9-4.2-1-10.5-1-10.5h-17c0,0,1,6.3-1,10.5H34.5z"/><path fill="#696967" d="M38.1 15.3l1.4 1.5c0 0 .9 8.3-.2 12.2 0 0-1.4 2.3-2.8 2.7L38.1 15.3zM11.9 15.3l-1.4 1.5c0 0-.9 8.3.2 12.2 0 0 1.4 2.3 2.8 2.7L11.9 15.3z"/><path fill="#EFEFED" d="M37.6,29.4c0,0-1.3,13.5-12.6,13.9c-11.3-0.5-12.6-13.9-12.6-13.9c-1.8-5.8-0.7-13.6-0.7-13.6
					C11.1,0,25,1,25,1S38.9,0,38.3,15.8C38.3,15.8,39.4,23.6,37.6,29.4z"/><path fill="#C7C7C7" d="M29.9,34.9c0,0-1,2.6-4.8,2.6c-3.8,0-4.8-2.6-4.8-2.6c0.1-0.1,1.8-1.3,1.8-1.3c1.5-0.9,3-0.2,3-0.2
					s1.5-0.7,3,0.2C28.1,33.5,29.9,34.8,29.9,34.9z"/><path fill="#696967" d="M29.6,35.1c-0.5,0.1-1,0.1-1.5,0.1c-2-0.5-1.9,0.1-2.9,0h0.1c-1.2,0.1-1.1-0.5-2.9,0c-0.5,0-1,0-1.5-0.1
					c0.5,0,1,0,1.5-0.1l0,0c1.9-0.7,1.9-0.1,3-0.3c0,0,0,0,0,0c1,0.2,1-0.4,2.9,0.3l0,0C28.5,35.1,29,35.2,29.6,35.1z"/><path fill="#C7C7C7" d="M26.8 20.5c-.3 2.3-.1 4.5.9 6.6l0 0c1.2 1.5 1.3 3.1-.6 3.9 1.2-.9 1.7-1.9.3-3.6C26.2 25 26.1 22.6 26.8 20.5zM23.4 20.5c.9 2.6.3 5.9-.5 6.8-1.4 1.7-.9 2.7.3 3.6-1.9-.8-1.8-2.4-.6-3.9l0 0C23.5 25 23.7 22.7 23.4 20.5z"/><path fill="#C7C7C7" d="M25.7 30.3c0-.7.9-.9 1.5-.3C26.6 29.9 26.1 29.8 25.7 30.3zM24.5 30.3c-.4-.5-.9-.4-1.5-.3C23.6 29.4 24.6 29.6 24.5 30.3z"/><path fill="#696967" d="M27.7 19.4c0 0 .2-1.7 6.3-2.5 0 0 1.9.3 2.4 1.2 0 0-1.9-.7-2.5-.6C33.9 17.6 27.6 20.1 27.7 19.4zM22.3 19.4c0 0-.2-1.7-6.3-2.5 0 0-1.9.3-2.4 1.2 0 0 1.9-.7 2.5-.6C16.1 17.6 22.4 20.1 22.3 19.4z"/><path fill="#C7C7C7" d="M31.9,2.5l-1.6,6.7c-0.3,1.3-1.5,2.2-2.8,2.2h-5.1c-1.3,0-2.5-0.9-2.8-2.2l-1.6-6.7C21.5,0.7,25,1,25,1
					S28.5,0.7,31.9,2.5z"/><path fill="#59B1E3" d="M21.8,22.3c-0.9,1-2.1,1.6-3.5,1.6c-1.4,0-2.6-0.6-3.5-1.6c0.9-1,2.1-1.6,3.5-1.6
						C19.6,20.7,20.9,21.3,21.8,22.3z"/><circle cx="18.3" cy="22.3" r="1.4" fill="#FFF"/><circle cx="18.3" cy="22.3" r="1.1" fill="#C7C7C7"/><circle cx="18.3" cy="22.3" r=".6" fill="#444445"/><circle cx="18.8" cy="22.1" r=".3" fill="#FFF"/><circle cx="18.1" cy="22.5" r=".2" fill="#FFF"/><path fill="#59B1E3" d="M35.2,22.3c-0.9,1-2.1,1.6-3.5,1.6c-1.4,0-2.6-0.6-3.5-1.6c0.9-1,2.1-1.6,3.5-1.6
						C33.1,20.7,34.3,21.3,35.2,22.3z"/><circle cx="31.7" cy="22.3" r="1.4" fill="#FFF"/><circle cx="31.7" cy="22.3" r="1.1" fill="#C7C7C7"/><circle cx="31.7" cy="22.3" r=".6" fill="#444445"/><circle cx="32.2" cy="22.1" r=".3" fill="#FFF"/><circle cx="31.5" cy="22.5" r=".2" fill="#FFF"/><g><path fill="#C7C7C7" d="M15.5 20.5c1.7-1 2.4-1.7 6.5.5-2.9-.5-3.4-1.3-4.9-1C16.6 20.2 16 20.4 15.5 20.5zM34.5 20.5c-1.7-1-2.4-1.7-6.5.5 2.9-.5 3.4-1.3 4.9-1C33.4 20.2 34 20.4 34.5 20.5z"/></g><g><circle cx="22.1" cy="8.2" r=".8" fill="#696967"/><circle cx="27.9" cy="8.2" r=".8" fill="#696967"/></g></svg>