<svg width="713" height="337" viewBox="0 0 713 337" fill="none" xmlns="http://www.w3.org/2000/svg">
<g opacity="0.06">
<path d="M108.819 115.367C105.139 113.261 101.985 109.047 101.985 104.307C101.985 97.46 107.767 91.6665 114.601 91.6665H284.4C291.234 91.6665 297.016 97.46 297.016 104.307C297.016 111.154 291.234 116.947 284.4 116.947H114.601C112.498 116.947 110.396 116.421 108.819 115.367Z" fill="black"/>
<path d="M214.482 65.3322C210.802 63.2254 207.648 59.0119 207.648 54.2718C207.648 47.4249 213.431 41.6313 220.265 41.6313L301.221 42.158C308.055 42.158 313.838 47.9516 313.838 54.7985C313.838 61.6454 308.055 67.4389 301.221 67.4389L220.265 66.9122C218.162 66.9122 216.059 66.3855 214.482 65.3322Z" fill="black"/>
<path d="M267.577 191.211L174.529 191.738C167.695 191.738 161.913 197.531 161.913 204.378C161.913 209.118 164.541 213.332 168.221 215.438C169.798 216.492 171.901 217.018 174.003 217.018L253.909 216.492L267.577 191.211Z" fill="black"/>
<path d="M284.399 144.336L123.537 143.809C116.703 143.809 110.921 149.602 110.921 156.449C110.921 161.189 113.549 165.403 117.229 167.51C118.806 168.563 120.909 169.09 123.012 169.09L270.731 169.616L284.399 144.336Z" fill="black"/>
<path d="M6.30829 215.437C2.62844 213.33 -1.52588e-05 209.116 -1.52588e-05 204.376C-1.52588e-05 197.529 5.78259 191.736 12.6166 191.736H35.2213C42.0553 191.736 47.3122 197.529 47.3122 204.376C47.3122 211.223 41.5296 217.017 34.6956 217.017H12.0909C10.5138 217.017 8.41105 216.49 6.30829 215.437Z" fill="black"/>
<path d="M69.9171 214.912C65.7115 212.805 63.0831 208.592 63.0831 203.851C63.0831 197.004 68.8657 191.211 75.6997 191.211H139.834C146.668 191.211 152.451 197.004 152.451 203.851C152.451 210.698 146.668 216.492 139.834 216.492H75.6997C73.5969 216.492 71.4942 215.965 69.9171 214.912Z" fill="black"/>
<path d="M58.8782 167.51C55.1984 165.403 52.0442 161.189 52.5699 156.449C52.5699 149.602 58.3525 143.809 65.1865 143.809H87.7912C94.6252 143.809 100.408 149.602 100.408 156.449C100.408 163.296 94.6252 169.09 87.7912 169.09H65.1865C62.558 169.09 60.4553 168.563 58.8782 167.51Z" fill="black"/>
<path d="M154.028 65.859C150.348 63.7523 147.194 59.5388 147.194 54.7986C147.194 47.9517 152.977 42.1582 159.811 42.1582H182.416C189.25 42.1582 195.032 47.9517 195.032 54.7986C195.032 61.6455 189.25 67.4391 182.416 67.4391H159.811C157.708 67.4391 156.131 66.9124 154.028 65.859Z" fill="black"/>
<path d="M380.429 260.122C377.261 260.122 374.622 259.069 373.038 256.436C370.927 254.33 370.399 251.17 370.927 248.011L380.957 206.939H672.352L713 158.495L699.275 130.061H399.961L411.046 85.8297C412.102 83.1969 413.158 81.0906 415.797 80.0375C417.909 78.4578 420.02 77.9312 421.604 77.9312H673.936L635.4 0H407.879C372.51 0 348.227 18.4297 334.502 55.8156L286.464 250.644C281.185 273.286 286.464 293.295 300.717 310.672C315.498 328.048 334.502 337 358.785 337H563.079L627.482 260.122H380.429Z" fill="black"/>
</g>
</svg>
