<svg width="70" height="67" viewBox="0 0 70 67" fill="none" xmlns="http://www.w3.org/2000/svg">
<path opacity="0.1" d="M54 0V37.7975C54 46.0849 46.5679 58.8209 39.5287 63.1873C18.7516 76.0639 -0.999067 53.8507 0.0392046 33.4018H13.5309C12.739 47.6205 29.9203 57.3849 38.0505 42.9552C38.5139 42.1288 40.5083 37.6979 40.5083 37.2114V0H54Z" fill="#777E90"/>
<path d="M60.8156 18.9202H42.3729C41.1127 18.9202 40.0676 19.9652 40.0676 21.2255C40.0676 22.4857 41.1127 23.5308 42.3729 23.5308H43.1414V36.3177C42.0656 36.0718 40.9898 35.9796 39.9139 36.1025C38.1926 36.2562 36.502 36.8095 35.0266 37.7316C33.9508 38.4079 33.6127 39.8218 34.2582 40.8976C34.9344 41.9734 36.3484 42.3116 37.4242 41.6661C38.3156 41.1128 39.2684 40.8054 40.2828 40.7132C41.4201 40.621 42.3729 40.8669 43.1414 41.1435V48.6435C42.0656 48.3976 40.9898 48.3054 39.9139 48.4284C38.1926 48.5821 36.502 49.1353 35.0266 50.0575C33.9508 50.7337 33.6127 52.1476 34.2582 53.2234C34.9344 54.2993 36.3484 54.6374 37.4242 53.9919C38.3156 53.4386 39.2684 53.1312 40.2828 53.039C41.4201 52.9468 42.3729 53.1927 43.1414 53.4693V62.0144H30.0779C27.957 62.0144 26.2357 60.2931 26.2357 58.1722V27.4345C26.2357 25.3136 27.957 23.5923 30.0779 23.5923C31.3381 23.5923 32.3832 22.5472 32.3832 21.287C32.3832 20.0267 31.3381 18.9816 30.0779 18.9816C25.4057 18.9816 21.625 22.7624 21.625 27.4345V58.1722C21.625 62.8443 25.4057 66.6251 30.0779 66.6251H60.8156C65.4877 66.6251 69.2684 62.8443 69.2684 58.1722V27.4345C69.2684 22.7624 65.4877 18.9816 60.8156 18.9816V18.9202ZM64.6578 58.1107C64.6578 60.2316 62.9365 61.953 60.8156 61.953H47.752V59.5554C48.3053 59.3402 48.8893 59.1558 49.5041 59.1251C51.3484 58.9714 52.7623 59.6476 53.4693 60.0779C53.8381 60.2931 54.2684 60.4161 54.668 60.4161C55.4365 60.4161 56.2049 60.0165 56.6352 59.3095C57.3115 58.2337 56.9426 56.789 55.8668 56.1435C53.8381 54.914 51.4406 54.33 49.1352 54.5144C48.6742 54.5452 48.2131 54.6989 47.752 54.7911V47.2296C48.3053 47.0144 48.8893 46.83 49.5041 46.7993C51.3484 46.6456 52.7623 47.3218 53.4693 47.7521C53.8381 47.9673 54.2684 48.0902 54.668 48.0902C55.4365 48.0902 56.2049 47.6907 56.6352 46.9837C57.3115 45.9079 56.9426 44.4632 55.8668 43.8177C53.8381 42.5882 51.4406 42.0042 49.1352 42.1886C48.6742 42.2193 48.2131 42.373 47.752 42.4652V31.83C48.3053 31.6148 48.8893 31.4304 49.5041 31.3997C51.3484 31.246 52.7623 31.9222 53.4693 32.3525C53.8381 32.5677 54.2684 32.6907 54.668 32.6907C55.4365 32.6907 56.2049 32.2911 56.6352 31.5841C57.3115 30.5083 56.9426 29.0636 55.8668 28.4181C53.8381 27.1886 51.4406 26.5739 49.1352 26.789C48.6742 26.8198 48.2131 26.9734 47.752 27.0657V23.4386H60.8156C62.9365 23.4386 64.6578 25.1599 64.6578 27.2808V58.0185V58.1107Z" fill="#E7A429"/>
<path d="M27.0041 17.3832H33.1516C33.582 17.3832 33.9201 17.7213 33.9201 18.1516V30.4467C33.9201 31.707 34.9652 32.752 36.2254 32.752C37.4857 32.752 38.5307 31.707 38.5307 30.4467V18.1516C38.5307 15.2008 36.1025 12.7725 33.1516 12.7725H27.0041C26.5738 12.7725 26.2357 12.4344 26.2357 12.0041C26.2357 11.5738 26.5738 11.2357 27.0041 11.2357H33.1516C34.4119 11.2357 35.457 10.1906 35.457 8.93033C35.457 7.67008 34.4119 6.625 33.1516 6.625H27.0041C24.0533 6.625 21.625 9.05328 21.625 12.0041C21.625 14.9549 24.0533 17.3832 27.0041 17.3832Z" fill="#E7A429"/>
<path d="M14 0H0V17H14V0Z" fill="#E01544"/>
</svg>
