<svg width="76" height="67" viewBox="0 0 76 67" fill="none" xmlns="http://www.w3.org/2000/svg">
<path opacity="0.1" d="M54 0V37.7975C54 46.0849 46.5679 58.8209 39.5287 63.1873C18.7516 76.0639 -0.999067 53.8507 0.0392046 33.4018H13.5309C12.739 47.6205 29.9203 57.3849 38.0505 42.9552C38.5139 42.1288 40.5083 37.6979 40.5083 37.2114V0H54Z" fill="#777E90"/>
<path d="M67.1565 52.9602C77.6556 42.4612 77.6556 25.3733 67.1565 14.8743C56.6575 4.37524 39.5696 4.37524 29.0398 14.8743C18.5407 25.3733 18.5407 42.4612 29.0398 52.9602C29.1013 53.0218 29.1937 53.0834 29.2553 53.145H21.9275C18.1097 53.145 15 56.2546 15 60.0725C15 63.8903 18.1097 67 21.9275 67H29.6248C30.8871 67 31.9339 65.9532 31.9339 64.6908C31.9339 63.4285 30.8871 62.3817 29.6248 62.3817H21.9275C20.6652 62.3817 19.6183 61.3348 19.6183 60.0725C19.6183 58.8101 20.6652 57.7633 21.9275 57.7633H35.5978C39.508 59.7954 43.8185 60.8422 48.0981 60.8422C50.4689 60.8422 52.8396 60.5035 55.1488 59.8877C55.2412 59.8877 55.3643 59.857 55.4567 59.8262C59.7364 58.6254 63.8005 56.347 67.1565 52.991V52.9602ZM40.6164 12.9038C44.0956 18.7229 48.2213 24.1418 52.9628 28.9756C57.7659 33.8711 63.1232 38.2123 68.9115 41.8454C68.1418 43.8775 67.0641 45.7864 65.7094 47.5722C58.9666 44.2162 52.8396 39.8441 47.5439 34.4561C42.2482 29.068 37.9686 22.8486 34.7357 16.0443C36.5523 14.6895 38.5228 13.6427 40.5856 12.9038H40.6164ZM70.143 37.1347C68.0494 35.78 66.0173 34.3329 64.0776 32.7935C64.9705 32.4548 65.8326 32.0545 66.6639 31.5619C67.8339 30.8845 68.9115 30.1148 69.8967 29.2527C70.4509 31.839 70.5125 34.5176 70.143 37.1347ZM68.2033 24.2957C67.0949 25.5888 65.8326 26.6972 64.3547 27.5593C62.9692 28.3291 61.4913 28.914 59.9519 29.2219C59.9519 29.2219 59.9211 29.2219 59.8903 29.2219C58.6588 28.0827 57.458 26.9436 56.288 25.7428C55.6722 25.0962 55.0872 24.4496 54.5022 23.8031C55.5491 23.4336 56.5651 22.9718 57.5196 22.4176C59.7056 21.1552 61.6145 19.4926 63.1847 17.4913C63.4003 17.7069 63.6466 17.8916 63.8621 18.1071C65.7094 19.9545 67.1257 22.0481 68.2033 24.2649V24.2957ZM59.4285 14.7203C58.2277 16.1982 56.873 17.4913 55.2104 18.415C53.948 19.1232 52.5933 19.6466 51.177 19.9852C49.0834 17.3682 47.1129 14.6588 45.3579 11.7954C46.2816 11.6722 47.1745 11.6106 48.0981 11.6106C52.0391 11.6106 55.9493 12.6575 59.4285 14.7203ZM31.2258 19.3079C34.6126 26.0815 38.923 32.3008 44.2495 37.6889C49.5452 43.077 55.6722 47.5106 62.3842 51.0205C60.1366 52.8987 57.6119 54.2534 54.9333 55.1155C48.9294 52.0366 43.5106 48.0648 38.8614 43.2001C34.0584 38.1507 30.179 32.3624 27.3772 25.9891C27.3772 25.9275 27.3156 25.8967 27.2848 25.8659C28.1777 23.526 29.5016 21.3092 31.2258 19.3079ZM25.8069 33.1629C28.4856 37.966 31.7184 42.3996 35.5362 46.3714C39.1386 50.1276 43.1719 53.3913 47.5439 56.1931C42.0019 56.0699 36.5215 53.9147 32.3034 49.6966C27.7774 45.1706 25.6222 39.136 25.8069 33.1629Z" fill="#E7A429"/>
<path d="M14 0H0V17H14V0Z" fill="#E01544"/>
</svg>
