<svg width="76" height="67" viewBox="0 0 76 67" fill="none" xmlns="http://www.w3.org/2000/svg">
<path d="M42.8582 24.3083C42.8582 25.5692 43.9212 26.6148 45.2031 26.6148C46.485 26.6148 47.5481 25.5692 47.5481 24.3083V18.1576C47.5481 16.8967 46.485 15.8511 45.2031 15.8511C43.9212 15.8511 42.8582 16.8967 42.8582 18.1576V18.9264H17.0637C15.7818 18.9264 14.7188 19.972 14.7188 21.2329C14.7188 22.4938 15.7818 23.5394 17.0637 23.5394H42.8582V24.3083Z" fill="#E7A429"/>
<path d="M59.2728 52.7551H54.5829C53.301 52.7551 52.238 53.8007 52.238 55.0616C52.238 56.3225 53.301 57.3681 54.5829 57.3681H59.2728C62.2744 57.3681 64.7444 59.7977 64.7444 62.75V64.2877C64.7444 65.5486 65.8074 66.5942 67.0893 66.5942C68.3712 66.5942 69.4343 65.5486 69.4343 64.2877V62.75C69.4343 57.2451 64.8694 52.7551 59.2728 52.7551Z" fill="#E7A429"/>
<path d="M35.8233 52.7552H34.26C31.2584 52.7552 28.7884 50.3257 28.7884 47.3733C28.7884 44.8208 30.6331 42.6065 33.1657 42.0837C34.4476 41.8377 35.2605 40.6076 35.0104 39.3774C34.7602 38.1165 33.5096 37.3169 32.259 37.563C27.5378 38.5163 24.1298 42.6373 24.1298 47.3733C24.1298 52.8782 28.6946 57.3682 34.2912 57.3682H35.8545C37.1365 57.3682 38.1995 56.3226 38.1995 55.0617C38.1995 53.8008 37.1365 52.7552 35.8545 52.7552H35.8233Z" fill="#E7A429"/>
<path d="M63.9626 18.9264H59.9606C59.4916 12.0684 53.0821 6.625 45.203 6.625C39.4813 6.625 34.3537 9.45432 31.8524 13.9751C31.2271 15.0822 31.6648 16.4969 32.7904 17.1119C33.9473 17.727 35.3542 17.2965 35.9795 16.1893C37.6366 13.1755 41.2635 11.238 45.2343 11.238C50.8309 11.238 55.3957 15.0207 55.3957 19.6952C55.3957 21.0484 55.0205 22.34 54.3014 23.5394C50.0493 30.4589 47.6105 36.3943 46.61 42.2068L45.2343 50.2642L43.8586 42.2068C42.9831 37.1017 41.0759 32.0274 37.793 26.2765C37.1677 25.1693 35.7294 24.7695 34.6038 25.3846C33.4783 25.9997 33.0718 27.4143 33.6971 28.5215C36.6987 33.8111 38.4496 38.3933 39.2312 42.9756L42.9206 64.6875C43.1082 65.7947 44.0774 66.625 45.2343 66.625C46.3911 66.625 47.3604 65.7947 47.548 64.6875L51.2374 42.9756C52.1128 37.7475 54.364 32.3349 58.3035 25.9382C58.7725 25.1693 59.1164 24.3697 59.3978 23.5702H63.9939C67.8709 23.5702 71.0287 26.6763 71.0287 30.4897C71.0287 34.3031 67.8709 37.4092 63.9939 37.4092H57.7407C56.4588 37.4092 55.3957 38.4548 55.3957 39.7157C55.3957 40.9766 56.4588 42.0222 57.7407 42.0222H63.9939C70.466 42.0222 75.7187 36.8557 75.7187 30.4897C75.7187 24.1237 70.466 18.9571 63.9939 18.9571L63.9626 18.9264Z" fill="#E7A429"/>
<path d="M14 0H0V17H14V0Z" fill="#E01544"/>
<path opacity="0.1" d="M54 0V37.7975C54 46.0849 46.5679 58.8209 39.5287 63.1873C18.7516 76.0639 -0.999067 53.8507 0.0392046 33.4018H13.5309C12.739 47.6205 29.9203 57.3849 38.0505 42.9552C38.5139 42.1288 40.5083 37.6979 40.5083 37.2114V0H54Z" fill="#777E90"/>
</svg>
