<svg width="63" height="67" viewBox="0 0 63 67" fill="none" xmlns="http://www.w3.org/2000/svg">
<path opacity="0.1" d="M54 0V37.7975C54 46.0849 46.5679 58.8209 39.5287 63.1873C18.7516 76.0639 -0.999067 53.8507 0.0392046 33.4018H13.5309C12.739 47.6205 29.9203 57.3849 38.0505 42.9552C38.5139 42.1288 40.5083 37.6979 40.5083 37.2114V0H54Z" fill="#777E90"/>
<path d="M58.9253 33.2904C58.1043 32.059 58.2867 30.3966 59.3206 29.3499L60.7194 27.9338C62.1486 26.4869 62.9696 24.5167 62.9696 22.4541C62.9696 19.1293 60.8714 16.1739 57.7394 15.1272L53.8471 13.8035V10.8481C53.8471 8.72396 52.1442 7 50.046 7H40.9235C38.8254 7 37.1225 8.72396 37.1225 10.8481V13.8035L33.2302 15.1272C30.0982 16.1739 28 19.1293 28 22.4541C28 24.5167 28.7906 26.4561 30.2502 27.9338L31.649 29.3499C32.6829 30.3966 32.8349 32.059 32.0443 33.2904L29.3076 37.4464C28.4561 38.7086 28.0304 40.217 28.0304 41.7255V43.8805C28.0304 48.1596 31.4665 51.6075 35.6629 51.6075H43.2346V56.2252H36.3927C33.4735 56.2252 31.0712 58.6573 31.0712 61.6126V64.6911C31.0712 65.9533 32.1051 67 33.3519 67C34.5986 67 35.6325 65.9533 35.6325 64.6911V61.6126C35.6325 61.1816 35.967 60.843 36.3927 60.843H43.2346V64.6911C43.2346 65.9533 44.2685 67 45.5152 67C46.7619 67 47.7958 65.9533 47.7958 64.6911V60.843H54.6377C55.0634 60.843 55.3979 61.1816 55.3979 61.6126V64.6911C55.3979 65.9533 56.4318 67 57.6785 67C58.9253 67 59.9592 65.9533 59.9592 64.6911V61.6126C59.9592 58.6573 57.5569 56.2252 54.6377 56.2252H47.7958V51.6075H55.3675C59.5943 51.6075 63 48.1288 63 43.8805V41.7255C63 40.1863 62.5439 38.7086 61.7228 37.4464L58.9861 33.2904H58.9253ZM55.1242 35.8456L57.861 40.0015C58.1955 40.5249 58.3779 41.1098 58.3779 41.7255V43.8805C58.3779 45.6044 57.0096 46.9897 55.3067 46.9897H35.6021C33.8992 46.9897 32.5308 45.6044 32.5308 43.8805V41.7255C32.5308 41.1098 32.7133 40.5249 33.0478 40.0015L35.7845 35.8456C37.7915 32.7978 37.3962 28.6727 34.8419 26.0867L33.4431 24.6706C32.8653 24.0857 32.5308 23.2853 32.5308 22.4541C32.5308 21.0995 33.3823 19.9297 34.629 19.4987L40.0721 17.6516C41.0148 17.3438 41.6229 16.451 41.6229 15.4659V11.6178H49.225V15.4659C49.225 16.451 49.8636 17.3438 50.7758 17.6516L56.2189 19.4987C57.4657 19.9297 58.3171 21.0995 58.3171 22.4541C58.3171 23.2853 57.9826 24.0549 57.4049 24.6706L56.0061 26.0867C53.4518 28.6727 53.0261 32.7978 55.0634 35.8456H55.1242Z" fill="#E7A429"/>
<path d="M14 0H0V17H14V0Z" fill="#E01544"/>
</svg>
