<svg width="23" height="23" viewBox="0 0 23 23" fill="none" xmlns="http://www.w3.org/2000/svg">
<path fill-rule="evenodd" clip-rule="evenodd" d="M11.5 0C5.14913 0 0 5.14817 0 11.5C0 16.3722 3.03121 20.5332 7.30921 22.2084C7.20858 21.299 7.11754 19.9036 7.34946 18.9108C7.55837 18.0128 8.69783 13.1943 8.69783 13.1943C8.69783 13.1943 8.35379 12.5053 8.35379 11.4866C8.35379 9.88808 9.2805 8.694 10.4343 8.694C11.4147 8.694 11.8891 9.43096 11.8891 10.3136C11.8891 11.2997 11.2614 12.7746 10.9365 14.1421C10.6653 15.2864 11.5105 16.2208 12.6395 16.2208C14.6836 16.2208 16.2543 14.0655 16.2543 10.9547C16.2543 8.20142 14.2763 6.27612 11.4511 6.27612C8.17937 6.27612 6.25887 8.73042 6.25887 11.2662C6.25887 12.2542 6.63933 13.3151 7.11467 13.8901C7.20858 14.0041 7.222 14.1047 7.19421 14.2207L6.87508 15.524C6.82429 15.7349 6.70833 15.7799 6.48983 15.6783C5.05329 15.0094 4.15533 12.9097 4.15533 11.223C4.15533 7.59575 6.79075 4.26362 11.754 4.26362C15.7435 4.26362 18.8437 7.107 18.8437 10.9058C18.8437 14.8695 16.3453 18.0588 12.8762 18.0588C11.7108 18.0588 10.6155 17.4541 10.2407 16.7382L9.52392 19.4724C9.26421 20.4719 8.56367 21.7245 8.09408 22.4873C9.17125 22.8198 10.3145 23 11.5 23C17.8509 23 23 17.8509 23 11.5C23 5.14817 17.8509 0 11.5 0Z" fill="#9FABB6"/>
</svg>
