<svg width="23" height="19" viewBox="0 0 23 19" fill="none" xmlns="http://www.w3.org/2000/svg">
<path d="M20.6454 4.63495C20.6588 4.83642 20.6588 5.03884 20.6588 5.24221C20.6588 11.4551 15.9112 18.619 7.23254 18.619V18.6152C4.669 18.619 2.15817 17.8877 0 16.508C0.372792 16.5528 0.7475 16.5748 1.12317 16.5758C3.24875 16.5777 5.313 15.8673 6.98338 14.5592C4.96417 14.521 3.19317 13.2091 2.57504 11.2938C3.28229 11.4294 4.01062 11.4017 4.70542 11.2136C2.50317 10.7705 0.92 8.84278 0.92 6.60472C0.92 6.58467 0.92 6.56462 0.92 6.54552C1.57646 6.91026 2.31054 7.11172 3.06187 7.13368C0.988042 5.75399 0.347875 3.00606 1.60042 0.857741C3.99625 3.79473 7.53154 5.58021 11.3256 5.77022C10.9451 4.1375 11.4655 2.42649 12.6902 1.27786C14.5906 -0.502858 17.5797 -0.411196 19.367 1.48218C20.424 1.27499 21.437 0.888295 22.3637 0.341191C22.011 1.42967 21.274 2.35392 20.2889 2.94208C21.2252 2.83037 22.1385 2.58117 23 2.20115C22.3665 3.14546 21.5692 3.96945 20.6454 4.63495Z" fill="#9FABB6"/>
</svg>
