<svg width="453" height="411" viewBox="0 0 453 411" fill="none" xmlns="http://www.w3.org/2000/svg">
<path d="M112.572 31.0034C150.815 11.7585 193.246 12.1137 235.939 9.67046C283.985 6.92082 337.395 -11.8585 376.591 15.8938C416.042 43.8264 417.381 100.253 429.868 146.979C442.196 193.11 461.775 239.513 448.642 285.514C434.977 333.379 402.447 377.523 357.762 399.545C315.287 420.479 266.221 404.791 219.374 398.509C177.421 392.882 135.243 388.611 100.178 365.001C63.0898 340.029 33.8987 304.927 18.1939 263.052C1.43952 218.379 -8.39386 167.861 9.62522 123.557C27.4336 79.771 70.3279 52.2615 112.572 31.0034Z" fill="#D32929" fill-opacity="0.15"/>
</svg>
