<svg width="472" height="427" viewBox="0 0 472 427" fill="none" xmlns="http://www.w3.org/2000/svg">
<path d="M117.293 31.6434C157.14 11.6065 201.351 11.9763 245.835 9.43251C295.896 6.56972 351.546 -12.9825 392.386 15.912C433.492 44.9942 434.887 103.743 447.897 152.391C460.742 200.422 481.143 248.734 467.459 296.628C453.221 346.464 419.326 392.423 372.767 415.353C328.511 437.148 277.387 420.814 228.575 414.273C184.863 408.415 140.915 403.968 104.38 379.387C65.736 353.387 35.3205 316.84 18.957 273.242C1.4999 226.731 -8.74592 174.133 10.0289 128.006C28.5843 82.418 73.2776 53.7763 117.293 31.6434Z" fill="#D32929" fill-opacity="0.15"/>
</svg>
