<svg width="28" height="28" viewBox="0 0 28 28" fill="none" xmlns="http://www.w3.org/2000/svg">
<g id="blood-test-tube-alt 2" clip-path="url(#clip0_0_1683)">
<path id="Vector" d="M26.0085 12.4915C26.236 12.719 26.5347 12.8334 26.8333 12.8334C27.132 12.8334 27.4307 12.719 27.6582 12.4915C28.1143 12.0354 28.1143 11.298 27.6582 10.8419L17.1582 0.341881C16.702 -0.114286 15.9647 -0.114286 15.5085 0.341881C15.0523 0.798047 15.0523 1.53538 15.5085 1.99155L16.6343 3.11738L1.70917 18.0414C0.607833 19.1427 0 20.608 0 22.1667C0 23.7254 0.607833 25.1895 1.70917 26.292C2.8105 27.3945 4.27467 28 5.83333 28C7.392 28 8.85617 27.3934 9.9575 26.292L24.8827 11.3669L26.0085 12.4927V12.4915ZM8.30783 24.6424C6.986 25.9642 4.68067 25.9642 3.35883 24.6424C1.99383 23.2774 1.99383 21.0572 3.35883 19.6922L12.4728 10.5782L17.423 15.5284L8.309 24.6424H8.30783ZM19.0715 13.8787L14.1213 8.92855L18.2828 4.76705L23.233 9.71721L19.0715 13.8787ZM25.1452 18.2397C24.1488 17.2632 22.5202 17.2632 21.5215 18.2397C21.4923 18.2677 20.034 20.0352 20.034 20.0352C19.152 20.916 18.6667 22.0885 18.6667 23.3345C18.6667 24.5805 19.152 25.753 20.034 26.6339C20.916 27.5159 22.0873 28.0012 23.3333 28.0012C24.5793 28.0012 25.7507 27.5159 26.6327 26.6339C27.5147 25.753 28 24.5805 28 23.3345C28 22.0885 27.5147 20.916 26.7073 20.1157C26.7073 20.1157 25.1767 18.2689 25.1463 18.2397H25.1452ZM24.9818 24.9842C24.0998 25.8662 22.5645 25.8662 21.6825 24.9842C21.2415 24.5432 20.9988 23.9575 20.9988 23.3345C20.9988 22.7115 21.2415 22.1259 21.756 21.6044L23.1793 19.8847C23.2727 19.8159 23.3963 19.8182 23.4862 19.8847L24.9818 21.6849C25.4228 22.1259 25.6655 22.7115 25.6655 23.3345C25.6655 23.9575 25.4228 24.5432 24.9818 24.9842Z" fill="#065A4A"/>
</g>
<defs>
<clipPath id="clip0_0_1683">
<rect width="28" height="28" fill="white"/>
</clipPath>
</defs>
</svg>
