<svg width="28" height="28" viewBox="0 0 28 28" fill="none" xmlns="http://www.w3.org/2000/svg">
<g id="hundred-points 1" clip-path="url(#clip0_0_1677)">
<path id="Vector" d="M1.50956 8.9915C1.0534 8.53533 1.0534 7.798 1.50956 7.34183L3.8429 5.0085C4.17656 4.67367 4.67823 4.57567 5.11456 4.75533C5.5509 4.93617 5.8344 5.362 5.8344 5.83333V16.3333C5.8344 16.9773 5.3129 17.5 4.66773 17.5C4.02256 17.5 3.50106 16.9773 3.50106 16.3333V8.64967L3.15923 8.9915C2.70306 9.44767 1.96573 9.44767 1.50956 8.9915ZM27.9731 16.0743C27.8296 15.4455 27.2007 15.0477 26.5766 15.1958L0.908729 21.0292C0.281062 21.1727 -0.113271 21.7968 0.0290623 22.4257C0.151562 22.967 0.634562 23.3333 1.16656 23.3333C1.25173 23.3333 1.33923 23.324 1.42673 23.3042L27.0934 17.4708C27.7211 17.3273 28.1154 16.7032 27.9731 16.0743ZM26.5894 22.1923L10.2561 25.6923C9.62606 25.8277 9.22473 26.4472 9.36006 27.0783C9.4779 27.6255 9.9609 28.0012 10.4999 28.0012C10.5804 28.0012 10.6632 27.993 10.7461 27.9755L27.0794 24.4755C27.7094 24.3402 28.1107 23.7207 27.9754 23.0895C27.8401 22.4595 27.2252 22.057 26.5894 22.1923ZM18.6677 8.75V4.08333C18.6677 1.83167 20.4994 0 22.7511 0C25.0027 0 26.8344 1.83167 26.8344 4.08333V8.75C26.8344 11.0017 25.0027 12.8333 22.7511 12.8333C20.4994 12.8333 18.6677 11.0017 18.6677 8.75ZM21.0011 8.75C21.0011 9.71483 21.7862 10.5 22.7511 10.5C23.7159 10.5 24.5011 9.71483 24.5011 8.75V4.08333C24.5011 3.1185 23.7159 2.33333 22.7511 2.33333C21.7862 2.33333 21.0011 3.1185 21.0011 4.08333V8.75ZM8.16773 11.0833V6.41667C8.16773 4.165 9.9994 2.33333 12.2511 2.33333C14.5027 2.33333 16.3344 4.165 16.3344 6.41667V11.0833C16.3344 13.335 14.5027 15.1667 12.2511 15.1667C9.9994 15.1667 8.16773 13.335 8.16773 11.0833ZM10.5011 11.0833C10.5011 12.0482 11.2862 12.8333 12.2511 12.8333C13.2159 12.8333 14.0011 12.0482 14.0011 11.0833V6.41667C14.0011 5.45183 13.2159 4.66667 12.2511 4.66667C11.2862 4.66667 10.5011 5.45183 10.5011 6.41667V11.0833Z" fill="#065A4A"/>
</g>
<defs>
<clipPath id="clip0_0_1677">
<rect width="28" height="28" fill="white"/>
</clipPath>
</defs>
</svg>
