<svg width="28" height="28" viewBox="0 0 28 28" fill="none" xmlns="http://www.w3.org/2000/svg">
<g id="user-md " clip-path="url(#clip0_0_1671)">
<path id="Vector" d="M14 14C17.8605 14 21 10.8605 21 7C21 3.1395 17.8605 0 14 0C10.1395 0 6.99998 3.1395 6.99998 7C6.99998 10.8605 10.1395 14 14 14ZM14 2.33333C16.5736 2.33333 18.6666 4.42633 18.6666 7C18.6666 9.57367 16.5736 11.6667 14 11.6667C11.4263 11.6667 9.33331 9.57367 9.33331 7C9.33331 4.42633 11.4263 2.33333 14 2.33333ZM25.6666 26.8333C25.6666 27.4785 25.1451 28 24.5 28C23.8548 28 23.3333 27.4785 23.3333 26.8333C23.3333 23.583 21.4235 20.769 18.6666 19.4553V22.3673C20.0246 22.8492 21 24.1453 21 25.6667V26.8333C21 27.4785 20.4785 28 19.8333 28C19.1881 28 18.6666 27.4785 18.6666 26.8333V25.6667C18.6666 25.0227 18.144 24.5 17.5 24.5C16.856 24.5 16.3333 25.0227 16.3333 25.6667V26.8333C16.3333 27.4785 15.8118 28 15.1666 28C14.5215 28 14 27.4785 14 26.8333V25.6667C14 24.1453 14.9753 22.8492 16.3333 22.3673V18.7507C15.9518 18.6958 15.5621 18.6667 15.1666 18.6667H12.8333C12.0225 18.6667 11.2396 18.7857 10.5 19.0073V22.4805C11.1976 22.8842 11.6666 23.6378 11.6666 24.5012C11.6666 25.7903 10.6225 26.8345 9.33331 26.8345C8.04415 26.8345 6.99998 25.7903 6.99998 24.5012C6.99998 23.6378 7.46898 22.8842 8.16665 22.4805V20.1367C6.05265 21.6148 4.66665 24.066 4.66665 26.8345C4.66665 27.4797 4.14515 28.0012 3.49998 28.0012C2.85481 28.0012 2.33331 27.4797 2.33331 26.8345C2.33331 21.0443 7.04315 16.3345 12.8333 16.3345H15.1666C20.9568 16.3345 25.6666 21.0432 25.6666 26.8333Z" fill="#065A4A"/>
</g>
<defs>
<clipPath id="clip0_0_1671">
<rect width="28" height="28" fill="white"/>
</clipPath>
</defs>
</svg>
