<svg width="28" height="28" viewBox="0 0 28 28" fill="none" xmlns="http://www.w3.org/2000/svg">
<g id="doctor " clip-path="url(#clip0_0_1701)">
<path id="Vector" d="M22.1667 5.83335H18.6667V4.66669C18.6667 3.73843 18.2979 2.84819 17.6415 2.19181C16.9852 1.53544 16.0949 1.16669 15.1667 1.16669H12.8333C11.9051 1.16669 11.0148 1.53544 10.3585 2.19181C9.70208 2.84819 9.33333 3.73843 9.33333 4.66669V5.83335H5.83333C4.28681 5.83521 2.80415 6.45038 1.71059 7.54394C0.617029 8.6375 0.0018525 10.1202 0 11.6667L0 21C0.0018525 22.5465 0.617029 24.0292 1.71059 25.1228C2.80415 26.2163 4.28681 26.8315 5.83333 26.8334H22.1667C23.7132 26.8315 25.1959 26.2163 26.2894 25.1228C27.383 24.0292 27.9981 22.5465 28 21V11.6667C27.9981 10.1202 27.383 8.6375 26.2894 7.54394C25.1959 6.45038 23.7132 5.83521 22.1667 5.83335ZM11.6667 4.66669C11.6667 4.35727 11.7896 4.06052 12.0084 3.84173C12.2272 3.62294 12.5239 3.50002 12.8333 3.50002H15.1667C15.4761 3.50002 15.7728 3.62294 15.9916 3.84173C16.2104 4.06052 16.3333 4.35727 16.3333 4.66669V5.83335H11.6667V4.66669ZM25.6667 21C25.6667 21.9283 25.2979 22.8185 24.6415 23.4749C23.9852 24.1313 23.0949 24.5 22.1667 24.5H5.83333C4.90508 24.5 4.01484 24.1313 3.35846 23.4749C2.70208 22.8185 2.33333 21.9283 2.33333 21V11.6667C2.33333 10.7384 2.70208 9.84819 3.35846 9.19181C4.01484 8.53544 4.90508 8.16669 5.83333 8.16669H22.1667C23.0949 8.16669 23.9852 8.53544 24.6415 9.19181C25.2979 9.84819 25.6667 10.7384 25.6667 11.6667V21ZM18.6667 16.3334C18.6667 16.6428 18.5437 16.9395 18.325 17.1583C18.1062 17.3771 17.8094 17.5 17.5 17.5H15.1667V19.8334C15.1667 20.1428 15.0437 20.4395 14.825 20.6583C14.6062 20.8771 14.3094 21 14 21C13.6906 21 13.3938 20.8771 13.175 20.6583C12.9562 20.4395 12.8333 20.1428 12.8333 19.8334V17.5H10.5C10.1906 17.5 9.89383 17.3771 9.67504 17.1583C9.45625 16.9395 9.33333 16.6428 9.33333 16.3334C9.33333 16.0239 9.45625 15.7272 9.67504 15.5084C9.89383 15.2896 10.1906 15.1667 10.5 15.1667H12.8333V12.8334C12.8333 12.5239 12.9562 12.2272 13.175 12.0084C13.3938 11.7896 13.6906 11.6667 14 11.6667C14.3094 11.6667 14.6062 11.7896 14.825 12.0084C15.0437 12.2272 15.1667 12.5239 15.1667 12.8334V15.1667H17.5C17.8094 15.1667 18.1062 15.2896 18.325 15.5084C18.5437 15.7272 18.6667 16.0239 18.6667 16.3334Z" fill="#065A4A"/>
</g>
<defs>
<clipPath id="clip0_0_1701">
<rect width="28" height="28" fill="white"/>
</clipPath>
</defs>
</svg>
