<svg width="28" height="28" viewBox="0 0 28 28" fill="none" xmlns="http://www.w3.org/2000/svg">
<g id="test" clip-path="url(#clip0_0_1695)">
<path id="Vector" d="M18.6667 19.8334C18.9761 19.8334 19.2728 19.9563 19.4916 20.1751C19.7104 20.3939 19.8333 20.6906 19.8333 21C19.8333 21.3094 19.7104 21.6062 19.4916 21.825C19.2728 22.0438 18.9761 22.1667 18.6667 22.1667H17.5C17.1906 22.1667 16.8938 22.0438 16.675 21.825C16.4562 21.6062 16.3333 21.3094 16.3333 21C16.3333 20.6906 16.4562 20.3939 16.675 20.1751C16.8938 19.9563 17.1906 19.8334 17.5 19.8334H18.6667ZM16.3333 17.5C16.0239 17.5 15.7272 17.3771 15.5084 17.1583C15.2896 16.9395 15.1667 16.6428 15.1667 16.3334V15.1667H12.8333V16.3334C12.8333 16.6428 12.7104 16.9395 12.4916 17.1583C12.2728 17.3771 11.9761 17.5 11.6667 17.5C11.3572 17.5 11.0605 17.3771 10.8417 17.1583C10.6229 16.9395 10.5 16.6428 10.5 16.3334V11.6667C10.5 10.7384 10.8687 9.84819 11.5251 9.19181C12.1815 8.53543 13.0717 8.16669 14 8.16669C14.9283 8.16669 15.8185 8.53543 16.4749 9.19181C17.1313 9.84819 17.5 10.7384 17.5 11.6667V16.3334C17.5 16.6428 17.3771 16.9395 17.1583 17.1583C16.9395 17.3771 16.6428 17.5 16.3333 17.5ZM15.1667 12.8334V11.6667C15.1667 11.3573 15.0437 11.0605 14.825 10.8417C14.6062 10.6229 14.3094 10.5 14 10.5C13.6906 10.5 13.3938 10.6229 13.175 10.8417C12.9562 11.0605 12.8333 11.3573 12.8333 11.6667V12.8334H15.1667ZM13.1705 19.0167L11.2898 20.9184C11.2372 20.9713 11.1662 21.0021 11.0915 21.0042C11.0168 21.0064 10.9442 20.9798 10.8885 20.93L10.1698 20.1834C9.95324 19.9615 9.65739 19.8348 9.34736 19.8311C9.03733 19.8273 8.73852 19.9469 8.51667 20.1635C8.29481 20.3801 8.16809 20.676 8.16437 20.986C8.16065 21.296 8.28024 21.5948 8.49683 21.8167L9.22717 22.568C9.7204 23.0603 10.3888 23.3368 11.0857 23.3368C11.7825 23.3368 12.4509 23.0603 12.9442 22.568L14.8295 20.65C15.0225 20.4257 15.1231 20.1365 15.1109 19.8408C15.0987 19.5452 14.9746 19.2652 14.7637 19.0576C14.5529 18.85 14.271 18.7303 13.9752 18.7227C13.6794 18.7151 13.3917 18.8202 13.1705 19.0167ZM24.5 7.76652V22.1667C24.4981 23.7132 23.883 25.1959 22.7894 26.2894C21.6959 27.383 20.2132 27.9982 18.6667 28H9.33333C7.78681 27.9982 6.30415 27.383 5.21059 26.2894C4.11703 25.1959 3.50185 23.7132 3.5 22.1667V5.83335C3.50185 4.28682 4.11703 2.80417 5.21059 1.71061C6.30415 0.617048 7.78681 0.00187168 9.33333 1.91837e-05H16.7335C17.5 -0.00195256 18.2592 0.14809 18.9673 0.441466C19.6754 0.734841 20.3183 1.16572 20.8588 1.70919L22.7908 3.64119C23.3343 4.18168 23.7652 4.82458 24.0586 5.53269C24.3519 6.24079 24.502 7.00005 24.5 7.76652ZM19.2092 3.35885C19.0433 3.19395 18.8616 3.04584 18.6667 2.91669V5.83335H21.5833C21.4538 5.63834 21.3053 5.45662 21.14 5.29085L19.2092 3.35885ZM22.1667 8.16669H18.6667C18.0478 8.16669 17.4543 7.92085 17.0168 7.48327C16.5792 7.04568 16.3333 6.45219 16.3333 5.83335V2.33335H9.33333C8.40508 2.33335 7.51484 2.7021 6.85846 3.35848C6.20208 4.01486 5.83333 4.90509 5.83333 5.83335V22.1667C5.83333 23.0949 6.20208 23.9852 6.85846 24.6416C7.51484 25.2979 8.40508 25.6667 9.33333 25.6667H18.6667C19.5949 25.6667 20.4852 25.2979 21.1415 24.6416C21.7979 23.9852 22.1667 23.0949 22.1667 22.1667V8.16669Z" fill="#065A4A"/>
</g>
<defs>
<clipPath id="clip0_0_1695">
<rect width="28" height="28" fill="white"/>
</clipPath>
</defs>
</svg>
