<svg width="23" height="28" viewBox="0 0 23 28" fill="none" xmlns="http://www.w3.org/2000/svg">
<g id="Group">
<path id="Vector" d="M6.91666 11.0833C6.91666 11.7261 7.066 12.3351 7.332 12.8765C6.74234 13.6317 6.40156 14.5513 6.35667 15.5085C5.21784 14.3172 4.58261 12.7325 4.58333 11.0845C4.5847 10.1273 4.7998 9.18249 5.21294 8.31905C5.62609 7.45562 6.22683 6.69534 6.97133 6.09373C7.71582 5.49212 8.58527 5.06436 9.51619 4.84169C10.4471 4.61901 11.416 4.60704 12.3522 4.80664C14.7812 5.30597 16.7493 7.26247 17.2673 9.68797C17.4237 10.4206 17.4528 11.1381 17.3735 11.8241C17.3365 12.1055 17.1977 12.3637 16.9834 12.5498C16.7691 12.7359 16.4942 12.8372 16.2103 12.8345H16.1578C15.4672 12.8345 14.9818 12.2196 15.0577 11.5336C15.1715 10.5453 14.9192 9.54955 14.3484 8.73474C13.7776 7.91993 12.9279 7.34259 11.9602 7.11197C11.3593 6.96804 10.7337 6.96205 10.1302 7.09444C9.52675 7.22683 8.9611 7.49418 8.4757 7.87641C7.9903 8.25864 7.59777 8.74584 7.32756 9.30145C7.05734 9.85706 6.91647 10.4666 6.9155 11.0845L6.91666 11.0833ZM2.37833 9.57247C2.70017 7.70269 3.62689 5.99025 5.01616 4.69814C6.8 3.0263 9.13566 2.20031 11.5845 2.35197C16.1963 2.65064 19.8025 6.6908 19.7488 11.5278C19.7267 13.5531 18.0303 15.1655 16.0062 15.1655H13.1992C13.0437 14.6259 12.6983 14.1608 12.2267 13.856C11.7551 13.5512 11.1892 13.4272 10.6334 13.5069C10.0776 13.5867 9.56938 13.8648 9.20254 14.2899C8.83571 14.715 8.63502 15.2585 8.6375 15.82C8.6375 16.4388 8.88333 17.0323 9.32092 17.4699C9.7585 17.9075 10.352 18.1533 10.9708 18.1533C11.5985 18.1533 12.1667 17.9025 12.5855 17.4988H16.0062C19.295 17.4988 22.0355 14.8796 22.0822 11.592C22.1685 5.5008 17.5928 0.402472 11.735 0.0244718C10.219 -0.0824803 8.69723 0.12651 7.26616 0.63821C5.83508 1.14991 4.52584 1.95317 3.42133 2.99714C1.68024 4.6343 0.512373 6.78842 0.0904978 9.14081C0.0622969 9.30833 0.0710213 9.47999 0.116061 9.64379C0.161101 9.80759 0.24137 9.95958 0.351258 10.0891C0.461145 10.2187 0.598 10.3227 0.752257 10.3938C0.906514 10.465 1.07445 10.5016 1.24433 10.5011C1.795 10.5011 2.28616 10.1173 2.37833 9.57364V9.57247ZM11 19.8333C6.68916 19.8333 2.95933 22.5073 1.71916 26.4856C1.67344 26.632 1.657 26.7858 1.67078 26.9385C1.68456 27.0912 1.7283 27.2396 1.79948 27.3754C1.87067 27.5112 1.96791 27.6316 2.08565 27.7297C2.20338 27.8279 2.33931 27.9019 2.48566 27.9475C2.78101 28.0375 3.09995 28.0076 3.37336 27.8641C3.64678 27.7206 3.85264 27.4752 3.94633 27.181C4.35583 25.8661 5.17367 24.7438 6.22366 23.8851L7.85816 26.3363C7.95363 26.4795 8.08296 26.5969 8.23468 26.6781C8.38641 26.7593 8.55583 26.8018 8.72791 26.8018C8.9 26.8018 9.06942 26.7593 9.22115 26.6781C9.37287 26.5969 9.5022 26.4795 9.59767 26.3363L11.0607 24.1406L12.5237 26.3363C12.6191 26.4795 12.7485 26.5969 12.9002 26.6781C13.0519 26.7593 13.2213 26.8018 13.3934 26.8018C13.5655 26.8018 13.7349 26.7593 13.8866 26.6781C14.0384 26.5969 14.1677 26.4795 14.2632 26.3363L15.8533 23.9516C16.8648 24.8021 17.6523 25.9 18.0513 27.181C18.097 27.3273 18.171 27.4632 18.2692 27.5809C18.3674 27.6986 18.4878 27.7958 18.6235 27.867C18.7592 27.9382 18.9077 27.9819 19.0603 27.9957C19.213 28.0095 19.3669 27.9931 19.5132 27.9475C19.6595 27.9018 19.7954 27.8278 19.9131 27.7296C20.0308 27.6314 20.128 27.511 20.1992 27.3753C20.2703 27.2396 20.3141 27.0911 20.3279 26.9385C20.3417 26.7858 20.3253 26.632 20.2797 26.4856C19.0395 22.5073 15.3097 19.8333 10.9988 19.8333H11Z" fill="#065A4A"/>
</g>
</svg>
