<svg width="24" height="25" viewBox="0 0 24 25" fill="none" xmlns="http://www.w3.org/2000/svg">
<path d="M15.7816 3.45312H8.07774C6.89196 3.45451 5.93107 4.41537 5.92969 5.60104V19.4746C5.93107 20.6604 6.89193 21.6213 8.0776 21.6227H15.7816C16.9674 21.6213 17.9283 20.6604 17.9297 19.4748V5.6012C17.9283 4.4154 16.9674 3.45449 15.7817 3.45312H15.7816ZM8.07774 20.4114C7.56058 20.4109 7.14146 19.9918 7.141 19.4747V5.60116C7.14148 5.084 7.5606 4.66488 8.07769 4.66442H15.7816C16.2988 4.66486 16.7179 5.08399 16.7184 5.60111V19.4746C16.7179 19.9918 16.2988 20.4109 15.7817 20.4114H15.7816L8.07774 20.4114ZM14.2392 4.05877H9.61204V4.86629C9.61204 5.31229 9.9736 5.67384 10.4196 5.67384H13.4721C13.9181 5.67384 14.2796 5.31229 14.2796 4.86632V4.05875L14.2392 4.05877ZM11.1625 19.3131H12.6968V18.1018H11.1625V19.3131Z" fill="#172E82"/>
</svg>
