<svg width="34" height="33" viewBox="0 0 34 33" fill="none" xmlns="http://www.w3.org/2000/svg">
<path d="M15.2883 12.75V14.2501H13.7883V16.5H15.2883V23.25H18.2883V16.5H20.2833L20.5383 14.2501H18.2883V12.9375C18.2883 12.3301 18.3483 12.0075 19.2858 12.0075H20.5383V9.75H18.5283C16.1284 9.75006 15.2883 10.875 15.2883 12.75Z" fill="white"/>
<path d="M16.7884 0C7.67569 0 0.288391 7.3873 0.288391 16.5C0.288391 25.6127 7.67569 33 16.7884 33C25.9011 33 33.2884 25.6127 33.2884 16.5C33.2884 7.3873 25.9011 0 16.7884 0ZM16.7884 31.5C8.5041 31.5 1.78841 24.7843 1.78841 16.5C1.78841 8.21571 8.5041 1.50002 16.7884 1.50002C25.0727 1.50002 31.7884 8.21571 31.7884 16.5C31.7884 24.7843 25.0727 31.5 16.7884 31.5Z" fill="white"/>
</svg>
