<svg width="34" height="33" viewBox="0 0 34 33" fill="none" xmlns="http://www.w3.org/2000/svg">
<path d="M15.2886 12.75V14.2501H13.7886V16.5H15.2886V23.25H18.2886V16.5H20.2836L20.5386 14.2501H18.2886V12.9375C18.2886 12.3301 18.3486 12.0075 19.286 12.0075H20.5386V9.75H18.5286C16.1286 9.75006 15.2886 10.875 15.2886 12.75Z" fill="#0E83CC"/>
<path d="M16.7886 0C7.67587 0 0.288574 7.3873 0.288574 16.5C0.288574 25.6127 7.67587 33 16.7886 33C25.9013 33 33.2886 25.6127 33.2886 16.5C33.2886 7.3873 25.9013 0 16.7886 0ZM16.7886 31.5C8.50428 31.5 1.78859 24.7843 1.78859 16.5C1.78859 8.21571 8.50428 1.50002 16.7886 1.50002C25.0729 1.50002 31.7886 8.21571 31.7886 16.5C31.7886 24.7843 25.0729 31.5 16.7886 31.5Z" fill="#0E83CC"/>
</svg>
