<svg width="17" height="16" viewBox="0 0 17 16" fill="none" xmlns="http://www.w3.org/2000/svg">
<g id="Social Media">
<path id="Vector" d="M0.5 2.02146C0.5 1.50798 0.680185 1.08437 1.04054 0.75063C1.4009 0.416872 1.86937 0.25 2.44595 0.25C3.01223 0.25 3.47039 0.414299 3.82046 0.742928C4.18082 1.08182 4.361 1.52339 4.361 2.06767C4.361 2.5606 4.18598 2.97136 3.83591 3.29999C3.47555 3.63888 3.00193 3.80833 2.41506 3.80833H2.39961C1.83333 3.80833 1.37517 3.63888 1.0251 3.29999C0.675027 2.96111 0.5 2.53492 0.5 2.02146ZM0.700772 15.5V5.21009H4.12934V15.5H0.700772ZM6.02896 15.5H9.45753V9.75427C9.45753 9.39484 9.49872 9.11756 9.58108 8.92246C9.72522 8.57329 9.94401 8.27804 10.2375 8.03673C10.5309 7.79539 10.899 7.67473 11.3417 7.67473C12.4949 7.67473 13.0714 8.45006 13.0714 10.0007V15.5H16.5V9.60023C16.5 8.08037 16.1396 6.92764 15.4189 6.14203C14.6982 5.35643 13.7458 4.96363 12.5618 4.96363C11.2336 4.96363 10.1988 5.53357 9.45753 6.67347V6.70428H9.44208L9.45753 6.67347V5.21009H6.02896C6.04954 5.5387 6.05984 6.5605 6.05984 8.27549C6.05984 9.99046 6.04954 12.3986 6.02896 15.5Z" fill="#065A4A"/>
</g>
</svg>
