<svg width="14" height="20" viewBox="0 0 14 20" fill="none" xmlns="http://www.w3.org/2000/svg">
<path d="M6.97877 5.13672C6.48407 5.13672 6.00048 5.28341 5.58916 5.55825C5.17783 5.83309 4.85725 6.22373 4.66793 6.68077C4.47862 7.13781 4.42909 7.64072 4.5256 8.12591C4.62211 8.6111 4.86033 9.05678 5.21013 9.40658C5.55993 9.75638 6.00561 9.9946 6.4908 10.0911C6.97599 10.1876 7.4789 10.1381 7.93594 9.94878C8.39298 9.75946 8.78362 9.43888 9.05846 9.02755C9.3333 8.61623 9.47999 8.13264 9.47999 7.63794C9.47924 6.97481 9.21547 6.33905 8.74657 5.87014C8.27766 5.40124 7.6419 5.13747 6.97877 5.13672ZM6.97877 8.88856C6.73142 8.88856 6.48962 8.81521 6.28396 8.67779C6.0783 8.54037 5.91801 8.34505 5.82335 8.11653C5.72869 7.88801 5.70393 7.63656 5.75218 7.39396C5.80044 7.15137 5.91955 6.92853 6.09445 6.75363C6.26935 6.57873 6.49219 6.45962 6.73478 6.41136C6.97738 6.36311 7.22883 6.38787 7.45735 6.48253C7.68587 6.57719 7.88119 6.73748 8.01861 6.94314C8.15603 7.1488 8.22938 7.3906 8.22938 7.63794C8.229 7.96951 8.09711 8.28739 7.86266 8.52184C7.62821 8.75629 7.31033 8.88817 6.97877 8.88856Z" fill="#172E82"/>
<path d="M11.7855 2.82813C10.5971 1.64006 9.01081 0.934304 7.33268 0.847064C5.65456 0.759823 4.0036 1.29729 2.69844 2.35572C1.39329 3.41416 0.526458 4.91853 0.265255 6.5785C0.00405253 8.23846 0.366993 9.93635 1.28403 11.3445L6.00927 18.5985C6.11443 18.7599 6.2582 18.8926 6.42757 18.9844C6.59694 19.0762 6.78654 19.1242 6.97918 19.1242C7.17183 19.1242 7.36143 19.0762 7.5308 18.9844C7.70016 18.8926 7.84394 18.7599 7.94909 18.5985L12.6745 11.3445C13.5254 10.0382 13.9014 8.47921 13.7396 6.92871C13.5777 5.37821 12.8878 3.93046 11.7855 2.82813ZM11.6266 10.6618L6.9792 17.7962L2.33173 10.6618C0.909157 8.47797 1.21427 5.55544 3.0572 3.71243C3.57224 3.19738 4.18369 2.78881 4.85663 2.51007C5.52956 2.23132 6.25082 2.08785 6.9792 2.08785C7.70759 2.08785 8.42884 2.23132 9.10178 2.51007C9.77472 2.78881 10.3862 3.19738 10.9012 3.71243C12.7441 5.55544 13.0492 8.47797 11.6266 10.6618Z" fill="#172E82"/>
</svg>
