<svg width="171" height="32" viewBox="0 0 171 32" fill="none" xmlns="http://www.w3.org/2000/svg">
<path d="M153.783 30.3993C153.753 30.5695 153.527 30.8276 153.436 31.0143C152.934 31.4783 147.823 31.9286 147.842 30.3471L147.763 2.38591C147.476 -0.411854 152.019 0.604019 153.718 0.958201C155.395 4.16781 156.621 7.6108 158.195 10.8698C158.416 11.3311 159.104 13.102 159.653 12.9675L165.242 1.01311C165.788 0.453011 168.883 0.485958 169.776 0.604019C170.579 0.711097 170.975 0.95271 171.005 1.83954L170.975 30.111C171.216 32.1647 165.258 31.514 165.258 30.6794V15.444C164.693 15.3287 164.627 15.7241 164.387 16.0782C163.161 17.8848 162.379 21.1247 161.093 23.0603C160.607 23.5325 159.041 23.4941 158.413 23.2827C157.244 22.8928 155.332 17.2506 154.401 15.7982C154.226 15.5264 154.433 15.3095 153.789 15.444V30.4048L153.783 30.3993Z" fill="white"/>
<path d="M128.383 31.0857C128.208 31.3603 122.232 32.0988 122.666 30.1055L122.896 0.996655C123.158 0.661692 123.483 0.647964 123.865 0.598543C126.43 0.258088 134.136 0.403605 136.58 1.01862C144.595 3.03115 144.663 16.729 137.654 20.2571L142.707 29.4493C143.942 31.9835 139.954 31.5195 138.339 31.3713C136.381 31.19 136.07 30.0616 135.165 28.5241C134.472 27.349 132.054 23.0713 131.789 22.0335C131.595 21.2757 131.522 15.5181 131.781 15.1447C132.453 14.6533 133.365 14.9937 134.196 14.8263C138.337 13.9861 137.037 7.20172 134.259 7.20172H128.386V31.0857H128.383Z" fill="white"/>
<path d="M105.643 0.131579C109.918 -0.538348 114.734 1.37808 116.605 5.45256C118.227 8.98615 118.304 22.5961 116.777 26.1462C113.174 34.5175 100.35 33.573 98.0253 24.6773C97.1129 21.1904 97.1375 10.0871 98.2165 6.66611C99.2353 3.44278 102.295 0.655989 105.643 0.131579ZM106.733 6.44372C105.264 6.71004 103.86 8.12128 103.592 9.60116C103.223 11.6274 103.259 19.7379 103.521 21.8987C104.095 26.6212 110.784 26.7063 111.661 22.3792C112.052 20.4408 111.956 12.2617 111.724 10.0871C111.445 7.46508 109.298 5.98246 106.733 6.44647V6.44372Z" fill="white"/>
<path d="M25.1462 0.61499V18.3214C25.1462 22.2037 21.6854 28.1699 18.4076 30.2153C8.73259 36.2474 -0.464365 25.8416 0.0191103 16.2622H6.30156C5.9328 22.923 13.9334 27.4972 17.7192 20.7375C17.935 20.3504 18.8637 18.2747 18.8637 18.0468V0.61499H25.1462Z" fill="white"/>
<path d="M52.1825 16.2622H45.9001C46.2825 11.1691 40.8933 6.03757 36.206 9.67549C34.9768 10.6282 33.3379 13.5111 33.3379 15.0267V31.9094H27.0555V14.4776C27.0555 9.74413 31.303 2.92131 35.8017 1.30689C45.3074 -2.10314 52.4748 7.52019 52.1825 16.2622Z" fill="white"/>
<path d="M81.1337 7.20169V12.2811L81.5434 12.6929H91.7865C92.1279 13.6621 92.453 19.0078 91.3768 19.0078H81.1337V30.9484L80.7239 31.3603H76.0804C76.034 31.3603 75.5996 30.9374 75.5396 30.8084V1.16686C75.5996 1.03781 76.034 0.61499 76.0804 0.61499H93.0129C94.081 2.07565 94.0892 5.71632 93.0129 7.20444H81.1337V7.20169Z" fill="white"/>
<path d="M66.6594 7.20169V24.7708C67.4133 24.8449 69.533 24.4962 69.9372 25.2485C70.4071 26.1189 70.5682 31.3575 69.2544 31.3575H58.058C57.091 31.3575 57.2139 26.1958 57.5554 25.3803C57.9542 24.4303 60.1066 24.8559 60.9233 24.7681V7.20169C58.8583 7.0699 57.6373 8.00341 57.3724 5.41705C57.2303 4.00856 57.1511 1.76814 58.0552 0.61499H69.2516C70.1667 0.61499 70.1039 5.69161 69.8799 6.46312C69.5412 7.62726 67.5964 7.10834 66.6567 7.20444L66.6594 7.20169Z" fill="white"/>
<path d="M6.30155 0.61499H0.019104V8.57724H6.30155V0.61499Z" fill="#E01544"/>
<path d="M52.1853 23.9497H45.9028V31.912H52.1853V23.9497Z" fill="#E01544"/>
</svg>
