<svg width="16" height="16" viewBox="0 0 16 16" fill="none" xmlns="http://www.w3.org/2000/svg">
<g clip-path="url(#clip0_2422_1737)">
<path d="M6.09961 16C4.93492 16 3.83648 15.6284 2.92304 14.9253C2.75242 14.7941 2.58836 14.6506 2.43523 14.4994C1.36898 13.4456 0.832418 12.0422 0.924606 10.5475C0.994293 9.41781 1.44929 8.32875 2.20648 7.48094C3.20929 6.35812 4.59179 5.73969 6.09992 5.73969C6.35898 5.73969 6.62054 5.75906 6.87804 5.79719L7.27804 5.85656V9.40625L6.66211 9.20281C6.48273 9.14344 6.29617 9.11344 6.10742 9.11344C5.63054 9.11344 5.18398 9.30031 4.84992 9.63937C4.51742 9.97687 4.33836 10.4231 4.34523 10.8966C4.35429 11.5069 4.67586 12.06 5.20523 12.3769C5.44898 12.5225 5.72648 12.6078 6.00836 12.6234C6.23086 12.6356 6.45054 12.6066 6.66179 12.5369C7.38398 12.2984 7.86929 11.6284 7.86929 10.87L7.87242 7.18875V0H11.2649L11.269 0.464375C11.2709 0.674688 11.2924 0.885 11.333 1.08875C11.4924 1.89 11.9418 2.60406 12.5984 3.09906C13.1812 3.53875 13.8768 3.77094 14.6093 3.77094C14.6265 3.77094 14.6265 3.77094 14.783 3.78187L15.219 3.8125V6.6875V7.15625L15.0627 7.15594H14.7512C14.7487 7.15594 14.7462 7.15594 14.7434 7.15594H14.5937C14.593 7.15594 14.5921 7.15594 14.5912 7.15594C13.6877 7.15594 12.8412 6.98375 12.0021 6.62969C11.7521 6.52406 11.5087 6.40344 11.2737 6.26875L11.2843 10.8878C11.2787 12.2541 10.7387 13.5356 9.76398 14.4991C8.97304 15.2806 7.97492 15.78 6.87742 15.9425C6.62148 15.9806 6.35992 16 6.09961 16ZM6.09961 6.67719C4.86242 6.67719 3.72804 7.18437 2.90554 8.10531C2.28804 8.79688 1.91679 9.68469 1.85992 10.605C1.78492 11.8253 2.22304 12.9716 3.09398 13.8322C3.21992 13.9566 3.35461 14.0744 3.49461 14.1822C4.24273 14.7581 5.14367 15.0625 6.09961 15.0625C6.31398 15.0625 6.52929 15.0466 6.74023 15.0153C7.63929 14.8822 8.45711 14.4731 9.10523 13.8325C9.90148 13.0456 10.3424 11.9997 10.3471 10.8872L10.3324 4.4375L11.0896 5.02156C11.4805 5.32312 11.9105 5.57375 12.3671 5.76656C12.9912 6.03 13.6202 6.17625 14.2812 6.21094V4.69688C13.4643 4.63562 12.6927 4.34531 12.0337 3.84812C11.193 3.21438 10.6177 2.29938 10.4134 1.27219C10.3915 1.16188 10.3737 1.05031 10.3605 0.937813H8.80961V7.18906L8.80648 10.8703C8.80648 12.0338 8.06273 13.0612 6.95554 13.4269C6.63273 13.5334 6.29679 13.5778 5.95679 13.5594C5.52367 13.5356 5.09742 13.4047 4.72367 13.1812C3.91336 12.6966 3.42117 11.8475 3.40742 10.9103C3.39679 10.1841 3.67148 9.49906 4.18148 8.98125C4.69304 8.46187 5.37679 8.17594 6.10679 8.17594C6.18492 8.17594 6.26242 8.17938 6.33992 8.18594V6.68375C6.25992 6.67938 6.17961 6.67719 6.09961 6.67719Z" fill="#0D3853"/>
</g>
<defs>
<clipPath id="clip0_2422_1737">
<rect width="16" height="16" fill="white"/>
</clipPath>
</defs>
</svg>
