<svg width="33" height="33" viewBox="0 0 33 33" fill="none" xmlns="http://www.w3.org/2000/svg">
<g clip-path="url(#clip0_18_304)">
<path d="M17.927 15.3515L23.5111 9H22.1879L17.3392 14.5149L13.4666 9H9L14.8562 17.3395L9 24H10.3233L15.4436 18.1761L19.5334 24H24L17.9267 15.3515H17.927ZM16.1146 17.413L15.5212 16.5825L10.8001 9.97475H12.8327L16.6427 15.3075L17.236 16.1379L22.1885 23.0696H20.156L16.1146 17.4133V17.413Z" fill="#0E83CC"/>
<path d="M16.5 0C7.3873 0 0 7.3873 0 16.5C0 25.6127 7.3873 33 16.5 33C25.6127 33 33 25.6127 33 16.5C33 7.3873 25.6127 0 16.5 0ZM16.5 31.5C8.21571 31.5 1.50002 24.7843 1.50002 16.5C1.50002 8.21571 8.21571 1.50002 16.5 1.50002C24.7843 1.50002 31.5 8.21571 31.5 16.5C31.5 24.7843 24.7843 31.5 16.5 31.5Z" fill="#0E83CC"/>
</g>
<defs>
<clipPath id="clip0_18_304">
<rect width="33" height="33" fill="white"/>
</clipPath>
</defs>
</svg>
