<svg width="40" height="31" viewBox="0 0 40 31" fill="none" xmlns="http://www.w3.org/2000/svg">
<path d="M26.0376 13.7871L17.5788 9.15887C17.0925 8.89275 16.5176 8.90268 16.0408 9.18516C15.5638 9.46792 15.2793 9.96744 15.2793 10.5219V19.699C15.2793 20.2508 15.5621 20.7494 16.0359 21.0325C16.2833 21.1803 16.5576 21.2545 16.8325 21.2545C17.0843 21.2545 17.3367 21.1922 17.5689 21.0672L26.028 16.5187C26.5301 16.2485 26.8435 15.7265 26.8459 15.156C26.8479 14.5855 26.5383 14.0611 26.0376 13.7871ZM17.523 18.5445V11.6857L23.845 15.1449L17.523 18.5445Z" fill="#0E83CC" stroke="#162052" stroke-width="0.5"/>
<path d="M39.0065 7.84454L39.0047 7.82702C38.9723 7.51884 38.6495 4.77763 37.3169 3.38337C35.7766 1.74343 34.0303 1.54421 33.1905 1.44869C33.121 1.4408 33.0573 1.4335 33.0003 1.4259L32.9334 1.41889C27.8717 1.05083 20.2273 1.00058 20.1508 1.00029L20.144 1L20.1373 1.00029C20.0608 1.00058 12.4164 1.05083 7.3091 1.41889L7.24162 1.4259C7.18729 1.43321 7.1274 1.43993 7.06226 1.44752C6.23207 1.54333 4.5045 1.74285 2.9598 3.44208C1.69056 4.82145 1.32366 7.50394 1.28598 7.8054L1.2816 7.84454C1.27021 7.97278 1 11.0257 1 14.0905V16.9556C1 20.0205 1.27021 23.0734 1.2816 23.2019L1.28364 23.2212C1.31607 23.5244 1.63856 26.2154 2.96506 27.6102C4.41336 29.1952 6.24463 29.405 7.22964 29.5177C7.38534 29.5355 7.51942 29.5507 7.61085 29.5668L7.69936 29.5791C10.622 29.8572 19.7853 29.9942 20.1738 29.9997L20.1855 30L20.1972 29.9997C20.2737 29.9994 27.9178 29.9492 32.9796 29.5811L33.0465 29.5741C33.1104 29.5656 33.1823 29.558 33.2612 29.5499C34.0867 29.4622 35.8049 29.2802 37.3283 27.6041C38.5975 26.2244 38.9647 23.5419 39.0021 23.2408L39.0065 23.2016C39.0179 23.0731 39.2884 20.0205 39.2884 16.9556V14.0905C39.2881 11.0257 39.0179 7.97307 39.0065 7.84454ZM37.0443 16.9556C37.0443 19.7923 36.7966 22.7138 36.7733 22.9819C36.678 23.7207 36.291 25.4179 35.6726 26.09C34.7191 27.139 33.7397 27.243 33.0246 27.3187C32.9381 27.3277 32.8581 27.3365 32.7856 27.3456C27.8898 27.6996 20.534 27.7539 20.1952 27.756C19.8151 27.7504 10.7858 27.6123 7.95233 27.3491C7.80715 27.3254 7.65029 27.3073 7.48495 27.2886C6.64629 27.1925 5.49828 27.061 4.61551 26.09L4.59477 26.0678C3.98717 25.4348 3.61122 23.8478 3.51569 22.9907C3.49787 22.788 3.24373 19.8321 3.24373 16.9556V14.0905C3.24373 11.257 3.49086 8.3388 3.51482 8.06509C3.62845 7.19488 4.02281 5.60052 4.61551 4.95611C5.59818 3.87529 6.63431 3.75552 7.31961 3.67636C7.38505 3.66876 7.4461 3.66175 7.50248 3.65445C12.4696 3.29865 19.8782 3.24578 20.144 3.24373C20.4099 3.24549 27.8159 3.29865 32.7389 3.65445C32.7993 3.66204 32.8654 3.66964 32.9363 3.67782C33.6412 3.75815 34.7066 3.87967 35.6843 4.92252L35.6933 4.93216C36.3009 5.56517 36.6769 7.17998 36.7724 8.05428C36.7893 8.24562 37.0443 11.208 37.0443 14.0905V16.9556Z" fill="#0E83CC" stroke="#162052" stroke-width="0.5"/>
</svg>
