<svg width="16" height="16" viewBox="0 0 16 16" fill="none" xmlns="http://www.w3.org/2000/svg">
<g clip-path="url(#clip0_2422_1725)">
<path d="M7.99925 13.8123C7.99791 13.8123 7.99644 13.8123 7.99498 13.8123C7.51219 13.809 3.24412 13.77 2.03489 13.443C1.18979 13.2158 0.522675 12.5495 0.294892 11.7042C-0.021515 10.5164 -0.00137338 8.22938 0.000823893 8.04676C-0.0012513 7.865 -0.0216371 5.55909 0.293915 4.36145C0.294281 4.36036 0.294526 4.35913 0.294892 4.35804C0.520112 3.52246 1.20224 2.83545 2.03281 2.60767C2.03489 2.60706 2.03708 2.60657 2.03916 2.60596C3.23472 2.29175 7.51121 2.2533 7.99498 2.25H8.00365C8.48766 2.2533 12.7671 2.29224 13.9652 2.61975C14.8081 2.84631 15.4747 3.51184 15.7031 4.35596C16.0314 5.55445 16.001 7.86537 15.9977 8.06044C16 8.25257 16.0192 10.5191 15.7046 11.7129C15.7043 11.7141 15.704 11.7152 15.7037 11.7163C15.4758 12.5615 14.8088 13.2279 13.9628 13.4553C13.9617 13.4557 13.9604 13.456 13.9593 13.4563C12.7639 13.7704 8.48729 13.8089 8.00365 13.8123C8.00218 13.8123 8.00072 13.8123 7.99925 13.8123ZM1.50217 4.68201C1.22434 5.73914 1.25058 8.01564 1.25083 8.03858V8.05506C1.24253 8.68641 1.2717 10.5148 1.50229 11.3808C1.61411 11.7954 1.94309 12.1239 2.36033 12.2361C3.25254 12.4774 6.72874 12.5534 7.99925 12.5623C9.27306 12.5534 12.7544 12.4795 13.64 12.2478C14.0559 12.1353 14.3838 11.8079 14.4963 11.3927C14.7272 10.5141 14.7561 8.69459 14.7477 8.06727C14.7477 8.06068 14.7477 8.05409 14.7478 8.0475C14.7593 7.40858 14.7367 5.55884 14.4974 4.68592C14.4972 4.68506 14.4969 4.68421 14.4968 4.68335C14.3845 4.26685 14.0554 3.93836 13.6382 3.82617C12.7546 3.5846 9.27281 3.50891 7.99925 3.5C6.7263 3.50891 3.24839 3.58264 2.36008 3.81409C1.95078 3.92762 1.61435 4.26783 1.50217 4.68201ZM6.40611 10.5623V5.49988L10.7811 8.03114L6.40611 10.5623Z" fill="#0D3853"/>
</g>
<defs>
<clipPath id="clip0_2422_1725">
<rect width="16" height="16" fill="white"/>
</clipPath>
</defs>
</svg>
