<svg width="12" height="12" viewBox="0 0 12 12" fill="none" xmlns="http://www.w3.org/2000/svg">
<g id="fi-rr-angle-small-left">
<path id="vector" d="M5.29993 6.35491C5.25307 6.30843 5.21587 6.25313 5.19048 6.1922C5.1651 6.13127 5.15203 6.06591 5.15203 5.99991C5.15203 5.9339 5.1651 5.86855 5.19048 5.80762C5.21587 5.74669 5.25307 5.69139 5.29993 5.64491L7.59493 3.35491C7.64179 3.30843 7.67899 3.25313 7.70438 3.1922C7.72976 3.13127 7.74283 3.06591 7.74283 2.99991C7.74283 2.9339 7.72976 2.86855 7.70438 2.80762C7.67899 2.74669 7.64179 2.69139 7.59493 2.64491C7.50125 2.55178 7.37452 2.49951 7.24243 2.49951C7.11034 2.49951 6.98361 2.55178 6.88993 2.64491L4.59493 4.93991C4.31403 5.22116 4.15625 5.60241 4.15625 5.99991C4.15625 6.39741 4.31403 6.77866 4.59493 7.05991L6.88993 9.35491C6.98306 9.44728 7.10876 9.49936 7.23993 9.49991C7.30573 9.50029 7.37096 9.48768 7.43188 9.46279C7.4928 9.43791 7.54821 9.40125 7.59493 9.35491C7.64179 9.30843 7.67899 9.25313 7.70438 9.1922C7.72976 9.13127 7.74283 9.06591 7.74283 8.99991C7.74283 8.9339 7.72976 8.86855 7.70438 8.80762C7.67899 8.74669 7.64179 8.69139 7.59493 8.64491L5.29993 6.35491Z" fill="#444C60"/>
</g>
</svg>
