<svg width="24" height="24" viewBox="0 0 24 24" fill="none" xmlns="http://www.w3.org/2000/svg">
<g id="user-md ">
<path id="Vector" d="M12.4679 11.8387C15.2699 11.8387 17.5486 9.55999 17.5486 6.75797C17.5486 3.95595 15.2699 1.67725 12.4679 1.67725C9.66586 1.67725 7.38715 3.95595 7.38715 6.75797C7.38715 9.55999 9.66586 11.8387 12.4679 11.8387ZM12.4679 3.37082C14.3359 3.37082 15.855 4.88996 15.855 6.75797C15.855 8.62599 14.3359 10.1451 12.4679 10.1451C10.5999 10.1451 9.08073 8.62599 9.08073 6.75797C9.08073 4.88996 10.5999 3.37082 12.4679 3.37082ZM20.9358 21.1534C20.9358 21.6216 20.5572 22.0002 20.089 22.0002C19.6207 22.0002 19.2422 21.6216 19.2422 21.1534C19.2422 18.7942 17.856 16.7518 15.855 15.7983V17.9119C16.8407 18.2616 17.5486 19.2024 17.5486 20.3066V21.1534C17.5486 21.6216 17.1701 22.0002 16.7018 22.0002C16.2335 22.0002 15.855 21.6216 15.855 21.1534V20.3066C15.855 19.8392 15.4757 19.4598 15.0082 19.4598C14.5408 19.4598 14.1615 19.8392 14.1615 20.3066V21.1534C14.1615 21.6216 13.7829 22.0002 13.3147 22.0002C12.8464 22.0002 12.4679 21.6216 12.4679 21.1534V20.3066C12.4679 19.2024 13.1758 18.2616 14.1615 17.9119V15.2868C13.8846 15.247 13.6017 15.2259 13.3147 15.2259H11.6211C11.0326 15.2259 10.4644 15.3122 9.92751 15.4731V17.994C10.4339 18.287 10.7743 18.834 10.7743 19.4606C10.7743 20.3963 10.0164 21.1542 9.08073 21.1542C8.14503 21.1542 7.38715 20.3963 7.38715 19.4606C7.38715 18.834 7.72756 18.287 8.23394 17.994V16.2928C6.69956 17.3657 5.69358 19.1448 5.69358 21.1542C5.69358 21.6225 5.31506 22.001 4.84679 22.001C4.37851 22.001 4 21.6225 4 21.1542C4 16.9516 7.41848 13.5331 11.6211 13.5331H13.3147C17.5173 13.5331 20.9358 16.9508 20.9358 21.1534Z" fill="#065A4A"/>
</g>
</svg>
