<svg width="201" height="77" viewBox="0 0 201 77" fill="none" xmlns="http://www.w3.org/2000/svg">
<g id="Tabby" clip-path="url(#clip0_0_1814)">
<g id="Group 39465">
<path id="Vector" d="M174.361 76.9811H25.7901C11.476 76.9811 0 66.1646 0 52.9317V24.0494C0 10.7014 11.5994 0 25.7901 0H174.361C188.675 0 200.151 10.8165 200.151 24.0494V52.9317C200.151 66.1646 188.675 76.9811 174.361 76.9811Z" fill="#5AFEAE"/>
<g id="Group">
<path id="Vector_2" d="M146.414 26.9043L139.004 57.6386V57.7356H144.807L152.218 27.0013H146.414V26.9043ZM54.8108 44.356C53.918 44.8407 53.0252 45.0346 52.043 45.0346C49.9896 45.0346 48.8289 44.6468 48.6503 42.8047V42.7078C48.6503 42.6108 48.6503 42.6108 48.6503 42.5138V37.1814V36.5997V32.8185V31.2672V30.6855V27.0982L43.4719 27.7769C46.954 27.0013 48.9182 24.0927 48.9182 21.0871V19.245H43.1148V27.8739L42.7577 27.9708V43.8712C42.9363 48.3311 45.704 51.0458 50.0788 51.0458C51.6859 51.0458 53.3823 50.658 54.7215 49.9793L54.8108 44.356Z" fill="#292929"/>
<path id="Vector_3" d="M55.7024 25.7425L39.453 28.4571V32.917L55.7024 30.2023V25.7425ZM55.7024 32.3353L39.453 35.05V39.3159L55.7024 36.6012V32.3353ZM73.916 34.3713C73.6481 29.4267 70.7911 26.4211 66.1484 26.4211C63.4699 26.4211 61.2379 27.5846 59.7201 29.7175C58.2023 31.8505 57.3987 34.953 57.3987 38.7342C57.3987 42.5154 58.2023 45.6179 59.7201 47.7509C61.2379 49.8839 63.4699 50.9504 66.1484 50.9504C70.7911 50.9504 73.6481 48.0418 73.916 43.0002V50.4656H79.7193V27.0028L73.916 27.9724V34.3713ZM74.2731 38.7342C74.2731 43.0971 72.1303 46.0057 68.8269 46.0057C65.4341 46.0057 63.3806 43.291 63.3806 38.7342C63.3806 34.1774 65.4341 31.4627 68.8269 31.4627C70.4339 31.4627 71.8625 32.1414 72.8446 33.4987C73.7374 34.7591 74.2731 36.6012 74.2731 38.7342ZM96.5936 26.4211C91.951 26.4211 89.0939 29.3297 88.8261 34.3713V20.1191L83.0227 21.0887V50.4656H88.8261V43.0002C89.0939 48.0418 91.951 50.9504 96.5936 50.9504C102.04 50.9504 105.343 46.3936 105.343 38.7342C105.343 31.0749 102.04 26.4211 96.5936 26.4211ZM94.0045 46.0057C90.701 46.0057 88.5582 43.1941 88.5582 38.7342C88.5582 36.6012 89.0939 34.7591 89.9868 33.4987C90.9689 32.1414 92.3081 31.4627 94.0045 31.4627C97.3972 31.4627 99.4507 34.1774 99.4507 38.7342C99.4507 43.291 97.3972 46.0057 94.0045 46.0057ZM121.057 26.4211C116.414 26.4211 113.557 29.3297 113.289 34.3713V20.1191L107.486 21.0887V50.4656H113.289V43.0002C113.557 48.0418 116.414 50.9504 121.057 50.9504C126.503 50.9504 129.807 46.3936 129.807 38.7342C129.807 31.0749 126.503 26.4211 121.057 26.4211ZM118.468 46.0057C115.164 46.0057 113.022 43.1941 113.022 38.7342C113.022 36.6012 113.557 34.7591 114.45 33.4987C115.432 32.1414 116.771 31.4627 118.468 31.4627C121.861 31.4627 123.914 34.1774 123.914 38.7342C123.914 43.291 121.861 46.0057 118.468 46.0057ZM129.807 26.9059H135.967L140.967 50.4656H135.431L129.807 26.9059ZM156.948 29.3297V27.4876H156.234V27.0998H158.109V27.4876H157.395V29.3297H156.948ZM158.198 29.3297V27.0028H158.913L159.27 28.0693C159.359 28.3602 159.448 28.4572 159.448 28.5541C159.448 28.4572 159.538 28.3602 159.627 28.0693L159.984 27.0028H160.698V29.3297H160.252V27.4876L159.627 29.3297H159.181L158.645 27.4876V29.3297H158.198Z" fill="#292929"/>
</g>
</g>
</g>
<defs>
<clipPath id="clip0_0_1814">
<rect width="200.151" height="76.9811" fill="white"/>
</clipPath>
</defs>
</svg>
