<svg width="12" height="13" viewBox="0 0 12 13" fill="none" xmlns="http://www.w3.org/2000/svg">
<g id="check-circle (7) 2" clip-path="url(#clip0_138_261)">
<circle id="Ellipse 23" cx="6" cy="6.5" r="6" fill="#072764"/>
<path id="Vector" d="M8.76926 5.79071C9.06826 5.50371 9.07726 5.02871 8.79076 4.73021C8.50276 4.43071 8.02926 4.42221 7.73076 4.70921L5.42076 6.92821C5.32526 7.02321 5.16626 7.02221 5.04776 6.90721L4.25176 6.19221C3.94226 5.91471 3.46926 5.94121 3.19226 6.24871C2.91526 6.55671 2.94076 7.03071 3.24876 7.30771L4.02226 8.00171C4.36076 8.33221 4.80476 8.49721 5.24776 8.49721C5.69076 8.49721 6.13276 8.33221 6.46676 8.00271L8.76926 5.79071Z" fill="white"/>
</g>
<defs>
<clipPath id="clip0_138_261">
<rect width="12" height="12" fill="white" transform="translate(0 0.5)"/>
</clipPath>
</defs>
</svg>
