<svg width="32" height="32" viewBox="0 0 32 32" fill="none" xmlns="http://www.w3.org/2000/svg">
<g id="fi-rr-arrow-small-left">
<path id="vector" d="M6.66667 14.6666H20L15.6133 10.28C15.4884 10.156 15.3892 10.0085 15.3215 9.84606C15.2538 9.68358 15.2189 9.50931 15.2189 9.33329C15.2189 9.15728 15.2538 8.983 15.3215 8.82052C15.3892 8.65804 15.4884 8.51058 15.6133 8.38662C15.8631 8.13829 16.2011 7.9989 16.5533 7.9989C16.9056 7.9989 17.2435 8.13829 17.4933 8.38662L23.2133 14.12C23.7141 14.6178 23.997 15.2939 24 16C23.9935 16.7014 23.7109 17.3721 23.2133 17.8666L17.4933 23.6C17.369 23.7234 17.2216 23.8211 17.0595 23.8876C16.8974 23.9541 16.7238 23.988 16.5486 23.9874C16.3734 23.9867 16.2001 23.9516 16.0384 23.884C15.8768 23.8164 15.7301 23.7176 15.6067 23.5933C15.4832 23.469 15.3855 23.3216 15.319 23.1595C15.2525 22.9974 15.2186 22.8238 15.2193 22.6486C15.2199 22.4734 15.255 22.3 15.3226 22.1384C15.3902 21.9768 15.489 21.8301 15.6133 21.7066L20 17.3333H6.66667C6.31304 17.3333 5.9739 17.1928 5.72386 16.9428C5.47381 16.6927 5.33333 16.3536 5.33333 16C5.33333 15.6463 5.47381 15.3072 5.72386 15.0571C5.9739 14.8071 6.31304 14.6666 6.66667 14.6666Z" fill="#065A4A"/>
</g>
</svg>
