<svg width="54" height="54" viewBox="0 0 54 54" fill="none" xmlns="http://www.w3.org/2000/svg">
<g id="Icon">
<path id="Vector" d="M11.6859 36.1053C11.7352 33.9464 12.2529 31.7405 13.3166 29.6129L22.1658 11.9144M11.6859 36.1053C11.4994 44.2663 18.0057 51.75 26.9981 51.75C35.9882 51.75 42.4934 44.2701 42.3104 36.1116M11.6859 36.1053L11.4114 36C5.84209 33.687 2.81343 27.3593 5.47869 21.5863L13.7447 3.68179C14.6261 1.77274 17.4837 1.77274 18.365 3.68179L22.1658 11.9144M22.1658 11.9144L24.9857 6.27491C25.8148 4.61655 28.1813 4.61657 29.0105 6.27491L31.8304 11.9144M42.3104 36.1116C42.2618 33.9507 41.7443 31.7425 40.6796 29.6129L31.8304 11.9144M42.3104 36.1116L42.5847 36C48.1541 33.687 51.1826 27.3593 48.5175 21.5863L40.2515 3.68179C39.3701 1.77274 36.5124 1.77274 35.6311 3.68179L31.8304 11.9144M27.748 27C28.9907 27 29.998 28.0073 29.998 29.25V32.7751C29.998 32.8993 30.0988 33.0001 30.223 33.0001H33.7481C34.9907 33.0001 35.9981 34.0074 35.9981 35.2501V36.7499C35.9981 37.9926 34.9907 38.9999 33.7481 38.9999H30.223C30.0988 38.9999 29.998 39.1007 29.998 39.2249V42.75C29.998 43.9927 28.9907 45 27.748 45H26.2481C25.0055 45 23.9981 43.9927 23.9981 42.75V39.2249C23.9981 39.1007 23.8973 38.9999 23.7731 38.9999H20.248C19.0054 38.9999 17.998 37.9926 17.998 36.7499V35.2501C17.998 34.0074 19.0054 33.0001 20.248 33.0001H23.7731C23.8973 33.0001 23.9981 32.8993 23.9981 32.7751V29.25C23.9981 28.0073 25.0055 27 26.2481 27H27.748Z" stroke="#CFDBF4" stroke-opacity="0.2" stroke-width="2.23201"/>
</g>
</svg>
