<svg width="54" height="54" viewBox="0 0 54 54" fill="none" xmlns="http://www.w3.org/2000/svg">
<g id="svg621" clip-path="url(#clip0_171_105)">
<g id="g627">
<g id="g629">
<g id="Clip path group">
<mask id="mask0_171_105" style="mask-type:luminance" maskUnits="userSpaceOnUse" x="-1" y="-1" width="55" height="55">
<g id="clipPath635">
<path id="path633" d="M-0.00195312 -0.000484467H53.998V53.9995H-0.00195312V-0.000484467Z" fill="white"/>
</g>
</mask>
<g mask="url(#mask0_171_105)">
<g id="g631">
<g id="g637">
<path id="path639 (Stroke)" fill-rule="evenodd" clip-rule="evenodd" d="M9.26411 49.0858C9.60872 51.8926 11.9974 53.9994 14.8282 53.9994H21.3308C21.7677 53.9994 22.1218 53.6452 22.1218 53.2084C22.1218 52.7715 21.7677 52.4174 21.3308 52.4174H14.8282C12.7936 52.4174 11.0812 50.9036 10.8343 48.893L10.8343 48.893L6.77348 15.8205C6.72024 15.3869 6.32557 15.0786 5.89196 15.1318C5.45835 15.1851 5.15 15.5797 5.20324 16.0133L9.26411 49.0858C9.26411 49.0858 9.26411 49.0858 9.26411 49.0858Z" fill="#E9C85A"/>
</g>
<g id="g641">
<path id="path643 (Stroke)" fill-rule="evenodd" clip-rule="evenodd" d="M20.5119 53.2084C20.5119 53.6452 20.866 53.9994 21.3029 53.9994H32.5578C35.3886 53.9994 37.7773 51.8926 38.1219 49.0857L41.8943 18.3633C41.9475 17.9297 41.6392 17.535 41.2056 17.4818C40.772 17.4285 40.3773 17.7369 40.3241 18.1705L36.5517 48.8929C36.3048 50.9036 34.5924 52.4174 32.5578 52.4174H21.3029C20.866 52.4174 20.5119 52.7715 20.5119 53.2084Z" fill="#E9C85A"/>
</g>
<g id="g645">
<path id="path647 (Stroke)" fill-rule="evenodd" clip-rule="evenodd" d="M21.9668 33.6023C21.9668 34.0392 22.3209 34.3933 22.7578 34.3933H39.2262C39.6631 34.3933 40.0172 34.0392 40.0172 33.6023C40.0172 33.1654 39.6631 32.8113 39.2262 32.8113H22.7578C22.3209 32.8113 21.9668 33.1654 21.9668 33.6023Z" fill="#E9C85A"/>
</g>
<g id="g649">
<path id="path651 (Stroke)" fill-rule="evenodd" clip-rule="evenodd" d="M8.34804 41.4314C8.34804 41.8683 8.70219 42.2224 9.13906 42.2224H19.8696C21.9001 42.2224 23.5495 40.5799 23.5495 38.5496V27.221C23.5495 25.1907 21.9001 23.5482 19.8696 23.5482H7.04687C6.61001 23.5482 6.25586 23.9024 6.25586 24.3392C6.25586 24.7761 6.61001 25.1303 7.04687 25.1303H19.8696C21.0301 25.1303 21.9674 26.0681 21.9674 27.221V38.5496C21.9674 39.7025 21.03 40.6404 19.8696 40.6404H9.13906C8.70219 40.6404 8.34804 40.9945 8.34804 41.4314Z" fill="#E9C85A"/>
</g>
<g id="g653">
<path id="path655 (Stroke)" fill-rule="evenodd" clip-rule="evenodd" d="M6.98645 30.3137C6.98645 30.7506 7.3406 31.1047 7.77747 31.1047H16.1822C16.619 31.1047 16.9732 30.7506 16.9732 30.3137C16.9732 29.8769 16.619 29.5227 16.1822 29.5227H7.77747C7.3406 29.5227 6.98645 29.8769 6.98645 30.3137Z" fill="#E9C85A"/>
</g>
<g id="g657">
<path id="path659 (Stroke)" fill-rule="evenodd" clip-rule="evenodd" d="M7.60742 35.3898C7.60742 35.8266 7.96157 36.1808 8.39844 36.1808H16.1817C16.6186 36.1808 16.9727 35.8266 16.9727 35.3898C16.9727 34.9529 16.6186 34.5988 16.1817 34.5988H8.39844C7.96157 34.5988 7.60742 34.9529 7.60742 35.3898Z" fill="#E9C85A"/>
</g>
<g id="g661">
<path id="path663 (Stroke)" fill-rule="evenodd" clip-rule="evenodd" d="M2.82422 13.9938C2.82422 15.4929 4.03949 16.7084 5.53877 16.7084H38.9878C39.4246 16.7084 39.7788 16.3542 39.7788 15.9174C39.7788 15.4805 39.4246 15.1263 38.9878 15.1263H5.53877C4.91328 15.1263 4.40625 14.6193 4.40625 13.9938V7.39148C4.40625 6.76603 4.91328 6.25895 5.53877 6.25895H41.1087C41.5456 6.25895 41.8998 5.9048 41.8998 5.46794C41.8998 5.03107 41.5456 4.67692 41.1087 4.67692H5.53877C4.03949 4.67692 2.82422 5.89236 2.82422 7.39148V13.9938Z" fill="#E9C85A"/>
</g>
<g id="g665">
<path id="path667 (Stroke)" fill-rule="evenodd" clip-rule="evenodd" d="M7.50391 13.7837C7.94077 13.7837 8.29492 13.4295 8.29492 12.9927V8.39202C8.29492 7.95516 7.94077 7.60101 7.50391 7.60101C7.06704 7.60101 6.71289 7.95516 6.71289 8.39202V12.9927C6.71289 13.4295 7.06704 13.7837 7.50391 13.7837Z" fill="#E9C85A"/>
</g>
<g id="g669">
<path id="path671 (Stroke)" fill-rule="evenodd" clip-rule="evenodd" d="M11.5505 13.7836C11.9874 13.7836 12.3416 13.4294 12.3416 12.9926V8.3919C12.3416 7.95504 11.9874 7.60089 11.5505 7.60089C11.1137 7.60089 10.7595 7.95504 10.7595 8.3919V12.9926C10.7595 13.4294 11.1137 13.7836 11.5505 13.7836Z" fill="#E9C85A"/>
</g>
<g id="g673">
<path id="path675 (Stroke)" fill-rule="evenodd" clip-rule="evenodd" d="M15.5978 13.7837C16.0346 13.7837 16.3888 13.4295 16.3888 12.9927V8.39202C16.3888 7.95516 16.0346 7.60101 15.5978 7.60101C15.1609 7.60101 14.8068 7.95516 14.8068 8.39202V12.9927C14.8068 13.4295 15.1609 13.7837 15.5978 13.7837Z" fill="#E9C85A"/>
</g>
<g id="g677">
<path id="path679 (Stroke)" fill-rule="evenodd" clip-rule="evenodd" d="M19.6465 13.7837C20.0834 13.7837 20.4375 13.4295 20.4375 12.9927V8.39202C20.4375 7.95516 20.0834 7.60101 19.6465 7.60101C19.2096 7.60101 18.8555 7.95516 18.8555 8.39202V12.9927C18.8555 13.4295 19.2096 13.7837 19.6465 13.7837Z" fill="#E9C85A"/>
</g>
<g id="g681">
<path id="path683 (Stroke)" fill-rule="evenodd" clip-rule="evenodd" d="M23.6934 13.7837C24.1302 13.7837 24.4844 13.4295 24.4844 12.9927V8.39202C24.4844 7.95516 24.1302 7.60101 23.6934 7.60101C23.2565 7.60101 22.9023 7.95516 22.9023 8.39202V12.9927C22.9023 13.4295 23.2565 13.7837 23.6934 13.7837Z" fill="#E9C85A"/>
</g>
<g id="g685">
<path id="path687 (Stroke)" fill-rule="evenodd" clip-rule="evenodd" d="M27.7402 13.7837C28.1771 13.7837 28.5312 13.4295 28.5312 12.9927V8.39202C28.5312 7.95516 28.1771 7.60101 27.7402 7.60101C27.3034 7.60101 26.9492 7.95516 26.9492 8.39202V12.9927C26.9492 13.4295 27.3034 13.7837 27.7402 13.7837Z" fill="#E9C85A"/>
</g>
<g id="g689">
<path id="path691 (Stroke)" fill-rule="evenodd" clip-rule="evenodd" d="M31.7891 13.7837C32.2259 13.7837 32.5801 13.4295 32.5801 12.9927V8.39202C32.5801 7.95516 32.2259 7.60101 31.7891 7.60101C31.3522 7.60101 30.998 7.95516 30.998 8.39202V12.9927C30.998 13.4295 31.3522 13.7837 31.7891 13.7837Z" fill="#E9C85A"/>
</g>
<g id="g693">
<path id="path695 (Stroke)" fill-rule="evenodd" clip-rule="evenodd" d="M35.8361 13.7837C36.2729 13.7837 36.6271 13.4295 36.6271 12.9927V8.39202C36.6271 7.95516 36.2729 7.60101 35.8361 7.60101C35.3992 7.60101 35.045 7.95516 35.045 8.39202V12.9927C35.045 13.4295 35.3992 13.7837 35.8361 13.7837Z" fill="#E9C85A"/>
</g>
<g id="g697">
<path id="path699 (Stroke)" fill-rule="evenodd" clip-rule="evenodd" d="M44.3799 18.4817C41.5008 18.4817 39.17 16.1539 39.17 13.2867C39.17 10.8321 40.5615 7.8718 42.0541 5.43295C42.7881 4.23368 43.5234 3.19716 44.0753 2.46037C44.1562 2.35242 44.2331 2.251 44.3053 2.15653C44.6211 2.65719 45.0345 3.31186 45.4755 4.00754C46.401 5.46749 47.456 7.12128 47.9794 7.90398C48.9165 9.79976 49.5897 11.7226 49.5897 13.2867C49.5897 16.1539 47.2591 18.4817 44.3799 18.4817ZM49.3781 7.16329C50.3628 9.1467 51.1718 11.35 51.1718 13.2867C51.1718 17.0313 48.1292 20.0637 44.3799 20.0637C40.6307 20.0637 37.588 17.0314 37.588 13.2867C37.588 10.3583 39.197 7.07055 40.7048 4.60708C41.471 3.35519 42.236 2.27699 42.8092 1.51185C43.0961 1.12887 43.3357 0.823286 43.5045 0.612446C43.5889 0.507004 43.6556 0.425184 43.7017 0.369156C43.7247 0.341139 43.7426 0.319565 43.755 0.304703L43.7694 0.287474L43.7734 0.282696L43.7746 0.281279C43.7748 0.281115 43.7753 0.280512 44.3799 0.790573L43.7753 0.280512C43.9381 0.0875359 44.1832 -0.0161324 44.4351 0.00148392C44.6869 0.019104 44.9153 0.15589 45.0496 0.369652L45.192 0.596066C45.2835 0.741327 45.4152 0.950565 45.5765 1.20638C45.8991 1.71802 46.3396 2.41582 46.8117 3.16053C47.4768 4.20968 48.2001 5.34522 48.7445 6.18551C48.8637 6.25734 48.9654 6.36156 49.0351 6.49364C49.1485 6.70863 49.2607 6.92706 49.3706 7.14824C49.3732 7.15323 49.3757 7.15825 49.3781 7.16329Z" fill="#E9C85A"/>
</g>
<g id="g701">
<path id="path703 (Stroke)" fill-rule="evenodd" clip-rule="evenodd" d="M41.1211 13.374C41.1211 15.1226 42.5454 16.5405 44.2935 16.5405C44.7304 16.5405 45.0845 16.1864 45.0845 15.7495C45.0845 15.3126 44.7304 14.9585 44.2935 14.9585C43.4154 14.9585 42.7031 14.2451 42.7031 13.374C42.7031 12.9372 42.349 12.583 41.9121 12.583C41.4752 12.583 41.1211 12.9372 41.1211 13.374Z" fill="#E9C85A"/>
</g>
</g>
</g>
</g>
</g>
</g>
</g>
<defs>
<clipPath id="clip0_171_105">
<rect width="54" height="54" fill="white"/>
</clipPath>
</defs>
</svg>
