<svg width="125" height="125" viewBox="0 0 125 125" fill="none" xmlns="http://www.w3.org/2000/svg">
<g id="Capa_1" clip-path="url(#clip0_0_1394)">
<g id="Group">
<g id="Group_2">
<path id="Vector" d="M116.688 64.119C116.185 63.0899 116.185 61.9098 116.688 60.881L121.35 51.3437C123.946 46.0334 121.889 39.7041 116.668 36.9338L107.291 31.9583C106.279 31.4217 105.586 30.4666 105.388 29.3389L103.554 18.8827C102.532 13.0609 97.1471 9.14884 91.2959 9.97672L80.7849 11.4635C79.6504 11.6237 78.5286 11.2589 77.7056 10.4628L70.076 3.08198C65.8277 -1.02786 59.1725 -1.0281 54.9245 3.08198L47.2946 10.4635C46.4714 11.2599 45.3496 11.6239 44.2153 11.4643L33.7044 9.97745C27.8512 9.14909 22.4679 13.0617 21.4467 18.8834L19.6127 29.3392C19.4147 30.4671 18.7211 31.4219 17.7096 31.9588L8.33223 36.9343C3.11107 39.7043 1.05444 46.0341 3.65013 51.3444L8.31196 60.8815C8.81489 61.9105 8.81489 63.0907 8.31196 64.1195L3.64988 73.6565C1.05419 78.9668 3.11082 85.2961 8.33198 88.0663L17.7094 93.0419C18.7211 93.5785 19.4147 94.5336 19.6127 95.6613L21.4467 106.118C22.3763 111.417 26.9207 115.134 32.1436 115.134C32.658 115.134 33.18 115.097 33.7046 115.023L44.2156 113.536C45.3491 113.376 46.4716 113.741 47.2949 114.537L54.9245 121.918C57.049 123.973 59.7741 125 62.5001 125C65.2255 125 67.9522 123.973 70.0758 121.918L77.7056 114.537C78.5288 113.741 79.6509 113.377 80.7849 113.536L91.2959 115.023C97.1498 115.851 102.532 111.939 103.554 106.117L105.388 95.6615C105.586 94.5336 106.279 93.5788 107.291 93.0419L116.668 88.0663C121.889 85.2963 123.946 78.9665 121.35 73.6563L116.688 64.119ZM48.081 30.0574C55.3691 30.0574 61.2985 35.9868 61.2985 43.2749C61.2985 50.5629 55.3691 56.4923 48.081 56.4923C40.793 56.4923 34.8636 50.5629 34.8636 43.2749C34.8636 35.9868 40.793 30.0574 48.081 30.0574ZM41.2588 88.8388C40.5549 89.5427 39.6323 89.8947 38.71 89.8947C37.7876 89.8947 36.8648 89.5429 36.1612 88.8388C34.7535 87.4311 34.7535 85.1486 36.1612 83.7409L83.7412 36.1609C85.1487 34.7532 87.4314 34.7532 88.8391 36.1609C90.2468 37.5686 90.2468 39.8511 88.8391 41.2588L41.2588 88.8388ZM76.9187 94.9428C69.6307 94.9428 63.7013 89.0134 63.7013 81.7253C63.7013 74.4373 69.6307 68.5079 76.9187 68.5079C84.2068 68.5079 90.1362 74.4373 90.1362 81.7253C90.1362 89.0134 84.2068 94.9428 76.9187 94.9428Z" fill="#065A4A" fill-opacity="0.07"/>
</g>
</g>
<g id="Group_3">
<g id="Group_4">
<path id="Vector_2" d="M76.9187 75.7175C73.606 75.7175 70.9107 78.4126 70.9107 81.7253C70.9107 85.038 73.6058 87.7331 76.9187 87.7331C80.2315 87.7331 82.9265 85.038 82.9265 81.7253C82.9265 78.4126 80.2315 75.7175 76.9187 75.7175Z" fill="#0E4DC8" fill-opacity="0.07"/>
</g>
</g>
<g id="Group_5">
<g id="Group_6">
<path id="Vector_3" d="M48.081 37.2668C44.7683 37.2668 42.0732 39.9619 42.0732 43.2746C42.0732 46.5873 44.7683 49.2826 48.081 49.2826C51.3937 49.2826 54.089 46.5876 54.089 43.2746C54.0888 39.9621 51.3937 37.2668 48.081 37.2668Z" fill="#0E4DC8" fill-opacity="0.07"/>
</g>
</g>
</g>
<defs>
<clipPath id="clip0_0_1394">
<rect width="125" height="125" fill="white"/>
</clipPath>
</defs>
</svg>
