<svg width="54" height="54" viewBox="0 0 54 54" fill="none" xmlns="http://www.w3.org/2000/svg">
<g id="Capa_1" clip-path="url(#clip0_171_38)">
<g id="Group">
<g id="Group_2">
<path id="Vector" d="M44.3803 26.4116C44.3552 26.3062 44.3145 26.2072 44.2604 26.1168C43.8208 25.0639 43.285 24.0491 42.6557 23.0889L42.0753 22.2034C42.0453 22.1577 42.0116 22.1162 41.9762 22.0767C42.1501 21.6967 42.2478 21.2749 42.2478 20.8304C42.2478 18.3588 40.2371 16.348 37.7655 16.348H35.2836C35.8822 15.517 36.2362 14.4986 36.2362 13.3986C36.2362 11.8927 35.5937 10.4518 34.4733 9.44545L24.2847 0.293772C23.8514 -0.0954052 23.1846 -0.0598624 22.7953 0.373612C22.4061 0.806875 22.4418 1.47375 22.8751 1.86303L33.0636 11.0146C33.7392 11.6215 34.1267 12.4904 34.1267 13.3986C34.1267 15.0248 32.8036 16.3479 31.1774 16.3479H31.0681C31.009 16.3479 30.95 16.3529 30.8918 16.3628L20.3791 18.1463C20.3704 18.1477 20.3522 18.1508 20.3313 18.1332C20.3104 18.1156 20.3104 18.0971 20.3104 18.0883V6.75032C20.3104 6.16782 19.8382 5.69564 19.2557 5.69564C18.6732 5.69564 18.201 6.16782 18.201 6.75032V18.0881C18.201 18.7279 18.4813 19.3317 18.9701 19.7445C19.4588 20.1574 20.1011 20.3326 20.7318 20.2258L31.157 18.4573H37.7655C39.074 18.4573 40.1385 19.5218 40.1385 20.8303C40.1385 21.3246 39.7363 21.7268 39.242 21.7268H31.2792C31.1416 21.7268 31.0054 21.7537 30.8782 21.806L19.5555 26.4609C17.8989 27.1421 16.008 27.1201 14.3676 26.4008C11.9552 25.3431 10.3965 22.9576 10.3965 20.3235V4.32455C10.3965 3.74205 9.92429 3.26987 9.34179 3.26987C8.75929 3.26987 8.28711 3.74205 8.28711 4.32455V20.3235C8.28711 23.513 10.0221 26.4248 12.7695 27.958V31.9976C12.7695 32.8372 12.6351 33.667 12.3702 34.4637C10.4436 40.257 10.283 46.4301 11.9054 52.3157L12.1562 53.2257C12.2852 53.6935 12.7096 54.0004 13.1724 54.0004C13.2652 54.0004 13.3595 53.988 13.4534 53.9622C14.0149 53.8074 14.3446 53.2267 14.1898 52.6651L13.939 51.7552C12.428 46.2739 12.5777 40.5248 14.3719 35.1294C14.7083 34.1176 14.879 33.064 14.879 31.9977V28.7962C15.5843 28.9743 16.3088 29.065 17.0336 29.065C18.1657 29.065 19.2981 28.8475 20.3577 28.4119L31.4875 23.8362H39.2419C39.6735 23.8362 40.0837 23.744 40.4551 23.5796L40.8914 24.2453C41.4429 25.0867 41.909 25.9617 42.2921 26.8592C42.1877 28.2761 41.0024 29.3972 39.5594 29.3972C37.2465 29.3972 35.3079 31.0247 34.8254 33.1941C34.7592 33.1939 34.693 33.1955 34.6265 33.2008C34.0069 33.25 33.0846 33.5623 32.2097 34.7705C32.0726 34.9599 31.8045 35.0464 31.4803 35.0664C32.2503 34.2053 32.7195 33.0698 32.7195 31.8263C32.7195 29.1427 30.5361 26.9593 27.8525 26.9593C25.1689 26.9593 22.9856 29.1427 22.9856 31.8263C22.9856 32.6842 23.2095 33.4904 23.6008 34.191C23.5885 34.2304 23.5778 34.2705 23.5701 34.3121C23.5584 34.3751 23.2872 35.8743 23.6574 37.6619C24.1629 40.1032 25.603 41.933 27.8218 42.9532C29.4276 43.6915 30.8365 43.9972 32.0461 43.9971C34.4696 43.997 36.0911 42.769 36.8814 41.3307C36.9516 41.4219 37.0135 41.5226 37.0376 41.5904C37.2379 42.3091 37.9801 42.719 38.8885 42.6106C40.0301 42.4743 41.2809 41.5493 41.3298 39.8407C41.3695 38.4477 40.5146 36.8788 39.2022 35.9366C38.5721 35.4843 37.9046 35.2288 37.2438 35.1747C37.1626 34.7826 37.0089 34.4425 36.8198 34.1831C36.8543 32.7014 38.0695 31.5064 39.5594 31.5064C41.0291 31.5064 42.3473 30.8484 43.2376 29.8126C44.3846 35.047 42.9377 40.6407 39.0616 44.7321C37.7156 46.1528 36.9743 48.0129 36.9743 49.9699V52.9454C36.9743 53.5279 37.4465 54 38.029 54C38.6115 54 39.0837 53.5279 39.0837 52.9454V49.97C39.0837 48.555 39.6197 47.2101 40.5927 46.1829C43.4743 43.1413 45.2666 39.1677 45.6394 34.9945C45.9005 32.0711 45.4579 29.1212 44.3803 26.4116ZM27.8526 29.0688C29.3731 29.0688 30.6103 30.3058 30.6103 31.8264C30.6103 33.347 29.3732 34.584 27.8526 34.584C26.3321 34.584 25.095 33.347 25.095 31.8264C25.095 30.3058 26.3321 29.0688 27.8526 29.0688ZM36.9471 37.2763C37.3615 37.2665 37.7509 37.4914 37.9722 37.6503C38.692 38.1671 39.2407 39.1028 39.2213 39.7806C39.2141 40.036 39.1397 40.2229 38.9938 40.3521C38.9395 40.4002 38.8814 40.4355 38.8264 40.4608C38.4905 39.8611 37.8563 39.1421 36.9756 39.0488C36.6088 39.0101 35.6884 39.0495 35.0653 40.2541C34.3162 41.7021 32.2516 42.6681 28.703 41.0366C26.2034 39.8874 25.6496 37.6169 25.5757 36.126C26.2555 36.4875 27.0304 36.6933 27.8526 36.6933C28.1284 36.6933 28.3986 36.669 28.6621 36.6247C29.1752 36.8362 32.4264 38.0677 33.9183 36.0076C34.2236 35.5859 34.5509 35.3228 34.7938 35.3035C34.9345 35.2928 35.0506 35.3691 35.1278 35.4418C35.1697 35.5138 35.2648 35.7941 35.1224 36.1864C34.7965 37.0842 33.4985 37.9033 31.5614 38.4338C30.9996 38.5877 30.6689 39.1677 30.8227 39.7296C30.951 40.1982 31.3759 40.5059 31.8393 40.5059C31.9316 40.5059 32.0252 40.4937 32.1185 40.4683C35.1077 39.6497 36.4053 38.3778 36.9471 37.2763Z" fill="#ACC8C3" fill-opacity="0.2"/>
</g>
</g>
</g>
<defs>
<clipPath id="clip0_171_38">
<rect width="54" height="54" fill="white"/>
</clipPath>
</defs>
</svg>
