<svg width="32" height="32" viewBox="0 0 32 32" fill="none" xmlns="http://www.w3.org/2000/svg">
<path fill-rule="evenodd" clip-rule="evenodd" d="M10.8142 15.472C12.2969 17.1248 13.4069 18.5645 14.1439 19.8585C16.9093 24.714 12.9753 29.6457 7.70675 29.557C2.43819 29.6458 -1.49575 24.714 1.26956 19.8585C2.00656 18.5645 3.11656 17.1248 4.59931 15.472C4.81575 15.5485 5.04844 15.5903 5.29056 15.5903H10.1229C10.3651 15.5903 10.5978 15.5485 10.8142 15.472ZM5.29063 14.5903H10.123C10.7188 14.5903 11.2062 14.1028 11.2062 13.5071C11.2062 12.9113 10.7188 12.424 10.123 12.424H5.29063C4.69481 12.424 4.20744 12.9113 4.20744 13.5071C4.20744 14.1029 4.69481 14.5903 5.29063 14.5903ZM13.5472 13.5054C13.2466 13.5054 13.0013 13.7506 13.0013 14.0513V16.4853C13.7451 17.4022 14.4446 18.3659 15.0128 19.3636C16.1669 21.39 16.4194 23.7405 15.4628 25.8963C15.3912 26.0575 15.3141 26.2147 15.2322 26.3683H16.5884V14.0513C16.5884 13.7506 16.3432 13.5054 16.0426 13.5054H13.5472ZM25.5988 13.8385L25.4964 15.36C25.492 15.4248 25.5231 15.4825 25.5796 15.5145C25.6361 15.5465 25.7017 15.5435 25.7549 15.5065L29.6773 12.7791C29.7199 12.7495 29.7444 12.7061 29.7477 12.6543C29.751 12.6023 29.7323 12.5563 29.6936 12.5215L26.1688 9.33939C26.1208 9.29602 26.0564 9.28464 25.9964 9.30896C25.9365 9.33327 25.8982 9.38614 25.8938 9.45071L25.7878 11.0277C22.9333 10.9501 19.0223 9.78589 16.5227 8.29321C13.7663 6.64721 11.9579 4.68846 10.6854 2.44189C11.5329 5.85527 14.0502 9.23277 17.8096 11.4778C20.3398 12.9887 23.055 13.761 25.5988 13.8385ZM31.0958 27.3683H14.5896C14.2016 27.8761 13.7521 28.3281 13.2557 28.7206H31.0958C31.3959 28.7206 31.6407 28.4758 31.6407 28.1756V27.9133C31.6407 27.6131 31.3959 27.3683 31.0958 27.3683ZM29.3643 20.876H26.8689C26.5683 20.876 26.323 21.1212 26.323 21.4219V26.3683H29.9101V21.4219C29.9101 21.1212 29.6649 20.876 29.3643 20.876ZM20.208 17.2704H22.7035C23.0042 17.2704 23.2494 17.5156 23.2494 17.8163V26.3683H19.6622V17.8163C19.6621 17.5156 19.9073 17.2704 20.208 17.2704ZM7.65119 24.4632C7.32569 24.4548 7.00969 24.3666 6.75775 24.1988C6.52975 24.047 6.35556 23.8248 6.28288 23.5331C6.21813 23.2697 5.95206 23.1087 5.68869 23.1735C5.42531 23.2383 5.26431 23.5043 5.32913 23.7676C5.4665 24.3187 5.79144 24.7354 6.21556 25.0179C6.50525 25.2108 6.84169 25.3384 7.194 25.4005V25.7826C7.194 26.0545 7.41444 26.2749 7.68625 26.2749C7.95806 26.2749 8.1785 26.0545 8.1785 25.7826V25.4098C8.60663 25.3446 9.04281 25.1883 9.38531 24.9285C9.79688 24.6161 10.0706 24.169 10.0564 23.5689C10.0548 23.5001 10.0508 23.4397 10.0446 23.3881C9.96475 22.7305 9.60894 22.3025 9.13725 22.0176C8.72288 21.7675 8.226 21.6429 7.77044 21.5681C7.44188 21.5141 7.09575 21.4228 6.84231 21.2573C6.64594 21.1291 6.50506 20.9435 6.49188 20.6721C6.47763 20.3784 6.60581 20.1415 6.80781 19.9773C6.96606 19.8486 7.16794 19.7592 7.38675 19.7151C7.47481 19.6975 7.56544 19.6872 7.65694 19.6848C7.66663 19.6853 7.67638 19.6856 7.68625 19.6856C7.69813 19.6856 7.70981 19.6852 7.72144 19.6844C7.84244 19.6861 7.96431 19.7017 8.08331 19.7318C8.44925 19.8246 8.78244 20.0658 8.95788 20.4836C9.063 20.7343 9.35144 20.8522 9.60206 20.7471C9.85269 20.642 9.97063 20.3535 9.8655 20.1029C9.55657 19.3671 8.96838 18.9419 8.32175 18.778C8.27431 18.766 8.22656 18.7555 8.1785 18.7463V18.3649C8.1785 18.093 7.95813 17.8726 7.68625 17.8726C7.41438 17.8726 7.194 18.093 7.194 18.3649V18.7537C6.82106 18.8289 6.47081 18.9863 6.18869 19.2157C5.75513 19.5682 5.48019 20.08 5.51119 20.7182C5.54231 21.3594 5.86225 21.7895 6.30769 22.0803C6.696 22.3338 7.17294 22.465 7.61275 22.5371C7.966 22.5951 8.34313 22.6868 8.62963 22.8598C8.85882 22.9981 9.03094 23.2003 9.06769 23.5033C9.07256 23.5437 9.07519 23.5731 9.07569 23.5918C9.08138 23.8327 8.96619 24.0163 8.79306 24.1476C8.57638 24.3121 8.27213 24.409 7.96781 24.4459C7.88494 24.456 7.81256 24.4616 7.75125 24.4631L7.72781 24.4635C7.71413 24.4624 7.70025 24.4618 7.68619 24.4618C7.67444 24.462 7.66275 24.4624 7.65119 24.4632ZM5.14044 11.4295L4.3615 10.6506C3.92863 10.2177 3.92863 9.50933 4.3615 9.07646C4.72969 8.70827 5.31256 8.64602 5.75069 8.92727C5.91344 9.03171 6.10031 9.04839 6.27894 8.97446C6.4575 8.90046 6.57788 8.75658 6.61913 8.56764C6.72819 8.06796 7.17556 7.69083 7.70681 7.69077C8.22844 7.69077 8.68338 8.05846 8.79456 8.56764C8.83581 8.75658 8.95613 8.90046 9.13469 8.97446C9.31338 9.04846 9.50019 9.03171 9.66288 8.92727C10.0933 8.65102 10.6764 8.70083 11.052 9.07639V9.07646C11.4849 9.50933 11.4849 10.2177 11.052 10.6506L10.2731 11.4295C10.2234 11.4259 10.1734 11.424 10.1229 11.424H5.29063C5.24013 11.424 5.19006 11.4259 5.14044 11.4295Z" fill="white"/>
</svg>
