<svg width="32" height="32" viewBox="0 0 32 32" fill="none" xmlns="http://www.w3.org/2000/svg">
<g clip-path="url(#clip0_40_1013)">
<path d="M29.1875 0H9.1875C7.63669 0 6.375 1.26169 6.375 2.8125V7.625H9.375C11.4427 7.625 13.125 9.30725 13.125 11.375V17.1875H29.1875C30.7383 17.1875 32 15.9258 32 14.375V2.8125C32 1.26169 30.7383 0 29.1875 0ZM16.0625 14.375C15.5448 14.375 15.125 13.9552 15.125 13.4375C15.1709 12.1952 16.9543 12.1956 17 13.4375C17 13.9552 16.5802 14.375 16.0625 14.375ZM19.8125 14.375C19.2948 14.375 18.875 13.9552 18.875 13.4375C18.875 11.8867 17.6133 10.625 16.0625 10.625C15.5448 10.625 15.125 10.2052 15.125 9.6875C15.125 9.16975 15.5448 8.75 16.0625 8.75C18.6472 8.75 20.75 10.8528 20.75 13.4375C20.75 13.9552 20.3302 14.375 19.8125 14.375ZM23.5625 14.375C23.0448 14.375 22.625 13.9552 22.625 13.4375C22.625 9.81894 19.6811 6.875 16.0625 6.875C15.5448 6.875 15.125 6.45525 15.125 5.9375C15.125 5.41975 15.5448 5 16.0625 5C20.7149 5 24.5 8.78506 24.5 13.4375C24.5 13.9552 24.0802 14.375 23.5625 14.375Z" fill="black"/>
<path d="M5.625 25.4375C5.10806 25.4375 4.6875 25.8581 4.6875 26.375C4.73456 27.617 6.51562 27.6167 6.5625 26.375C6.5625 25.8581 6.14194 25.4375 5.625 25.4375Z" fill="black"/>
<path d="M9.375 9.5H1.875C0.839437 9.5 0 10.3394 0 11.375V30.125C0 31.1606 0.839437 32 1.875 32H9.375C10.4106 32 11.25 31.1606 11.25 30.125V11.375C11.25 10.3394 10.4106 9.5 9.375 9.5ZM3.75 12.3125C4.26775 12.3125 4.6875 12.7322 4.6875 13.25C4.64156 14.4922 2.85825 14.4919 2.8125 13.25C2.8125 12.7322 3.23225 12.3125 3.75 12.3125ZM3.75 16.0625C4.26775 16.0625 4.6875 16.4823 4.6875 17C4.64156 18.2423 2.85825 18.2419 2.8125 17C2.8125 16.4823 3.23225 16.0625 3.75 16.0625ZM3.75 19.8125C4.26775 19.8125 4.6875 20.2323 4.6875 20.75C4.64156 21.9923 2.85825 21.9919 2.8125 20.75C2.8125 20.2323 3.23225 19.8125 3.75 19.8125ZM5.625 29.1875C4.07419 29.1875 2.8125 27.9258 2.8125 26.375C2.95388 22.6489 8.29669 22.65 8.4375 26.3751C8.4375 27.9258 7.17581 29.1875 5.625 29.1875ZM7.5 21.6875C6.98225 21.6875 6.5625 21.2677 6.5625 20.75C6.60844 19.5077 8.39175 19.5081 8.4375 20.75C8.4375 21.2677 8.01775 21.6875 7.5 21.6875ZM7.5 17.9375C6.98225 17.9375 6.5625 17.5177 6.5625 17C6.60844 15.7578 8.39175 15.7581 8.4375 17C8.4375 17.5177 8.01775 17.9375 7.5 17.9375ZM7.5 14.1875C6.98225 14.1875 6.5625 13.7677 6.5625 13.25C6.60844 12.0078 8.39175 12.0081 8.4375 13.25C8.4375 13.7677 8.01775 14.1875 7.5 14.1875Z" fill="black"/>
<path d="M23.0401 19.0625H15.3349L14.5546 21.2472C14.3366 21.8577 14.7892 22.5 15.4375 22.5H22.9375C23.5858 22.5 24.0384 21.8577 23.8204 21.2472L23.0401 19.0625Z" fill="black"/>
</g>
<defs>
<clipPath id="clip0_40_1013">
<rect width="32" height="32" fill="white"/>
</clipPath>
</defs>
</svg>
