<svg width="30" height="32" viewBox="0 0 30 32" fill="none" xmlns="http://www.w3.org/2000/svg">
<path d="M0.280029 4.60801V27.264C0.280029 29.44 2.07203 31.232 4.24803 31.232H21.272C23.448 31.232 25.24 29.44 25.24 27.264V21.76L24.344 22.656C23.448 23.552 22.168 24.192 20.888 24.576L18.2 25.088C17.048 25.344 15.768 24.96 15.128 24.064C14.488 23.296 14.232 22.4 14.488 21.376L15.128 18.56C15.384 17.28 16.024 16.128 17.048 15.104L23.448 8.70401C23.96 8.19201 24.728 7.68001 25.368 7.42401V4.60801C25.368 2.43201 23.576 0.640015 21.4 0.640015H4.24803C2.07203 0.640015 0.280029 2.43201 0.280029 4.60801ZM6.55203 5.12001H18.84C19.608 5.12001 20.12 5.63201 20.12 6.40001C20.12 7.16801 19.608 7.68001 18.84 7.68001H6.55203C5.78403 7.68001 5.27203 7.16801 5.27203 6.40001C5.27203 5.76001 5.91203 5.12001 6.55203 5.12001ZM6.55203 10.368H13.72C14.488 10.368 15 10.88 15 11.648C15 12.416 14.488 12.928 13.72 12.928H6.55203C5.78403 12.928 5.27203 12.416 5.27203 11.648C5.27203 10.88 5.91203 10.368 6.55203 10.368Z" fill="white"/>
<path d="M28.952 10.624C27.928 9.60002 26.136 9.60002 25.112 10.624L18.712 17.024C18.072 17.664 17.688 18.304 17.56 19.2L16.92 21.888C16.792 22.272 17.176 22.656 17.56 22.528L20.376 21.888C21.144 21.76 21.912 21.248 22.552 20.736L28.952 14.336C29.976 13.312 29.976 11.648 28.952 10.624Z" fill="white"/>
</svg>
