<svg width="32" height="32" viewBox="0 0 32 32" fill="none" xmlns="http://www.w3.org/2000/svg">
<path fill-rule="evenodd" clip-rule="evenodd" d="M6.6875 30.375V25.3125C6.6875 25.125 6.8125 24.9375 7.0625 24.9375H10.875C11.0625 24.9375 11.25 25.125 11.25 25.3125V30.375H6.6875ZM25.3125 30.375V13.8125H23.5625C23.4375 13.8125 23.3125 13.75 23.25 13.625C23.1875 13.5 23.1875 13.3125 23.25 13.25L27.1875 7.25C27.25 7.125 27.375 7.0625 27.5 7.0625C27.625 7.0625 27.75 7.125 27.8125 7.25L31.9375 13.1875C32 13.25 32 13.3125 32 13.4375C32 13.625 31.8125 13.8125 31.625 13.8125H29.875V30.375H25.3125ZM19.125 30.375V19.1875C19.125 19 19.25 18.8125 19.5 18.8125H23.3125C23.5 18.8125 23.6875 19 23.6875 19.1875V30.375H19.125ZM12.875 30.375V22.875C12.875 22.625 13.0625 22.5 13.25 22.5H17.0625C17.3125 22.5 17.4375 22.625 17.4375 22.875V30.375H12.875Z" fill="black"/>
<path fill-rule="evenodd" clip-rule="evenodd" d="M31 31.875H4.8125C4.625 31.875 4.4375 31.6875 4.4375 31.5C4.4375 31.25 4.625 31.125 4.8125 31.125H31C31.1875 31.125 31.375 31.25 31.375 31.5C31.375 31.6875 31.1875 31.875 31 31.875Z" fill="black"/>
<path fill-rule="evenodd" clip-rule="evenodd" d="M4.4375 23.375C3.625 23.375 3 22.875 2.875 22.0625C2.8125 21.4375 3.125 20.5625 4.1875 20.3125C4.875 20.0625 5.5625 19.75 6.125 19.5C6.3125 19.4375 6.5 19.375 6.625 19.25C8.0625 18.625 9.4375 17.8125 10.6875 16.875C14.5625 14.0625 17.375 10.5 19.0625 6.3125C19.375 5.5625 19.625 4.75 19.8125 4L19.875 3.8125L17.8125 2.9375C17.6875 2.875 17.5625 2.6875 17.5625 2.5625C17.5625 2.4375 17.6875 2.25 17.8125 2.25L22.8125 0.1875C23 0.125 23.1875 0.1875 23.25 0.375L25.3125 5.375C25.375 5.5 25.3125 5.6875 25.25 5.75C25.125 5.875 24.9375 5.9375 24.8125 5.875L22.8125 5C21.9375 7.9375 20.625 10.625 18.9375 13.0625C17.1875 15.4375 15 17.625 12.5 19.4375C10.875 20.625 9.125 21.625 7.375 22.375C6.75 22.6875 5.875 23.0625 5.125 23.3125C4.875 23.375 4.6875 23.375 4.4375 23.375Z" fill="black"/>
<path fill-rule="evenodd" clip-rule="evenodd" d="M6.875 14.5625C3.0625 14.5625 0 11.5 0 7.6875C0 3.9375 3.0625 0.8125 6.875 0.8125C10.6875 0.8125 13.75 3.9375 13.75 7.6875C13.75 11.5 10.6875 14.5625 6.875 14.5625ZM6.5 11.75C5.4375 11.5625 4.625 10.6875 4.625 9.5625C4.625 9.375 4.8125 9.1875 5 9.1875C5.25 9.1875 5.375 9.375 5.375 9.5625C5.375 10.25 5.875 10.8125 6.5 11V8.0625C5.4375 7.875 4.625 6.9375 4.625 5.875C4.625 4.75 5.4375 3.875 6.5 3.6875V3.4375C6.5 3.25 6.6875 3.0625 6.875 3.0625C7.0625 3.0625 7.25 3.25 7.25 3.4375V3.6875C8.3125 3.875 9.0625 4.75 9.0625 5.875C9.0625 6.0625 8.9375 6.25 8.6875 6.25C8.5 6.25 8.3125 6.0625 8.3125 5.875C8.3125 5.1875 7.875 4.625 7.25 4.4375V7.375C8.3125 7.5625 9.0625 8.4375 9.0625 9.5625C9.0625 10.6875 8.3125 11.5625 7.25 11.75V11.9375C7.25 12.1875 7.0625 12.3125 6.875 12.3125C6.6875 12.3125 6.5 12.1875 6.5 11.9375V11.75ZM7.25 11C7.875 10.8125 8.3125 10.25 8.3125 9.5625C8.3125 8.875 7.875 8.3125 7.25 8.125V11ZM6.5 4.4375C5.875 4.625 5.375 5.1875 5.375 5.875C5.375 6.5625 5.875 7.125 6.5 7.3125V4.4375Z" fill="black"/>
</svg>
