<svg width="302" height="302" viewBox="0 0 302 302" fill="none" xmlns="http://www.w3.org/2000/svg">
<g opacity="0.2">
<path d="M302 240.917H0V241.068H302V240.917Z" fill="#EBEBEB"/>
<path d="M263.145 250.636H251.735V250.787H263.145V250.636Z" fill="#EBEBEB"/>
<path d="M194.802 249.585H177.002V249.736H194.802V249.585Z" fill="#EBEBEB"/>
<path d="M251.131 245.031H222.677V245.182H251.131V245.031Z" fill="#EBEBEB"/>
<path d="M38.3117 246.045H31.6858V246.196H38.3117V246.045Z" fill="#EBEBEB"/>
<path d="M66.9776 246.045H43.6874V246.196H66.9776V246.045Z" fill="#EBEBEB"/>
<path d="M135.991 248.594H103.284V248.745H135.991V248.594Z" fill="#EBEBEB"/>
<path d="M143.148 202.757H26.5217C25.608 202.755 24.7323 202.391 24.0869 201.744C23.4414 201.098 23.0789 200.222 23.0789 199.308V35.3642C23.0868 34.4558 23.4529 33.5872 24.0975 32.9471C24.7421 32.307 25.6132 31.9471 26.5217 31.9456H143.148C143.601 31.9456 144.049 32.0348 144.468 32.2081C144.886 32.3814 145.266 32.6354 145.587 32.9557C145.907 33.276 146.161 33.6562 146.334 34.0746C146.508 34.493 146.597 34.9415 146.597 35.3944V199.32C146.594 200.233 146.229 201.107 145.582 201.751C144.936 202.395 144.061 202.757 143.148 202.757ZM26.5217 32.0664C25.6481 32.068 24.8108 32.4161 24.1936 33.0344C23.5765 33.6527 23.2299 34.4906 23.2299 35.3642V199.32C23.2291 199.753 23.3136 200.181 23.4787 200.582C23.6438 200.982 23.8861 201.345 24.1919 201.652C24.4976 201.958 24.8608 202.201 25.2605 202.367C25.6603 202.532 26.0889 202.618 26.5217 202.618H143.148C144.022 202.616 144.86 202.268 145.478 201.65C146.096 201.032 146.444 200.194 146.446 199.32V35.3642C146.443 34.4905 146.094 33.6536 145.476 33.0358C144.859 32.418 144.022 32.0695 143.148 32.0664H26.5217Z" fill="#EBEBEB"/>
<path d="M273.799 202.757H157.167C156.254 202.757 155.379 202.395 154.732 201.751C154.086 201.107 153.721 200.233 153.718 199.32V35.3642C153.728 34.4552 154.095 33.5867 154.741 32.9467C155.386 32.3068 156.258 31.9471 157.167 31.9456H273.799C274.706 31.9503 275.575 32.3114 276.218 32.951C276.861 33.5906 277.227 34.4573 277.236 35.3642V199.32C277.234 200.231 276.872 201.104 276.228 201.748C275.583 202.393 274.71 202.755 273.799 202.757ZM157.167 32.0664C156.293 32.0695 155.456 32.418 154.838 33.0358C154.221 33.6536 153.872 34.4905 153.869 35.3642V199.32C153.871 200.194 154.219 201.032 154.837 201.65C155.455 202.268 156.293 202.616 157.167 202.618H273.799C274.673 202.616 275.511 202.268 276.129 201.65C276.748 201.032 277.095 200.194 277.097 199.32V35.3642C277.094 34.4905 276.745 33.6536 276.128 33.0358C275.51 32.418 274.673 32.0695 273.799 32.0664H157.167Z" fill="#EBEBEB"/>
<path d="M263.145 250.636H251.735V250.787H263.145V250.636Z" fill="#EBEBEB"/>
<path d="M194.802 249.585H177.002V249.736H194.802V249.585Z" fill="#EBEBEB"/>
<path d="M251.131 245.031H222.677V245.182H251.131V245.031Z" fill="#EBEBEB"/>
<path d="M38.3117 246.045H31.6858V246.196H38.3117V246.045Z" fill="#EBEBEB"/>
<path d="M66.9776 246.045H43.6874V246.196H66.9776V246.045Z" fill="#EBEBEB"/>
<path d="M135.991 248.594H103.284V248.745H135.991V248.594Z" fill="#EBEBEB"/>
<path d="M253.686 241.769C255.931 241.769 257.751 239.949 257.751 237.704C257.751 235.459 255.931 233.639 253.686 233.639C251.441 233.639 249.621 235.459 249.621 237.704C249.621 239.949 251.441 241.769 253.686 241.769Z" fill="#E0E0E0"/>
<path d="M249.621 241.769C251.866 241.769 253.686 239.949 253.686 237.704C253.686 235.459 251.866 233.639 249.621 233.639C247.376 233.639 245.556 235.459 245.556 237.704C245.556 239.949 247.376 241.769 249.621 241.769Z" fill="#EBEBEB"/>
<path d="M199.139 241.769C201.384 241.769 203.204 239.949 203.204 237.704C203.204 235.459 201.384 233.639 199.139 233.639C196.894 233.639 195.074 235.459 195.074 237.704C195.074 239.949 196.894 241.769 199.139 241.769Z" fill="#E0E0E0"/>
<path d="M253.293 144.241H184.751V234.461H253.293V144.241Z" fill="#EBEBEB"/>
<path d="M257.751 144.241H198.04V234.461H257.751V144.241Z" fill="#F5F5F5"/>
<path d="M252.828 148.91H203.439V229.894H252.828V148.91Z" stroke="#E0E0E0" stroke-width="2" stroke-miterlimit="10"/>
<path d="M203.439 174.701H253.293" stroke="#E0E0E0" stroke-width="2" stroke-miterlimit="10"/>
<path d="M203.439 202.872H253.293" stroke="#E0E0E0" stroke-width="2" stroke-miterlimit="10"/>
<path d="M238.707 152.299H220.363V154.485H238.707V152.299Z" fill="#FAFAFA"/>
<path d="M238.707 178.234H220.363V180.421H238.707V178.234Z" fill="#FAFAFA"/>
<path d="M238.707 207.305H220.363V209.491H238.707V207.305Z" fill="#FAFAFA"/>
<path d="M195.074 241.769C197.319 241.769 199.139 239.949 199.139 237.704C199.139 235.459 197.319 233.639 195.074 233.639C192.829 233.639 191.009 235.459 191.009 237.704C191.009 239.949 192.829 241.769 195.074 241.769Z" fill="#EBEBEB"/>
<path d="M183.658 56.3894H59.1014V142.327H183.658V56.3894Z" fill="#EBEBEB"/>
<path d="M186.08 56.3894H183.658V142.327H186.08V56.3894Z" fill="#E0E0E0"/>
<path d="M181.128 65.0508H62.5503V138.068H181.128V65.0508Z" fill="#F5F5F5"/>
<path d="M120.009 138.068H109.276L78.3811 64.936H89.1142L120.009 138.068Z" fill="#FAFAFA"/>
<path d="M144 138.068H124.551L93.6562 64.936H113.117L144 138.068Z" fill="#FAFAFA"/>
<path d="M172.865 138.093H162.126L131.243 64.9662H141.97L172.865 138.093Z" fill="#FAFAFA"/>
<path opacity="0.3" d="M186.086 51.9923H59.1014V87.888H186.086V51.9923Z" fill="#E0E0E0" stroke="#F0F0F0" stroke-miterlimit="10"/>
<path d="M185.724 80.3984H59.1014V81.5098H185.724V80.3984Z" fill="#FAFAFA"/>
<path d="M185.724 75.2584H59.1014V76.3698H185.724V75.2584Z" fill="#FAFAFA"/>
<path d="M185.724 70.1123H59.1014V71.2237H185.724V70.1123Z" fill="#FAFAFA"/>
<path d="M185.724 64.9723H59.1014V66.0837H185.724V64.9723Z" fill="#FAFAFA"/>
<path d="M185.724 59.8262H59.1014V60.9375H185.724V59.8262Z" fill="#FAFAFA"/>
<path d="M188.43 50.4521H57.5974V51.9621H188.43V50.4521Z" fill="#E0E0E0"/>
<path d="M58.4551 51.2071C58.4551 52.5541 57.6639 53.6231 56.6975 53.6231C55.7311 53.6231 54.964 52.548 54.964 51.2071C54.964 49.8663 55.7552 48.7911 56.7277 48.7911C57.7001 48.7911 58.4551 49.8542 58.4551 51.2071Z" fill="#E0E0E0"/>
<path d="M190.187 51.2071C190.187 52.5541 189.396 53.6231 188.43 53.6231C187.463 53.6231 186.666 52.5299 186.666 51.2071C186.666 49.8844 187.457 48.7911 188.43 48.7911C189.402 48.7911 190.187 49.8542 190.187 51.2071Z" fill="#E0E0E0"/>
<path d="M148.191 273.231C201.374 273.231 244.487 269.862 244.487 265.706C244.487 261.549 201.374 258.18 148.191 258.18C95.0087 258.18 51.8956 261.549 51.8956 265.706C51.8956 269.862 95.0087 273.231 148.191 273.231Z" fill="#F5F5F5"/>
<path d="M239.734 97.6004L226.862 137.754C226.716 138.215 226.452 138.629 226.097 138.957C225.742 139.285 225.307 139.514 224.837 139.624C224.366 139.734 223.875 139.719 223.412 139.582C222.948 139.445 222.529 139.19 222.193 138.841L215.501 131.914C214.995 131.393 214.307 131.089 213.582 131.065C212.856 131.041 212.15 131.3 211.611 131.787L155.723 182.523C155.224 182.975 154.578 183.232 153.905 183.247C153.231 183.261 152.575 183.032 152.057 182.601L116.572 153.096C116.059 152.674 115.413 152.448 114.749 152.459C114.085 152.471 113.447 152.718 112.948 153.156L43.2404 214.933L45.8859 190.169C45.9538 189.47 46.284 188.823 46.81 188.357L112.592 130.059C113.091 129.623 113.73 129.377 114.394 129.367C115.057 129.358 115.703 129.583 116.216 130.005L151.556 159.456C152.074 159.887 152.73 160.116 153.403 160.102C154.077 160.087 154.723 159.83 155.222 159.377L199.314 119.326C199.591 119.075 199.815 118.77 199.972 118.43C200.129 118.09 200.216 117.722 200.228 117.348C200.24 116.974 200.176 116.601 200.041 116.252C199.906 115.903 199.702 115.584 199.441 115.316L192.857 108.466C192.513 108.111 192.269 107.67 192.151 107.189C192.033 106.709 192.044 106.205 192.184 105.73C192.324 105.256 192.588 104.826 192.948 104.487C193.308 104.147 193.752 103.909 194.234 103.797L236.442 94.0247C236.923 93.9118 237.426 93.929 237.899 94.0742C238.371 94.2195 238.797 94.4878 239.132 94.8515C239.466 95.2153 239.699 95.6615 239.804 96.1445C239.91 96.6275 239.886 97.1299 239.734 97.6004Z" fill="#D1D1D1"/>
<path opacity="0.1" d="M239.716 97.6668L226.887 137.712C226.736 138.178 226.467 138.597 226.106 138.929C225.745 139.26 225.304 139.493 224.827 139.603C224.35 139.714 223.852 139.699 223.382 139.56C222.912 139.422 222.486 139.164 222.145 138.811L215.501 131.962C214.988 131.432 214.29 131.122 213.553 131.098C212.816 131.073 212.098 131.335 211.551 131.829L155.723 182.523C155.172 183.026 154.445 183.291 153.7 183.26C153.075 183.24 152.475 183.01 151.997 182.607L116.59 153.138C116.067 152.709 115.409 152.479 114.732 152.489C114.055 152.499 113.404 152.748 112.894 153.193L43.2404 214.933L46.0006 189.125L112.567 130.132C113.077 129.685 113.728 129.434 114.406 129.424C115.083 129.414 115.742 129.646 116.264 130.077L131.31 142.598L151.525 159.456C152.052 159.891 152.718 160.122 153.4 160.108C154.083 160.093 154.738 159.834 155.246 159.378L199.32 119.35C199.602 119.096 199.831 118.787 199.991 118.442C200.151 118.097 200.24 117.723 200.252 117.343C200.265 116.963 200.2 116.584 200.063 116.23C199.926 115.875 199.718 115.552 199.453 115.279L192.924 108.521C192.575 108.159 192.329 107.712 192.21 107.224C192.091 106.737 192.103 106.226 192.245 105.745C192.388 105.264 192.655 104.829 193.021 104.484C193.386 104.14 193.836 103.899 194.325 103.785L236.387 94.0368C236.875 93.9272 237.383 93.9482 237.859 94.0976C238.336 94.2471 238.765 94.5198 239.103 94.888C239.44 95.2563 239.675 95.7072 239.782 96.1951C239.89 96.683 239.867 97.1907 239.716 97.6668Z" fill="black"/>
<path d="M166.891 248.268H115.364V259.962H166.891V248.268Z" fill="#D1D1D1"/>
<path opacity="0.2" d="M121.887 248.268H120.492V259.962H121.887V248.268Z" fill="black"/>
<path opacity="0.2" d="M129.057 248.268H127.661V259.962H129.057V248.268Z" fill="black"/>
<path opacity="0.2" d="M136.22 259.962H134.825V248.268L136.22 248.474V259.962Z" fill="black"/>
<path opacity="0.2" d="M143.39 248.268H141.994V259.962H143.39V248.268Z" fill="black"/>
<path opacity="0.2" d="M150.559 248.268H149.164V259.962H150.559V248.268Z" fill="black"/>
<path opacity="0.2" d="M157.723 248.268H156.327V259.962H157.723V248.268Z" fill="black"/>
<path opacity="0.2" d="M164.892 248.268H163.497V259.962H164.892V248.268Z" fill="black"/>
<path opacity="0.09" d="M166.891 248.268H115.364V250.678H166.891V248.268Z" fill="black"/>
<path d="M174.924 236.569H123.397V248.262H174.924V236.569Z" fill="#D1D1D1"/>
<path opacity="0.2" d="M129.92 236.569H128.525V248.262H129.92V236.569Z" fill="black"/>
<path opacity="0.2" d="M137.09 236.569H135.695V248.262H137.09V236.569Z" fill="black"/>
<path opacity="0.2" d="M144.259 236.569H142.864V248.262H144.259V236.569Z" fill="black"/>
<path opacity="0.2" d="M151.423 236.569H150.028V248.262H151.423V236.569Z" fill="black"/>
<path opacity="0.2" d="M158.592 236.569H157.197V248.262H158.592V236.569Z" fill="black"/>
<path opacity="0.2" d="M165.756 236.569H164.36V248.262H165.756V236.569Z" fill="black"/>
<path opacity="0.2" d="M172.925 236.569H171.53V248.262H172.925V236.569Z" fill="black"/>
<path opacity="0.09" d="M174.924 236.569H123.397V238.979H174.924V236.569Z" fill="black"/>
<path d="M167.761 224.875H116.234V236.569H167.761V224.875Z" fill="#D1D1D1"/>
<path opacity="0.2" d="M122.757 224.875H121.362V236.569H122.757V224.875Z" fill="black"/>
<path opacity="0.2" d="M129.92 236.575H128.525V224.887L129.92 224.875V236.575Z" fill="black"/>
<path opacity="0.2" d="M137.09 224.875H135.695V236.569H137.09V224.875Z" fill="black"/>
<path opacity="0.2" d="M144.259 224.875H142.864V236.569H144.259V224.875Z" fill="black"/>
<path opacity="0.2" d="M151.423 236.575H150.028V224.875L151.423 224.887V236.575Z" fill="black"/>
<path opacity="0.2" d="M158.592 224.875H157.197V236.569H158.592V224.875Z" fill="black"/>
<path opacity="0.2" d="M165.756 224.875H164.36V236.569H165.756V224.875Z" fill="black"/>
<path opacity="0.09" d="M167.761 224.875H116.234V227.756H167.761V224.875Z" fill="black"/>
<path d="M174.924 213.188H123.397V224.881H174.924V213.188Z" fill="#D1D1D1"/>
<path opacity="0.2" d="M129.92 213.188H128.525V224.881H129.92V213.188Z" fill="black"/>
<path opacity="0.2" d="M137.09 213.188H135.695V224.881H137.09V213.188Z" fill="black"/>
<path opacity="0.2" d="M144.259 213.188H142.864V224.881H144.259V213.188Z" fill="black"/>
<path opacity="0.2" d="M151.423 213.188H150.028V224.881H151.423V213.188Z" fill="black"/>
<path opacity="0.2" d="M158.592 213.188H157.197V224.881H158.592V213.188Z" fill="black"/>
<path opacity="0.2" d="M165.756 224.875L164.36 224.887V213.188L165.756 213.399V224.875Z" fill="black"/>
<path opacity="0.2" d="M172.925 213.188H171.53V224.881H172.925V213.188Z" fill="black"/>
<path opacity="0.09" d="M174.924 213.188H123.397V215.598H174.924V213.188Z" fill="black"/>
<path d="M177.189 201.494H125.662V213.188H177.189V201.494Z" fill="#D1D1D1"/>
<path opacity="0.2" d="M132.185 201.494H130.79V213.188H132.185V201.494Z" fill="black"/>
<path opacity="0.2" d="M139.349 201.494H137.954V213.188H139.349V201.494Z" fill="black"/>
<path opacity="0.2" d="M146.518 201.494H145.123V213.188H146.518V201.494Z" fill="black"/>
<path opacity="0.2" d="M153.688 201.494H152.293V213.188H153.688V201.494Z" fill="black"/>
<path opacity="0.2" d="M160.851 201.494H159.456V213.188H160.851V201.494Z" fill="black"/>
<path opacity="0.2" d="M168.021 201.494H166.625V213.188H168.021V201.494Z" fill="black"/>
<path opacity="0.2" d="M175.184 201.494H173.789V213.188H175.184V201.494Z" fill="black"/>
<path opacity="0.09" d="M177.189 201.494H125.662V203.904H177.189V201.494Z" fill="black"/>
<path d="M171.059 189.801H119.532V201.494H171.059V189.801Z" fill="#D1D1D1"/>
<path opacity="0.2" d="M126.055 189.801H124.66V201.494H126.055V189.801Z" fill="black"/>
<path opacity="0.2" d="M133.224 189.801H131.829V201.494H133.224V189.801Z" fill="black"/>
<path opacity="0.2" d="M140.388 189.801H138.992V201.494H140.388V189.801Z" fill="black"/>
<path opacity="0.2" d="M147.557 189.801H146.162V201.494H147.557V189.801Z" fill="black"/>
<path opacity="0.2" d="M154.721 189.801H153.325V201.494H154.721V189.801Z" fill="black"/>
<path opacity="0.2" d="M161.89 189.801H160.495V201.494H161.89V189.801Z" fill="black"/>
<path opacity="0.2" d="M169.06 189.801H167.664V201.494H169.06V189.801Z" fill="black"/>
<path opacity="0.09" d="M171.059 189.801H119.532V192.211H171.059V189.801Z" fill="black"/>
<path d="M102.463 248.443H50.9353V260.137H102.463V248.443Z" fill="#D1D1D1"/>
<path opacity="0.2" d="M57.4585 248.443H56.0632V260.137H57.4585V248.443Z" fill="black"/>
<path opacity="0.2" d="M64.628 248.443H63.2328V260.137H64.628V248.443Z" fill="black"/>
<path opacity="0.2" d="M71.7975 248.443H70.4022V260.137H71.7975V248.443Z" fill="black"/>
<path opacity="0.2" d="M78.9609 248.443H77.5657V260.137H78.9609V248.443Z" fill="black"/>
<path opacity="0.2" d="M86.1304 248.443H84.7351V260.137H86.1304V248.443Z" fill="black"/>
<path opacity="0.2" d="M93.2938 248.443H91.8986V260.137H93.2938V248.443Z" fill="black"/>
<path opacity="0.2" d="M100.463 248.443H99.0681V260.137H100.463V248.443Z" fill="black"/>
<path opacity="0.09" d="M102.463 248.443H50.9353V250.853H102.463V248.443Z" fill="black"/>
<path d="M104.897 236.75H53.3694V248.443H104.897V236.75Z" fill="#D1D1D1"/>
<path opacity="0.2" d="M59.8927 236.75H58.4974V248.443H59.8927V236.75Z" fill="black"/>
<path opacity="0.2" d="M67.0621 236.75H65.6669V248.443H67.0621V236.75Z" fill="black"/>
<path opacity="0.2" d="M74.2256 236.75H72.8303V248.443H74.2256V236.75Z" fill="black"/>
<path opacity="0.2" d="M81.395 236.75H79.9998V248.443H81.395V236.75Z" fill="black"/>
<path opacity="0.2" d="M88.5584 236.75H87.1632V248.443H88.5584V236.75Z" fill="black"/>
<path opacity="0.2" d="M95.728 236.75H94.3328V248.443H95.728V236.75Z" fill="black"/>
<path opacity="0.2" d="M102.897 236.75H101.502V248.443H102.897V236.75Z" fill="black"/>
<path opacity="0.09" d="M104.897 236.75H53.3694V238.954H104.897V236.75Z" fill="black"/>
<path d="M101.738 225.05H50.2106V236.744H101.738V225.05Z" fill="#D1D1D1"/>
<path opacity="0.2" d="M56.7337 225.05H55.3385V236.744H56.7337V225.05Z" fill="black"/>
<path opacity="0.2" d="M63.9032 225.05H62.5079V236.744H63.9032V225.05Z" fill="black"/>
<path opacity="0.2" d="M71.0666 225.05H69.6714V236.744H71.0666V225.05Z" fill="black"/>
<path opacity="0.2" d="M78.2361 225.05H76.8408V236.744H78.2361V225.05Z" fill="black"/>
<path opacity="0.2" d="M85.4056 225.05H84.0104V236.744H85.4056V225.05Z" fill="black"/>
<path opacity="0.2" d="M92.5691 225.05H91.1738V236.744H92.5691V225.05Z" fill="black"/>
<path opacity="0.2" d="M99.7385 225.05H98.3433V236.744H99.7385V225.05Z" fill="black"/>
<path opacity="0.09" d="M101.738 225.05H50.2106V227.255H101.738V225.05Z" fill="black"/>
<path d="M214.927 219.186H203.639V260.451H214.927V219.186Z" fill="#D1D1D1"/>
<g opacity="0.4">
<path d="M214.927 230.166V238.556L203.639 249.845V240.821L214.927 230.166Z" fill="white"/>
<path d="M214.927 224.03V225.455L203.639 236.75V235.324L214.927 224.03Z" fill="white"/>
</g>
<path d="M228.825 232.48H217.537V260.451H228.825V232.48Z" fill="#D1D1D1"/>
<g opacity="0.4">
<path d="M228.825 240.724V249.029L217.537 260.312V251.385L228.825 240.724Z" fill="white"/>
<path d="M228.825 236.81V238.405L217.537 249.7V248.093L228.825 236.81Z" fill="white"/>
</g>
<path d="M201.023 199.356H189.734V260.451H201.023V199.356Z" fill="#D1D1D1"/>
<g opacity="0.4">
<path d="M201.029 210.826V219.174L189.734 230.462V221.487L201.029 210.826Z" fill="white"/>
<path d="M201.029 206.236V207.794L189.734 219.095V217.525L201.029 206.236Z" fill="white"/>
</g>
<path d="M196.753 204.466C196.583 204.738 196.337 204.953 196.045 205.085C195.753 205.216 195.429 205.258 195.113 205.205C194.797 205.153 194.504 205.007 194.271 204.788C194.037 204.568 193.874 204.284 193.803 203.972C193.731 203.66 193.753 203.334 193.867 203.034C193.98 202.735 194.18 202.476 194.441 202.29C194.702 202.104 195.012 202 195.332 201.991C195.653 201.981 195.968 202.067 196.24 202.237C196.602 202.466 196.859 202.829 196.955 203.246C197.051 203.663 196.979 204.102 196.753 204.466Z" fill="#263238"/>
<path d="M210.651 224.084C210.481 224.354 210.236 224.567 209.945 224.697C209.654 224.827 209.331 224.868 209.017 224.815C208.703 224.762 208.412 224.617 208.18 224.398C207.948 224.18 207.786 223.897 207.715 223.587C207.643 223.276 207.665 222.952 207.778 222.654C207.891 222.356 208.089 222.098 208.349 221.913C208.608 221.728 208.916 221.623 209.234 221.613C209.553 221.603 209.867 221.687 210.138 221.855C210.318 221.967 210.475 222.114 210.598 222.287C210.722 222.46 210.81 222.656 210.858 222.863C210.906 223.07 210.912 223.284 210.876 223.494C210.841 223.704 210.764 223.904 210.651 224.084Z" fill="#263238"/>
<path d="M224.549 237.372C224.38 237.642 224.135 237.857 223.844 237.988C223.553 238.119 223.23 238.16 222.915 238.108C222.601 238.055 222.309 237.91 222.077 237.692C221.844 237.473 221.682 237.191 221.61 236.88C221.538 236.569 221.56 236.244 221.673 235.946C221.786 235.648 221.985 235.39 222.245 235.205C222.504 235.019 222.813 234.915 223.132 234.905C223.451 234.895 223.765 234.98 224.036 235.149C224.216 235.261 224.372 235.407 224.496 235.58C224.619 235.752 224.708 235.947 224.755 236.154C224.803 236.36 224.809 236.574 224.774 236.783C224.739 236.993 224.662 237.193 224.549 237.372Z" fill="#263238"/>
<path d="M223.184 236.502L208.857 249.845L209.28 223.226L195.382 231.821V203.608" stroke="#263238" stroke-miterlimit="10"/>
<path d="M93.8737 129.425C93.8737 129.425 90.0263 135.103 89.1263 135.689C88.2263 136.274 76.0799 133.967 70.1184 130.857L67.0441 127.003L62.4053 125.372L59.7417 130.663L63.4201 133.079C63.4201 133.079 65.7757 135.791 68.4151 135.036C68.4151 135.036 77.91 141.233 84.7231 142.816C91.5363 144.398 93.1127 142.568 95.0998 140.949C97.087 139.331 102.348 131.654 102.348 131.654L93.8737 129.425Z" fill="#B55B52"/>
<path d="M130.385 105.543C130.385 105.543 145.582 100.904 150.728 97.0567C150.728 97.0567 158.538 87.5015 159.837 77.2999L158.079 71.9907L159.009 65.9507L164.795 67.2433C164.795 67.2433 167.815 73.5974 164.137 78.5743C164.137 78.5743 163.153 93.3603 156.889 101.067C150.626 108.774 131.032 113.926 131.032 113.926L130.385 105.543Z" fill="#B55B52"/>
<path d="M135.834 161.383L134.589 116.687L144.356 112.018L138.08 100.82C138.08 100.82 130.464 103.054 123.868 103.054C115.104 103.054 106.286 109.698 101.52 111.583C96.7548 113.467 91.4637 129.673 91.4637 129.673L102.481 135.574L104.546 129.498C104.546 129.498 107.512 151.954 107.524 161.806L135.834 161.383Z" fill="#D1D1D1"/>
<path opacity="0.1" d="M135.834 161.383L134.589 116.687L144.356 112.018L138.08 100.82C138.08 100.82 130.464 103.054 123.868 103.054C115.104 103.054 106.286 109.698 101.52 111.583C96.7548 113.467 91.4637 129.673 91.4637 129.673L102.481 135.574L104.546 129.498C104.546 129.498 107.512 151.954 107.524 161.806L135.834 161.383Z" fill="white"/>
<path d="M113.552 98.9775C113.552 98.9775 105.924 99.7748 104.54 93.7046C104.54 93.7046 99.9862 91.8926 103.224 87.3988C103.224 87.3988 99.0319 81.1595 104.383 79.3052C105.115 77.5444 106.256 75.9835 107.712 74.7523C109.168 73.5211 110.897 72.6551 112.755 72.2263C117.085 71.1633 115.859 73.4887 115.859 73.4887C115.859 73.4887 124.841 70.0157 126.127 73.8873C127.414 77.759 120.42 79.4743 120.42 79.4743L113.552 98.9775Z" fill="#263238"/>
<path d="M118.3 97.848C118.322 98.2107 118.366 98.5718 118.432 98.9291C118.74 100.741 119.985 103.628 123.005 104.583C123.005 104.583 123.421 107.808 118.432 107.252C113.443 106.697 111.07 105.809 111.07 105.809C111.834 101.907 111.785 97.8887 110.925 94.0065C110.925 94.0065 108.11 94.4777 106.522 92.871C104.933 91.2644 105.507 87.1995 110.478 89.5007C110.478 89.5007 111.553 83.5755 108.062 81.7937C108.062 81.7937 114.899 82.7842 120.365 79.4562C120.365 79.4562 125.082 85.4962 124.424 91.2644C123.766 97.0326 118.3 97.848 118.3 97.848Z" fill="#B55B52"/>
<path d="M119.514 90.8839C119.514 90.8839 117.738 92.0375 115.714 90.3705" stroke="#263238" stroke-width="0.722314" stroke-linecap="round" stroke-linejoin="round"/>
<path d="M115.364 85.9008C115.473 86.3418 115.781 86.6438 116.053 86.5773C116.324 86.5109 116.457 86.1002 116.349 85.6593C116.24 85.2183 115.932 84.9103 115.66 84.9767C115.388 85.0432 115.225 85.4599 115.364 85.9008Z" fill="#263238"/>
<path d="M120.105 84.1312C120.214 84.5781 120.522 84.8801 120.794 84.8137C121.066 84.7472 121.199 84.3305 121.09 83.8896C120.981 83.4486 120.673 83.1466 120.401 83.2131C120.13 83.2795 119.997 83.6902 120.105 84.1312Z" fill="#263238"/>
<path d="M115.05 82.6936C114.642 82.8061 114.278 83.0394 114.005 83.3628C113.732 83.6862 113.564 84.0846 113.522 84.5056" stroke="#263238" stroke-width="0.963085" stroke-linecap="round" stroke-linejoin="round"/>
<path d="M121.495 81.1594C121.495 81.1594 120.42 80.3561 119.471 81.0447" stroke="#263238" stroke-width="0.963085" stroke-linecap="round" stroke-linejoin="round"/>
<path d="M120.244 88.637L119.121 84.9344L122.286 87.5679C122.115 87.9496 121.821 88.2626 121.451 88.4566C121.08 88.6506 120.655 88.7141 120.244 88.637Z" fill="#A02724"/>
<path opacity="0.19" d="M118.432 98.9473C117.977 99.0302 117.509 99.0149 117.06 98.9024C116.611 98.7899 116.192 98.5828 115.829 98.2949C116.753 98.1983 118.299 97.8661 118.299 97.8661C118.322 98.2288 118.366 98.5899 118.432 98.9473Z" fill="black"/>
<path d="M121.114 107.337L121.084 113.123L118.245 113.383C118.245 113.383 116.077 111.257 115.938 110.145C115.799 109.034 119.061 106.117 121.114 107.337Z" fill="#263238"/>
<path d="M120.673 112.531C120.673 112.531 124.937 128.235 126.985 136.087L124.654 140.732L120.728 136.812L118.608 112.791L120.673 112.531Z" fill="#263238"/>
<path d="M140.176 254.888L131.527 256.247C131.527 256.247 128.863 223.202 128.181 210.808C128.066 208.664 127.849 206.381 127.577 204.061C126.236 192.936 123.494 181.043 123.494 181.043C123.494 181.043 122.6 200.884 120.124 216.075C117.647 231.266 107.168 253.523 107.168 253.523L98.9413 249.736C105.368 231.35 106.842 208.452 107.397 199.888C107.953 191.323 107.325 156.098 107.325 156.098L135.652 154.86C138.389 168.196 141.946 198.68 142.339 209.22C142.731 219.759 140.176 254.888 140.176 254.888Z" fill="#263238"/>
<path d="M138.642 257.401L139.101 264.347L133.985 265.5L133.448 257.733L138.642 257.401Z" fill="#B55B52"/>
<path d="M141.554 253.752L130.603 255.872L131.141 259.273L141.348 257.419L141.554 253.752Z" fill="#D1D1D1"/>
<path d="M105.398 254.471L102.378 260.91L97.5159 259.031L100.759 252.321L105.398 254.471Z" fill="#B55B52"/>
<path d="M97.848 259.116L103.55 261.363C103.797 261.458 104.001 261.641 104.124 261.876C104.558 262.716 105.748 264.776 107.174 265.561C108.986 266.563 109.946 267.264 109.294 268.303C108.642 269.342 107.651 268.985 106.636 268.72C105.809 268.502 98.0111 265.235 95.1602 264.027C95.0299 263.971 94.9131 263.889 94.8181 263.784C94.723 263.679 94.652 263.554 94.6101 263.419C94.5681 263.284 94.5561 263.141 94.575 263.001C94.5938 262.861 94.6431 262.726 94.7193 262.607L96.6944 259.503C96.8148 259.317 96.9944 259.178 97.2038 259.108C97.4133 259.038 97.6403 259.041 97.848 259.116Z" fill="#263238"/>
<path d="M133.877 265.234L139.917 264.026C140.175 263.977 140.443 264.022 140.672 264.153C141.493 264.618 143.601 265.718 145.226 265.615C147.286 265.482 148.475 265.555 148.487 266.781C148.5 268.007 147.473 268.242 146.47 268.563C145.661 268.822 137.332 270.272 134.257 270.803C134.118 270.828 133.975 270.822 133.838 270.785C133.702 270.749 133.575 270.683 133.466 270.592C133.358 270.501 133.271 270.387 133.211 270.259C133.152 270.13 133.121 269.99 133.122 269.849V266.165C133.127 265.948 133.204 265.739 133.34 265.57C133.477 265.402 133.666 265.284 133.877 265.234Z" fill="#263238"/>
<path d="M110.236 252.116L98.5004 249.597L97.4675 252.997L108.116 256.126L110.236 252.116Z" fill="#D1D1D1"/>
<path opacity="0.61" d="M127.571 204.152C126.23 193.032 123.488 181.134 123.488 181.134L122.328 166.329C122.328 166.329 128.875 191.903 127.571 204.152Z" fill="black"/>
<path d="M111.372 104.045C113.521 105.52 115.91 106.611 118.432 107.27L116.572 112.749C116.572 112.749 112.024 110.659 109.717 108.768L111.372 104.045Z" fill="white"/>
<path d="M118.432 107.27L121.495 112.018C122.898 110.076 123.913 107.882 124.484 105.555L121.042 103.054C121.042 103.054 119.592 106.219 118.432 107.27Z" fill="white"/>
</g>
</svg>
