<svg width="177" height="177" viewBox="0 0 177 177" fill="none" xmlns="http://www.w3.org/2000/svg">
<g filter="url(#filter0_d_14_241)">
<path d="M27.5 30.0553C27.5 28.3679 28.8681 26.996 30.555 27.0381C45.6008 27.4134 60.4578 30.5585 74.3787 36.3248C89.2411 42.481 102.745 51.5042 114.121 62.8794C125.496 74.2546 134.519 87.7589 140.675 102.621C146.441 116.542 149.587 131.399 149.962 146.445C150.004 148.132 148.632 149.5 146.945 149.5C145.257 149.5 143.894 148.132 143.849 146.445C143.475 132.202 140.489 118.139 135.03 104.96C129.181 90.8387 120.607 78.008 109.8 67.2003C98.992 56.3925 86.1613 47.8194 72.0403 41.9703C58.8608 36.5111 44.7982 33.5247 30.555 33.1507C28.8682 33.1064 27.5 31.7427 27.5 30.0553Z" fill="#D22929"/>
</g>
<defs>
<filter id="filter0_d_14_241" x="0.9" y="0.43717" width="175.663" height="175.663" filterUnits="userSpaceOnUse" color-interpolation-filters="sRGB">
<feFlood flood-opacity="0" result="BackgroundImageFix"/>
<feColorMatrix in="SourceAlpha" type="matrix" values="0 0 0 0 0 0 0 0 0 0 0 0 0 0 0 0 0 0 127 0" result="hardAlpha"/>
<feOffset/>
<feGaussianBlur stdDeviation="13.3"/>
<feComposite in2="hardAlpha" operator="out"/>
<feColorMatrix type="matrix" values="0 0 0 0 0 0 0 0 0 0 0 0 0 0 0 0 0 0 0.04 0"/>
<feBlend mode="normal" in2="BackgroundImageFix" result="effect1_dropShadow_14_241"/>
<feBlend mode="normal" in="SourceGraphic" in2="effect1_dropShadow_14_241" result="shape"/>
</filter>
</defs>
</svg>
