<svg width="588" height="372" viewBox="0 0 588 372" fill="none" xmlns="http://www.w3.org/2000/svg">
<path d="M0.5 48C0.5 36.6722 0.501062 28.2266 1.37422 21.7321C2.24545 15.252 3.97666 10.7893 7.38299 7.38299C10.7893 3.97666 15.252 2.24545 21.7321 1.37422C28.2266 0.501062 36.6722 0.5 48 0.5H540C551.328 0.5 559.773 0.501062 566.268 1.37422C572.748 2.24545 577.211 3.97666 580.617 7.38299C584.023 10.7893 585.755 15.252 586.626 21.7321C587.499 28.2266 587.5 36.6722 587.5 48V324C587.5 335.328 587.499 343.773 586.626 350.268C585.755 356.748 584.023 361.211 580.617 364.617C577.211 368.023 572.748 369.755 566.268 370.626C559.773 371.499 551.328 371.5 540 371.5H151.613C145.138 371.5 140.32 371.499 136.592 371.118C132.87 370.737 130.303 369.982 128.3 368.52C126.309 367.066 124.701 364.54 122.986 360.44C121.275 356.348 119.49 350.773 117.097 343.299C103.757 301.628 70.7254 268.767 28.9488 255.664C21.4094 253.3 15.7865 251.536 11.6581 249.837C7.52247 248.135 4.97365 246.53 3.50701 244.533C2.03178 242.525 1.26962 239.945 0.885391 236.199C0.500621 232.449 0.5 227.598 0.5 221.08V48Z" fill="#FAFAFA" stroke="#EAEAEA"/>
</svg>
