<svg width="588" height="372" viewBox="0 0 588 372" fill="none" xmlns="http://www.w3.org/2000/svg">
<path d="M580.617 7.38299C584.023 10.7893 585.755 15.252 586.626 21.7321C587.499 28.2266 587.5 36.6722 587.5 48V221.08C587.5 227.598 587.499 232.449 587.115 236.199C586.73 239.945 585.968 242.525 584.493 244.533C583.026 246.53 580.478 248.135 576.342 249.837C572.214 251.536 566.591 253.3 559.051 255.664C517.275 268.767 484.243 301.628 470.903 343.299C468.51 350.773 466.725 356.348 465.014 360.44C463.299 364.54 461.691 367.066 459.7 368.52C457.697 369.982 455.13 370.737 451.408 371.118C447.68 371.499 442.862 371.5 436.387 371.5H48C36.6721 371.5 28.2266 371.499 21.7321 370.626C15.252 369.755 10.7893 368.023 7.38297 364.617C3.97665 361.211 2.24544 356.748 1.37422 350.268C0.501062 343.773 0.5 335.328 0.5 324V48C0.5 36.6722 0.501062 28.2266 1.37422 21.7321C2.24544 15.252 3.97665 10.7893 7.38297 7.38299C10.7893 3.97666 15.252 2.24545 21.7321 1.37422C28.2266 0.501062 36.6721 0.5 48 0.5H540C551.328 0.5 559.773 0.501062 566.268 1.37422C572.748 2.24545 577.211 3.97666 580.617 7.38299Z" fill="#FAFAFA" stroke="#EAEAEA"/>
</svg>
