<svg width="588" height="372" viewBox="0 0 588 372" fill="none" xmlns="http://www.w3.org/2000/svg">
<path d="M7.38299 364.617C3.97666 361.211 2.24545 356.748 1.37422 350.268C0.501062 343.773 0.5 335.328 0.5 324V150.92C0.5 144.402 0.500621 139.551 0.885391 135.801C1.26962 132.055 2.03178 129.475 3.50701 127.467C4.97365 125.47 7.52247 123.865 11.6581 122.163C15.7865 120.464 21.4094 118.7 28.9488 116.336C70.7254 103.233 103.757 70.3719 117.097 28.7008C119.49 21.2265 121.275 15.6522 122.986 11.5597C124.701 7.46017 126.309 4.9336 128.3 3.48005C130.303 2.01798 132.87 1.26269 136.592 0.881927C140.32 0.500617 145.138 0.5 151.613 0.5H540C551.328 0.5 559.773 0.501062 566.268 1.37422C572.748 2.24545 577.211 3.97666 580.617 7.383C584.023 10.7893 585.755 15.252 586.626 21.7321C587.499 28.2266 587.5 36.6722 587.5 48V324C587.5 335.328 587.499 343.773 586.626 350.268C585.755 356.748 584.023 361.211 580.617 364.617C577.211 368.023 572.748 369.755 566.268 370.626C559.773 371.499 551.328 371.5 540 371.5H48C36.6722 371.5 28.2266 371.499 21.7321 370.626C15.252 369.755 10.7893 368.023 7.38299 364.617Z" fill="#FAFAFA" stroke="#EAEAEA"/>
</svg>
