<svg width="588" height="372" viewBox="0 0 588 372" fill="none" xmlns="http://www.w3.org/2000/svg">
<path d="M587.5 324C587.5 335.328 587.499 343.773 586.626 350.268C585.755 356.748 584.023 361.211 580.617 364.617C577.211 368.023 572.748 369.755 566.268 370.626C559.773 371.499 551.328 371.5 540 371.5H48C36.6721 371.5 28.2266 371.499 21.7321 370.626C15.252 369.755 10.7893 368.023 7.38297 364.617C3.97665 361.211 2.24544 356.748 1.37422 350.268C0.501062 343.773 0.5 335.328 0.5 324V48C0.5 36.6722 0.501062 28.2266 1.37422 21.7321C2.24544 15.252 3.97665 10.7893 7.38297 7.383C10.7893 3.97666 15.252 2.24545 21.7321 1.37422C28.2266 0.501062 36.6721 0.5 48 0.5H436.387C442.862 0.5 447.68 0.500617 451.408 0.881927C455.13 1.26269 457.697 2.01798 459.7 3.48005C461.691 4.9336 463.299 7.46017 465.014 11.5597C466.725 15.6522 468.51 21.2265 470.903 28.7008C484.243 70.3719 517.275 103.233 559.051 116.336C566.591 118.7 572.214 120.464 576.342 122.163C580.478 123.865 583.026 125.47 584.493 127.467C585.968 129.475 586.73 132.055 587.115 135.801C587.499 139.551 587.5 144.402 587.5 150.92V324Z" fill="#FAFAFA" stroke="#EAEAEA"/>
</svg>
