<svg width="52" height="52" viewBox="0 0 52 52" fill="none" xmlns="http://www.w3.org/2000/svg">
<circle cx="26" cy="26" r="26" fill="#E2E5EE"/>
<path d="M31.9239 34H20.0919V31.288C20.1559 31.256 20.3399 31.136 20.6439 30.928C20.9479 30.704 21.3239 30.432 21.7719 30.112C22.2199 29.792 22.6919 29.448 23.1879 29.08C23.6839 28.696 24.1559 28.32 24.6039 27.952C25.0679 27.584 25.4519 27.248 25.7559 26.944C26.4919 26.24 27.0919 25.576 27.5559 24.952C28.0199 24.328 28.2519 23.648 28.2519 22.912C28.2519 22.512 28.1639 22.112 27.9879 21.712C27.8119 21.296 27.5079 20.952 27.0759 20.68C26.6439 20.392 26.0359 20.248 25.2519 20.248C24.5799 20.248 24.0199 20.384 23.5719 20.656C23.1239 20.912 22.7719 21.216 22.5159 21.568C22.2599 21.92 22.0759 22.24 21.9639 22.528C21.3399 22.416 20.8599 22.208 20.5239 21.904C20.2039 21.584 20.0439 21.232 20.0439 20.848C20.0439 20.208 20.3399 19.6 20.9319 19.024C21.1079 18.864 21.3879 18.664 21.7719 18.424C22.1719 18.184 22.6919 17.976 23.3319 17.8C23.9719 17.608 24.7319 17.512 25.6119 17.512C27.5479 17.512 29.0599 17.992 30.1479 18.952C31.2359 19.912 31.7799 21.176 31.7799 22.744C31.7799 23.528 31.6359 24.232 31.3479 24.856C31.0759 25.48 30.7399 26.04 30.3399 26.536C29.9399 27.032 29.5639 27.464 29.2119 27.832C28.8759 28.168 28.4999 28.512 28.0839 28.864C27.6679 29.216 27.2599 29.544 26.8599 29.848C26.4759 30.152 26.1399 30.408 25.8519 30.616C25.5799 30.824 25.4199 30.944 25.3719 30.976H31.9239V34Z" fill="#172E82"/>
</svg>
