<svg width="52" height="52" viewBox="0 0 52 52" fill="none" xmlns="http://www.w3.org/2000/svg">
<circle cx="26" cy="26" r="26" fill="#E2E5EE"/>
<path d="M25.2999 24.304H25.6359C26.5959 24.304 27.2999 24.112 27.7479 23.728C28.1959 23.344 28.4199 22.856 28.4199 22.264C28.4199 21.672 28.1959 21.16 27.7479 20.728C27.3159 20.28 26.5639 20.056 25.4919 20.056C24.8679 20.056 24.3399 20.144 23.9079 20.32C23.4919 20.496 23.1479 20.712 22.8759 20.968C22.6199 21.224 22.4199 21.472 22.2759 21.712C22.1479 21.936 22.0599 22.104 22.0119 22.216C21.3879 22.168 20.9239 21.984 20.6199 21.664C20.3159 21.328 20.1639 20.952 20.1639 20.536C20.1639 20.312 20.1959 20.096 20.2599 19.888C20.3239 19.68 20.4439 19.464 20.6199 19.24C20.7799 19.032 21.0519 18.792 21.4359 18.52C21.8359 18.248 22.3799 18.016 23.0679 17.824C23.7559 17.616 24.6439 17.512 25.7319 17.512C27.1879 17.512 28.3639 17.72 29.2599 18.136C30.1559 18.552 30.8119 19.104 31.2279 19.792C31.6599 20.464 31.8759 21.192 31.8759 21.976C31.8759 22.664 31.7319 23.264 31.4439 23.776C31.1559 24.272 30.8039 24.688 30.3879 25.024C29.9719 25.344 29.5719 25.576 29.1879 25.72C30.1959 25.992 30.9479 26.48 31.4439 27.184C31.9559 27.872 32.2119 28.656 32.2119 29.536C32.2119 30.992 31.6679 32.168 30.5799 33.064C29.5079 33.96 27.9239 34.408 25.8279 34.408C24.5639 34.408 23.4839 34.272 22.5879 34C21.7079 33.744 21.0279 33.472 20.5479 33.184C20.0839 32.896 19.8279 32.736 19.7799 32.704L21.1959 30.208C21.2919 30.272 21.5319 30.424 21.9159 30.664C22.2999 30.904 22.8039 31.128 23.4279 31.336C24.0519 31.544 24.7719 31.648 25.5879 31.648C26.7079 31.648 27.5079 31.44 27.9879 31.024C28.4679 30.608 28.7079 30.08 28.7079 29.44C28.7079 28.72 28.4359 28.176 27.8919 27.808C27.3479 27.44 26.6039 27.256 25.6599 27.256H23.9799C23.9159 27.16 23.8279 26.976 23.7159 26.704C23.6199 26.416 23.5719 26.096 23.5719 25.744C23.5719 25.264 23.6919 24.904 23.9319 24.664C24.1879 24.424 24.6439 24.304 25.2999 24.304Z" fill="#172E82"/>
</svg>
