<svg width="52" height="336" viewBox="0 0 52 336" fill="none" xmlns="http://www.w3.org/2000/svg">
<rect x="29" y="17" width="319" height="6.99999" rx="3.49999" transform="rotate(90 29 17)" fill="#172E82"/>
<circle cx="26" cy="26" r="26" fill="#172E82"/>
<path d="M28.8279 34H25.4439V22.048L22.3479 24.52C22.1559 24.504 21.9319 24.432 21.6759 24.304C21.4199 24.176 21.1959 23.992 21.0039 23.752C20.8119 23.512 20.7159 23.208 20.7159 22.84C20.7159 22.408 20.8519 22.048 21.1239 21.76C21.3959 21.472 21.7319 21.168 22.1319 20.848L24.8679 18.76C25.2359 18.488 25.5799 18.288 25.8999 18.16C26.2359 18.032 26.6439 17.968 27.1239 17.968C27.6519 17.968 28.0599 18.032 28.3479 18.16C28.6359 18.288 28.7959 18.368 28.8279 18.4V34Z" fill="white"/>
</svg>
